<svg xmlns="http://www.w3.org/2000/svg" viewBox="0 0 300 300" height="300" width="300"><path clip-rule="evenodd" stroke="#fff" stroke-width="4" stroke-miterlimit="10" d="M291.4 273.6c0 7.4-6 13.4-13.3 13.4h-8.2c2.3-3.9 3.7-8.5 3.7-13.4 6.7 0 12.7-2.5 17.4-6.6.4 4 .4 6.6.4 6.6zm-17.8-13.4h-13.4v13.4c0 7.4-6 13.4-13.4 13.4s-13.4-6-13.4-13.4v-13.4h-13.4c-7.4 0-13.4-6-13.4-13.4s6-13.4 13.4-13.4h13.4v-13.4c0-7.4 6-13.4 13.4-13.4s13.4 6 13.4 13.4v13.4h13.4c7.4 0 13.4 6 13.4 13.4 0 7.5-6 13.4-13.4 13.4zm-53.4-40c-14.7 0-26.7 12-26.7 26.7s12 26.7 26.7 26.7c0 4.9 1.4 9.4 3.7 13.4h-204c-7.4 0-13.4-6-13.4-13.4 0 0 0-48.6 35.5-66.3 22.5-11.2 13.8-2.1 41.4-13.6 27.6-11.4 34.2-15.4 34.2-15.4l.3-26.4s-10.3-7.9-13.6-32.7c-6.5 1.9-8.6-7.6-9-13.6-.3-5.8-3.7-24 4.1-22.4-1.4-12.2-2.6-23.1-2-28.9 2-20.4 21.6-41.6 51.8-43.2 35.5 1.6 49.6 22.8 51.6 43.2.6 5.8-.7 16.8-2.3 28.9 7.9-1.6 4.5 16.5 4.1 22.4-.3 6-2.5 15.5-9 13.6-3.2 24.8-13.6 32.7-13.6 32.7l.2 26.2s6.5 3.7 34.2 15.2c8 3.3 12.9 4.9 16.4 5.8-6.4 4.8-10.6 12.4-10.6 21.1z" fill="none"/></svg>