<svg xmlns="http://www.w3.org/2000/svg" viewBox="0 0 300 300" enable-background="new 0 0 300 300"><g><path opacity=".1" fill="#fff" d="M259.2 200.8c0 5.4-3.9 12-8.7 14.7l-92.6 51.7c-4.8 2.7-12.6 2.7-17.4 0l-92.6-51.7c-4.8-2.7-8.7-9.3-8.7-14.7v-103.2c0-5.4 3.9-12 8.7-14.7l92.6-51.7c4.8-2.7 12.6-2.7 17.4 0l92.6 51.7c4.8 2.7 8.7 9.3 8.7 14.7v103.2z"/><path fill="#fff" d="M149.2 30.2c3.1 0 6 .7 8.2 1.9l92.6 51.7c4.4 2.5 8.2 8.8 8.2 13.8v103.2c0 5-3.7 11.3-8.2 13.8l-92.6 51.7c-2.2 1.2-5.1 1.9-8.2 1.9s-6-.7-8.2-1.9l-92.6-51.7c-4.4-2.5-8.2-8.8-8.2-13.8v-103.2c0-5 3.7-11.3 8.2-13.8l92.6-51.7c2.2-1.3 5.1-1.9 8.2-1.9m0-1c-3.2 0-6.3.7-8.7 2l-92.6 51.7c-4.8 2.7-8.7 9.3-8.7 14.7v103.2c0 5.4 3.9 12 8.7 14.7l92.6 51.7c2.4 1.3 5.5 2 8.7 2s6.3-.7 8.7-2l92.6-51.7c4.8-2.7 8.7-9.3 8.7-14.7v-103.2c0-5.4-3.9-12-8.7-14.7l-92.6-51.7c-2.4-1.4-5.5-2-8.7-2z" opacity=".25"/><g stroke="#fff" stroke-miterlimit="10" fill="none"><path d="M215 153.6l-25.4 25.4c-1.1 1.1-2.6 1.7-4.3 1.7-3.5 0-6.3-2.8-6.3-6.3 0-1.7.7-3.3 1.7-4.3l20.9-20.9-20.9-20.9c-1.1-1.1-2-2.8-2-4.6 0-3.5 2.8-6.3 6.3-6.3 1.7 0 3.5.7 4.6 2l25 25c1.3 1.1 2.2 2.8 2.2 4.8.1 1.8-.7 3.4-1.8 4.4zM172.2 107.1l-33.7 88.5c-.9 2.4-3.3 4.1-5.9 4.1-3.5 0-6.3-2.8-6.3-6.3 0-.9.2-1.5.4-2.2l33.5-88.5c.9-2.4 3.3-4.1 5.9-4.1 3.5 0 6.3 2.8 6.3 6.3.2.7 0 1.6-.2 2.2zM117.8 128.4l-20.7 20.9 20.9 20.9c1.1 1.1 1.7 2.6 1.7 4.3 0 3.5-2.8 6.3-6.3 6.3-1.7 0-3.3-.7-4.3-1.7l-25.4-25.4c-1.1-1.1-2-2.8-2-4.6 0-2 .9-3.7 2.2-4.8l25-25c1.1-1.1 2.8-2 4.6-2 3.5 0 6.3 2.8 6.3 6.3 0 2-.7 3.7-2 4.8z"/></g></g></svg>