<svg xmlns="http://www.w3.org/2000/svg" viewBox="0 0 300 300" enable-background="new 0 0 300 300"><g><path opacity=".1" fill="#fff" d="M259.1 200.8c0 5.4-3.9 12-8.7 14.7l-92.6 51.7c-4.8 2.7-12.6 2.7-17.4 0l-92.6-51.7c-4.8-2.7-8.7-9.3-8.7-14.7v-103.2c0-5.4 3.9-12 8.7-14.7l92.6-51.7c4.8-2.7 12.6-2.7 17.4 0l92.6 51.7c4.8 2.7 8.7 9.3 8.7 14.7v103.2z"/><path fill="#fff" d="M149.1 30.2c3.1 0 6 .7 8.2 1.9l92.6 51.7c4.4 2.5 8.2 8.8 8.2 13.8v103.2c0 5-3.7 11.3-8.2 13.8l-92.6 51.7c-2.2 1.2-5.1 1.9-8.2 1.9s-6-.7-8.2-1.9l-92.6-51.7c-4.4-2.5-8.2-8.8-8.2-13.8v-103.2c0-5 3.7-11.3 8.2-13.8l92.6-51.7c2.1-1.3 5-1.9 8.2-1.9m0-1c-3.2 0-6.3.7-8.7 2l-92.6 51.7c-4.8 2.7-8.7 9.3-8.7 14.7v103.2c0 5.4 3.9 12 8.7 14.7l92.6 51.7c2.4 1.3 5.5 2 8.7 2s6.3-.7 8.7-2l92.6-51.7c4.8-2.7 8.7-9.3 8.7-14.7v-103.2c0-5.4-3.9-12-8.7-14.7l-92.6-51.7c-2.4-1.4-5.6-2-8.7-2z" opacity=".25"/><path stroke="#fff" stroke-miterlimit="10" d="M97.8 105.4h102.7v64.6h-102.7v-64.6zm110.2 74.1c0 3.1-2.5 5.8-5.8 5.8h-36v9.4l7.7 7.7v1.9h-49.4v-1.9l7.7-7.7v-9.4h-36.3c-3.1 0-5.8-2.5-5.8-5.8v-76c0-3.1 2.5-5.8 5.8-5.8h106.3c3.1 0 5.8 2.5 5.8 5.8v76z" fill="none"/></g></svg>