<svg xmlns="http://www.w3.org/2000/svg" viewBox="0 0 300 300" enable-background="new 0 0 300 300"><g><path opacity=".1" fill="#fff" d="M259.2 200.8c0 5.4-3.9 12-8.7 14.7l-92.6 51.7c-4.8 2.7-12.6 2.7-17.4 0l-92.6-51.7c-4.8-2.7-8.7-9.3-8.7-14.7v-103.2c0-5.4 3.9-12 8.7-14.7l92.6-51.7c4.8-2.7 12.6-2.7 17.4 0l92.6 51.7c4.8 2.7 8.7 9.3 8.7 14.7v103.2z"/><path fill="#fff" d="M149.2 30.2c3.1 0 6 .7 8.2 1.9l92.6 51.7c4.4 2.5 8.2 8.8 8.2 13.8v103.2c0 5-3.7 11.3-8.2 13.8l-92.6 51.7c-2.2 1.2-5.1 1.9-8.2 1.9-3.1 0-6-.7-8.2-1.9l-92.6-51.7c-4.4-2.5-8.2-8.8-8.2-13.8v-103.2c0-5 3.7-11.3 8.2-13.8l92.6-51.7c2.2-1.3 5.1-1.9 8.2-1.9m0-1c-3.2 0-6.3.7-8.7 2l-92.6 51.7c-4.8 2.7-8.7 9.3-8.7 14.7v103.2c0 5.4 3.9 12 8.7 14.7l92.6 51.7c2.4 1.3 5.5 2 8.7 2s6.3-.7 8.7-2l92.6-51.7c4.8-2.7 8.7-9.3 8.7-14.7v-103.2c0-5.4-3.9-12-8.7-14.7l-92.6-51.7c-2.4-1.4-5.5-2-8.7-2z" opacity=".25"/><path stroke="#fff" stroke-linecap="round" stroke-linejoin="round" stroke-miterlimit="10" d="M100.6 158.1v28.4h102.8c3 0 5.6 2.4 5.6 5.6 0 3-2.4 5.6-5.6 5.6h-108.4c-3 0-5.6-2.4-5.6-5.6v-99.6c0-3 2.4-5.6 5.6-5.6 3 0 5.6 2.4 5.6 5.6v52.5l23.5-15.9c.8-.4 1.8-.8 2.8-.8 1.2 0 2.2.4 3 1l24.9 16.5 45.4-31.5c1-.6 2-1 3.2-1 3 0 5.6 2.4 5.6 5.6.2 1.8-.8 3.6-2.2 4.6l-48.6 33.5c-1 .6-2 1-3.2 1-1.2 0-2.2-.4-3-1l-25.1-16.7-26.3 17.8z" fill="none"/></g></svg>