<svg xmlns="http://www.w3.org/2000/svg" viewBox="0 0 300 300" enable-background="new 0 0 300 300"><g><path opacity=".1" fill="#fff" d="M259.1 200.8c0 5.4-3.9 12-8.7 14.7l-92.6 51.7c-4.8 2.7-12.6 2.7-17.4 0l-92.6-51.7c-4.8-2.7-8.7-9.3-8.7-14.7v-103.2c0-5.4 3.9-12 8.7-14.7l92.6-51.7c4.8-2.7 12.6-2.7 17.4 0l92.6 51.7c4.8 2.7 8.7 9.3 8.7 14.7v103.2z"/><path fill="#fff" d="M149.1 30.2c3.1 0 6 .7 8.2 1.9l92.6 51.7c4.4 2.5 8.2 8.8 8.2 13.8v103.2c0 5-3.7 11.3-8.2 13.8l-92.6 51.7c-2.2 1.2-5.1 1.9-8.2 1.9s-6-.7-8.2-1.9l-92.6-51.7c-4.4-2.5-8.2-8.8-8.2-13.8v-103.2c0-5 3.7-11.3 8.2-13.8l92.6-51.7c2.1-1.3 5.1-1.9 8.2-1.9m0-1c-3.2 0-6.3.7-8.7 2l-92.6 51.7c-4.8 2.7-8.7 9.3-8.7 14.7v103.2c0 5.4 3.9 12 8.7 14.7l92.6 51.7c2.4 1.3 5.5 2 8.7 2s6.3-.7 8.7-2l92.6-51.7c4.8-2.7 8.7-9.3 8.7-14.7v-103.2c0-5.4-3.9-12-8.7-14.7l-92.6-51.7c-2.4-1.4-5.6-2-8.7-2z" opacity=".25"/><g stroke="#fff" stroke-miterlimit="10" fill="none"><path d="M172.5 137.5v-18.2c0-12.9-10.5-23.4-23.4-23.4-12.9 0-23.4 10.5-23.4 23.4v18.3M114 137.6v-18.3c0-19.3 15.8-35.1 35.1-35.1s35.1 15.8 35.1 35.1v18.2"/><path d="M194 137.6h-89.8c-3.3 0-5.9 2.7-5.9 5.9v50.7c0 3.3 2.7 5.9 5.9 5.9h89.6c3.3 0 5.9-2.7 5.9-5.9h.2v-50.7c.1-3.2-2.6-5.9-5.9-5.9zm-38.8 33.4v11.3c0 3.3-2.7 5.9-5.9 5.9s-5.9-2.7-5.9-5.9v-11.3c-3.5-2.1-5.9-5.7-5.9-10.1 0-6.4 5.3-11.7 11.7-11.7 6.4 0 11.7 5.3 12.1 11.7-.1 4.4-2.6 8.1-6.1 10.1z"/></g></g></svg>