<svg xmlns="http://www.w3.org/2000/svg" width="1920" height="810" viewBox="0 0 1920 810"><path fill="#585858" d="M718.1 196.2h-343.1c-5.9 0-10.6 4.7-10.6 10.6v218.7c0 5.9 4.7 10.6 10.6 10.6h129.6c-.2 4.5-.8 10.6-1.5 16.5-1.9 15.8-3.2 15.3-3.6 15.4-1.3.6-5.3 1.2-8.8 1.7-6.2.9-7.2 1.2-7.2 1.7v.9c0 .2 0 .5 1.2.6 0 .3 20 .7 38.2.7h46.6c18.2 0 38.2-.3 38.2-.7 1.2-.1 1.2-.3 1.2-.6v-.9c0-.6-.9-.8-7.2-1.7-3.5-.6-7.5-1.2-8.8-1.7-.2-.1-1.7.5-3.6-15.4-.7-5.9-1.2-12-1.5-16.5h130.3c5.9 0 10.6-4.7 10.6-10.6v-218.7c0-5.9-4.7-10.6-10.6-10.6zm-129.5 256.7c2 17.1 3.5 15.7 3.9 16 1.4.6 5.2 1.2 9 1.7 2.7.5 5.9.9 6.6 1.3v.6c-1.6.5-14.6.7-38.5.7h-47c-23.9 0-36.8-.2-38.5-.7v-.6c.6-.3 3.9-.8 6.6-1.3 3.7-.6 7.6-1.2 9-1.7.5-.2 2 1.2 3.9-16 .7-5.9 1.2-12.1 1.5-16.7h81.9c.3 4.6.9 10.8 1.6 16.7zm139.4-27.3c0 5.4-4.5 9.9-9.9 9.9h-343.1c-5.4 0-9.9-4.5-9.9-9.9v-5h363v5zm0-5.7h-363v-213.1c0-5.4 4.5-9.9 9.9-9.9h343.1c5.4 0 9.9 4.5 9.9 9.9.1 0 .1 213.1.1 213.1zm-14.9-209.1h-333.2c-.6 0-1 .5-1 1v193.2c0 .6.5 1 1 1h333.1c.6 0 1-.5 1-1v-193.2c.1-.6-.3-1-.9-1zm0 194.2h-333.2v-193.2h333.1v193.2z"/><path opacity=".2" fill="#585858" enable-background="new" d="M379.8 211.7h333.4v193.4h-333.4z"/><path fill="#585858" d="M1553.1 250.9c-1.7-1.7-4-2.7-6.6-2.7h-132.2c-2.3 0-4.6.9-6.4 2.7-1.7 1.7-2.7 4-2.7 6.5v207.3c0 5 4.4 9.1 9.8 9.1h130.7c2.7 0 5.1-.9 6.9-2.7s2.9-4.2 2.9-6.8v-206.9c.3-2.4-.6-4.8-2.4-6.5zm2 213.4c0 5.2-4.2 8.8-9.1 8.8h-130.7c-5.1 0-9.1-3.8-9.1-8.4v-207.3c0-4.6 3.8-8.4 8.2-8.4h132.2c4.9 0 8.6 3.8 8.6 8.4v206.9zm-8.6-214.3h-132.2c-1.9 0-3.7.8-5.1 2.2-1.4 1.4-2.2 3.2-2.2 5.2v207.3c0 4 3.6 7.4 8.1 7.4h130.7c2.2 0 4.2-.8 5.7-2.2 1.5-1.4 2.4-3.5 2.4-5.7v-206.8c0-2-.8-3.8-2.2-5.2-1.2-1.4-3.2-2.2-5.2-2.2zm6.9 214.3c0 2-.8 3.8-2.2 5.1-1.4 1.3-3.2 2-5.2 2h-130.7c-4 0-7.4-3-7.4-6.7v-207.3c0-1.7.7-3.5 2-4.7s2.9-2 4.6-2h132.1c1.9 0 3.6.7 4.9 2 1.3 1.3 2 2.9 2 4.7-.1 0-.1 206.9-.1 206.9zm-8.1-204.6h-129.1c-.5 0-.9.3-.9.8v192.7c0 .5.3.8.9.8h129c.5 0 .9-.3.9-.8v-192.6c0-.4-.4-.9-.8-.9zm0 193.6h-129.1v-192.7h129v192.7h.1zm-63.9 4.1c-2.9 0-5.2 2.3-5.2 5.2v.1c.1 2.8 2.3 5.1 5.2 5.1 2.9 0 5.2-2.3 5.2-5.2 0-2.9-2.3-5.2-5.2-5.2zm0 9.7c-1.2 0-2.3-.5-3.1-1.3-.8-.8-1.3-2-1.4-3.1v-.1c0-2.5 2-4.5 4.5-4.5s4.5 2.1 4.5 4.5c0 2.5-2 4.5-4.5 4.5z"/><path opacity=".2" fill="#585858" enable-background="new" d="M1416 259.9h129.1v192.9h-129.1z"/><path fill="#585858" d="M1309.9 337.9c-1.9-1.9-4.4-2.9-7.2-2.9h-49.3c-2.7 0-5.2 1-7.2 2.9-1.9 1.9-3 4.4-3 7.2v118.7c0 2.7 1 5.2 3 7.2 1.9 1.9 4.4 2.9 7.2 2.9h49.3c2.7 0 5.2-1 7.2-2.9 1.9-1.9 3-4.4 3-7.2v-118.7c-.2-2.7-1.2-5.2-3-7.2zm-65.9 10.4h.7v112.3h-.7v-112.3zm68.1 115.4c0 2.5-.9 4.9-2.8 6.6-1.7 1.7-4.2 2.8-6.6 2.8h-49.3c-2.5 0-4.9-.9-6.6-2.8-1.7-1.7-2.8-4.2-2.8-6.6v-2.1h.7v2.1c0 4.7 3.9 8.7 8.7 8.7h49.3c4.7 0 8.7-3.9 8.7-8.7v-2.1h.7v2.1zm-66.7 0v-118.6c0-4.4 3.6-8 8-8h49.3c4.4 0 8 3.6 8 8v118.7c0 4.4-3.6 8-8 8h-49.3c-4.4-.1-8-3.7-8-8.1zm66.7-3.1h-.7v-112.3h.7v112.3zm0-113.3h-.7v-2.2c0-4.7-3.9-8.7-8.7-8.7h-49.3c-4.7 0-8.7 3.9-8.7 8.7v2.2h-.7v-2.2c0-2.5.9-4.9 2.8-6.6 1.7-1.7 4.2-2.8 6.6-2.8h49.3c2.5 0 4.9.9 6.6 2.8 1.7 1.7 2.8 4.2 2.8 6.6v2.2zm-38.2-1.5h9.5c.7 0 1.3-.6 1.3-1.3 0-.7-.6-1.3-1.3-1.3h-9.5c-.7 0-1.3.6-1.3 1.3 0 .7.6 1.3 1.3 1.3zm0-2h9.5c.3 0 .6.2.6.6 0 .3-.2.6-.6.6h-9.5c-.3 0-.6-.2-.6-.6 0-.3.2-.6.6-.6zm-25.4 110.6h58.8c.3 0 .7-.3.7-.7v-100.9c0-.3-.3-.7-.7-.7h-58.8c-.3 0-.7.3-.7.7v100.9c.1.3.4.7.7.7zm0-101.6h58.8v100.9h-58.8v-100.9zm30.2 104.5c-2.9 0-5.2 2.3-5.2 5.2 0 2.9 2.3 5.2 5.2 5.2 2.9 0 5.2-2.3 5.2-5.2-.1-2.9-2.4-5.2-5.2-5.2zm0 9.7c-2.5 0-4.5-2.1-4.5-4.5 0-2.5 2.1-4.5 4.5-4.5 2.5 0 4.5 2.1 4.5 4.5.1 2.5-2 4.5-4.5 4.5z"/><path opacity=".2" fill="#585858" enable-background="new" d="M1248.5 352.8h59.1v101h-59.1z"/><path fill="#585858" d="M1150.3 463.2h-30.3c.3-1 .6-2.1.6-3.2v-155.4c0-5.6-4.5-10.1-10.1-10.1h-248.8c-5.6 0-10.1 4.5-10.1 10.1v155.4c0 1.2.2 2.2.6 3.2h-30.5c-.2 0-.5.2-.5.5v5.1c0 .1 0 .6.3.8l.3.2c2.3 1.6 8 3.9 14.3 3.9h299.6c6.4 0 12.1-2.3 14.3-3.9.1-.1.2-.2.3-.2.3-.2.3-.6.3-.7v-5.2c.3-.2.1-.5-.3-.5zm-297.8-158.6c0-5.1 4.2-9.4 9.4-9.4h248.8c5.1 0 9.4 4.2 9.4 9.4v155.4c0 1.2-.2 2.2-.6 3.2h-27.2v-.1l-.8-3.6h24.3c2 0 3.5-1.5 3.5-3.5v-151.5c0-4.5-3.7-8.3-8.3-8.3h-249.4c-4.5 0-8.3 3.7-8.3 8.3v151.5c0 2 1.5 3.5 3.5 3.5h23.5l-.8 3.6v.1h-26.5c-.3-1-.6-2.1-.6-3.2v-155.4h.1zm27.7 158.6l.8-3.7h209.5l.8 3.7h-211.1zm128.6.7c-.2 1.2-1.3 3-3.2 3h-38.8c-2 0-3-1.9-3.2-3h45.2zm-151.9-5.1c-1.5 0-2.8-1.3-2.8-2.8v-151.5c0-4.2 3.4-7.6 7.6-7.6h249c4.2 0 7.6 3.4 7.6 7.6v151.5c0 1.5-1.3 2.8-2.8 2.8h-258.6zm279 14.3h-299.6c-5.4 0-10.3-1.7-13-3.1h325.5c-2.6 1.4-7.5 3.1-12.9 3.1zm14.3-4.1v.2l-.2.2h-327.8l-.2-.1c-.1 0-.1-.1-.1-.3v-5h140.9c.2 1.4 1.6 3.7 3.9 3.7h38.8c2.3 0 3.7-2.3 3.9-3.7h140.8v5zm-38.8-163.7h-250.6c-.5 0-.8.3-.8.9v146c0 .5.3.9.8.9h250.6c.5 0 .8-.3.8-.9v-146.1c0-.5-.4-.8-.8-.8zm0 146.9h-250.6v-146.1h250.6v146.1z"/><path opacity=".2" fill="#585858" enable-background="new" d="M860.8 306.2h250.7v146h-250.7z"/><path fill="#585858" d="M591.6 287.5l-54.3 54.3c-1.4 1.4-3.6 1.4-5 0l-1-1-1.2-1.2-5.1-5.1s0-.1-.1-.1l-23.5-23.7c-1.4-1.4-1.4-3.6 0-5l7.4-7.4c1.4-1.4 3.6-1.4 5 0l21.2 21.3 44.4-44.4c1.4-1.4 3.6-1.4 5 0l7.4 7.4c1.1 1.3 1.1 3.5-.2 4.9zM1019.4 363.7l-40 40c-1 1-2.7 1-3.6 0l-.8-.8-1-.9-3.8-3.8v-.2l-17.4-17.5c-1-1-1-2.7 0-3.6l5.4-5.4c1-1 2.7-1 3.6 0l15.6 15.7 32.7-32.7c1-1 2.7-1 3.6 0l5.4 5.4c1.2 1.1 1.2 2.7.3 3.8zM1506.2 349.6l-29.7 29.7c-.7.7-2 .7-2.7 0l-.6-.6-.7-.7-2.8-2.8v-.1l-12.8-13c-.7-.7-.7-2 0-2.7l4-4c.7-.7 2-.7 2.7 0l11.6 11.7 24.3-24.3c.7-.7 2-.7 2.7 0l4 4c.7.8.7 2 0 2.8zM1294.8 395.5l-20.4 20.4c-.5.5-1.4.5-1.9 0l-.5-.5-.5-.5-2-2-8.8-8.9c-.5-.5-.5-1.4 0-1.9l2.8-2.8c.5-.5 1.4-.5 1.9 0l7.9 8 16.7-16.7c.5-.5 1.4-.5 1.9 0l2.8 2.8c.7.7.7 1.5.1 2.1z"/></svg>