<?xml version="1.0" encoding="utf-8"?>
<!-- Generator: Adobe Illustrator 18.0.0, SVG Export Plug-In . SVG Version: 6.00 Build 0)  -->
<!DOCTYPE svg PUBLIC "-//W3C//DTD SVG 1.1//EN" "http://www.w3.org/Graphics/SVG/1.1/DTD/svg11.dtd">
<svg version="1.1" id="Ebene_1" xmlns="http://www.w3.org/2000/svg" xmlns:xlink="http://www.w3.org/1999/xlink" x="0px" y="0px"
	 viewBox="0 104.5 214 31" enable-background="new 0 104.5 214 31" xml:space="preserve" width="214" height="31">
<path fill="#FFFFFF" d="M140.3,135.1L140.3,135.1c3.9,0,6.9-1.6,10.4-4.5l-3-3c-2,1.7-4.7,3.1-7,3.1c-4.3,0-6.9-3.3-7.4-9h18.7
	l0.1-0.3c0.1-0.7,0.2-1.3,0.2-2.3c0-4.1-1-7.7-3-10.2c-2-2.6-5-4.1-8.8-4.1c-3.5,0-6.5,1.5-8.7,4.1c-2.1,2.6-3.4,6.3-3.4,10.9
	c0,5.6,1.6,9.4,3.9,11.9C134.7,134.2,137.7,135.1,140.3,135.1L140.3,135.1z M140.5,109.2L140.5,109.2c2.4,0,4.1,0.9,5.2,2.5
	c1.1,1.5,1.8,3.6,2,6.1h-14.4C134,111.8,136.6,109.2,140.5,109.2L140.5,109.2z M35.5,104.9c-8,0-12.7,6.2-12.7,15.1
	c0,8.9,4.7,15.1,12.7,15.1s12.7-6.2,12.7-15.1C48.2,111.1,43.4,104.9,35.5,104.9z M35.5,129.3c-4.7,0-6.7-4.1-6.7-9.3
	c0-5.2,2-9.3,6.7-9.3s6.7,4.1,6.7,9.3C42.1,125.2,40.2,129.3,35.5,129.3z M119.9,134.6h4.3v-29.3h-4.7l-6.4,15.6
	c-0.7,1.7-1.5,3.8-2,5c-0.4-1.2-1.3-3.3-2-5l-6.6-15.6H98v21.9c0.7,1.1,1.2,2.4,1.2,3.8c0,1.3-0.4,2.5-1.1,3.6h4v-15.5
	c0-1.8,0-4.3-0.1-5.1c0.3,0.8,1.2,2.9,1.9,4.6l7,16l7.1-16c0.7-1.7,1.5-3.8,1.9-4.6c0,0.8-0.1,3.4-0.1,5.1L119.9,134.6L119.9,134.6z
	 M57.9,105.4h-5.9v29.3h5.9V105.4z M80.9,117.7c0,1.6,0.1,5.3,0.1,6.4c-0.4-0.8-1.3-2.2-2.1-3.3l-10.4-15.5h-5.6v29.3h5.8v-12.9
	c0-1.6-0.1-5.3-0.1-6.4c0.4,0.8,1.3,2.2,2.1,3.3l11,16h4.9c-0.7-1-1-2.3-1-3.6c0-1.4,0.4-2.7,1.2-3.8v-21.9h-5.8L80.9,117.7
	L80.9,117.7z M209.2,134.6h4.8v-20.2c0-3.3-1-5.8-2.8-7.3c-1.8-1.6-4.8-2.2-7.9-2.2c-4.7,0-7.6,1.2-9.8,3.3l2.9,2.9
	c1.7-1.4,3.4-2,6.6-2c2,0,3.8,0.5,4.7,1.5c0.9,0.9,1.4,2.4,1.4,4.4v2.7c-1.7-0.8-4-1.4-6.6-1.4c-2.9,0-5.6,0.7-7.7,2.2
	c-2.1,1.5-3.5,3.9-3.5,7.2c0,3.5,1.2,5.9,3,7.4c1.8,1.5,4.2,2,6.4,2h0c3.7,0,6.4-1.6,8.4-3.5L209.2,134.6L209.2,134.6z M201.5,131
	c-1.7,0-3-0.4-3.9-1.3c-0.9-0.9-1.5-2.3-1.5-4.3c0-1.7,0.6-2.9,1.6-3.8c1-0.9,2.6-1.3,4.6-1.3h0c3.3,0,5.1,0.5,6.9,1.5v5.3
	C207.5,129.3,204.9,131,201.5,131L201.5,131z M187,105.4h-4.4v29.3h4.4L187,105.4L187,105.4z M178.4,120c0-10.3-6.4-14.6-14.3-14.6
	h-8v29.3h8C171.7,134.6,178.4,130.3,178.4,120z M164.1,130.4h-3.6v-20.8h3.6c6.9,0,9.8,4.2,9.8,10.4S171,130.4,164.1,130.4z
	 M19.1,105.4h-5.9v17.2c0,4.4-1.6,6.7-5.2,6.7c-1.7,0-2.9-0.5-3.9-1.6L0,131.8c1.9,2.1,4.5,3.3,8,3.3c7.7,0,11.1-5,11.1-12.7
	C19.1,122.4,19.1,105.4,19.1,105.4z M92.3,135.1c2.2,0,4.1-1.8,4.1-4c0-2.2-1.9-4.2-4.1-4.2c-2.2,0-4.1,2-4.1,4.2
	C88.2,133.3,90.1,135.1,92.3,135.1z"/>
</svg>
