<?xml version="1.0" encoding="utf-8"?>
<!DOCTYPE svg PUBLIC "-//W3C//DTD SVG 1.1//EN" "http://www.w3.org/Graphics/SVG/1.1/DTD/svg11.dtd">
<svg version="1.1" xmlns="http://www.w3.org/2000/svg" xmlns:xlink="http://www.w3.org/1999/xlink" x="0px" y="0px" width="293px" height="42px" viewBox="0 0 558 83" enable-background="new 0 0 558 83" xml:space="preserve">
	<path fill="#000" d="M364.573 80.517h.099c9.806 0 17.432-4.17 26.185-11.365l-7.489-7.49c-4.966 4.308-11.797 7.968-17.702 7.982-10.804-.016-17.593-8.434-18.849-22.854h47.541l.141-.836c.283-1.686.423-3.271.423-5.761-.002-10.399-2.56-19.423-7.599-25.901-5.031-6.485-12.59-10.433-22.203-10.42-8.812-.006-16.537 3.794-21.982 10.415-5.45 6.616-8.643 16.101-8.643 27.681-.002 14.242 4.059 23.952 9.901 30.073 5.84 6.122 13.387 8.478 20.177 8.476zm.41-65.772v.002c6.021.016 10.285 2.369 13.299 6.292 2.847 3.727 4.507 9.056 5.013 15.425h-36.465c1.525-14.973 8.317-21.662 18.153-21.719zm-267.605-10.857c-20.27 0-32.262 15.705-32.262 38.311 0 22.604 11.992 38.311 32.262 38.311s32.262-15.707 32.262-38.311c0-22.606-11.992-38.311-32.262-38.311zm0 61.869c-11.992 0-16.979-10.293-16.979-23.559 0-13.266 4.987-23.561 16.979-23.561s16.98 10.295 16.98 23.561c.001 13.266-4.988 23.559-16.98 23.559zm215.334 13.584h10.931v-74.287h-11.887l-16.343 39.586c-1.804 4.35-3.927 9.656-4.988 12.734-.955-3.078-3.289-8.49-5.094-12.734l-16.661-39.586h-11.462v55.499c1.889 2.806 3.005 6.16 3.005 9.722 0 3.301-1.009 6.41-2.709 9.066h10.211v-39.266c0-4.457-.106-10.931-.213-13.053.85 2.122 2.972 7.429 4.776 11.674l17.828 40.592 18.042-40.592c1.804-4.245 3.927-9.552 4.775-11.674-.106 2.122-.212 8.596-.212 13.053v39.266zm-158.348-74.287h-14.858v74.288h14.858v-74.288zm59.322 31.414c0 4.139.212 13.478.212 16.236-.955-1.91-3.396-5.624-5.2-8.383l-26.32-39.267h-14.221v74.288h14.645v-32.687c0-4.139-.212-13.478-.212-16.236.955 1.91 3.396 5.624 5.2 8.383l27.84 40.539h12.374c-1.654-2.639-2.626-5.738-2.626-9.066 0-3.525 1.097-6.846 2.951-9.634v-55.587h-14.645v31.414zm325.487 42.877h12.223v-51.192c.012-8.495-2.498-14.646-7.113-18.582-4.61-3.935-12.134-5.694-19.966-5.694-11.846 0-19.314 3.13-24.838 8.351l7.332 7.332c4.207-3.431 8.628-5.094 16.824-5.094 5.099 0 9.67 1.354 11.991 3.721 2.324 2.367 3.544 6.021 3.547 11.194v6.823c-4.331-2.025-10.254-3.459-16.854-3.463-7.245.004-14.294 1.73-19.607 5.611-5.317 3.869-8.809 9.971-8.792 18.289-.014 8.873 3.044 14.96 7.622 18.713 4.573 3.756 10.528 5.176 16.278 5.178h.029c9.403 0 16.296-3.951 21.323-8.768v7.581zm-19.581-9.127c-4.196-.002-7.551-1.1-9.868-3.354-2.314-2.257-3.712-5.762-3.717-10.905.012-4.271 1.453-7.432 4.086-9.623 2.634-2.185 6.579-3.416 11.665-3.416h.015c8.297.01 13.043 1.349 17.402 3.683v13.522c-4.233 5.675-10.805 10.089-19.583 10.093zm-36.639-65.164h-11.143v74.288h11.144v-74.288zm-21.962 37.144c0-26.213-16.237-37.145-36.189-37.145h-20.27v74.288h20.27c19.42 0 36.189-10.93 36.189-37.143zm-36.19 26.319h-9.126v-52.638h9.126c17.617 0 24.834 10.719 24.834 26.319s-7.217 26.319-24.834 26.319zm-368.959-63.463h-14.857v43.725c0 11.143-4.139 16.979-13.266 16.979-4.341 0-7.448-1.316-9.863-3.998l-10.409 10.409c4.803 5.223 11.51 8.34 20.272 8.34 19.421 0 28.123-12.734 28.123-32.156v-43.299zm186.954 75.479c5.534 0 10.417-4.648 10.417-10.258 0-5.61-4.883-10.579-10.417-10.579-5.696 0-10.417 4.969-10.417 10.579 0 5.609 4.721 10.258 10.417 10.258z"/>
</svg>