<?xml version="1.0" encoding="utf-8"?>
<!-- Generator: Adobe Illustrator 18.0.0, SVG Export Plug-In . SVG Version: 6.00 Build 0)  -->
<!DOCTYPE svg PUBLIC "-//W3C//DTD SVG 1.1//EN" "http://www.w3.org/Graphics/SVG/1.1/DTD/svg11.dtd">
<svg version="1.1" id="Ebene_1" xmlns="http://www.w3.org/2000/svg" xmlns:xlink="http://www.w3.org/1999/xlink" x="0px" y="0px"
	 viewBox="0 0 563 105" enable-background="new 0 0 563 105" xml:space="preserve">
<path fill="#1D9ED0" d="M76.2,59.3c-4-4.2-7.5-7.5-10.6-9.3c-8.9-5.1-19.4-10.5-36-17.2c-0.5,6,2.7,13.9,12,19.2
	c-2-0.3-5.7,0.4-8.6,1.1C34.1,60,38,65.6,48.6,68.4c-4.8,0.3-7.3,1.6-9.6,4.1c2.2,4.8,7.6,10.4,17.3,9.2c0,0,6.7-2.5,12.7-9.3
	S76.2,59.3,76.2,59.3z"/>
<path fill="#00ACEE" d="M51.9,73.2C40.9,87.7,13.5,88.8,0,74.7c35.2,52.3,111.9,30.9,123.3-19.5c8.6,0.1,13.6-3.2,16.7-6.9
	c-4.9,0.9-12.1,0-15.9-1.8c7.9-0.7,13.2-4.6,15.2-9.9c-2.8,1.9-11.6,4-16.5,2c-0.2-1.2-0.5-2.4-0.8-3.5
	C118.4,20.5,105.7,8.6,92.4,10c1.1-0.5,2.2-0.9,3.2-1.3c1.5-0.6,10-2.1,8.7-5.4c-1.1-2.9-11.6,2.2-13.6,2.9c2.6-1.1,6.9-2.9,7.4-6.2
	c-4,0.6-7.9,2.7-10.9,5.6c1.1-1.3,1.9-2.9,2.1-4.5C52.5,16.1,63.6,58,51.9,73.2z"/>
<path fill="#2AC4FF" d="M83.5,56.2c-4-4.2-7.5-7.5-10.6-9.3c-8.9-5.1-19.4-10.5-36-17.2c-0.5,6,2.7,13.9,12,19.2
	c-2-0.3-5.7,0.4-8.6,1.1c1.2,6.9,5.1,12.5,15.7,15.2c-4.8,0.3-7.3,1.6-9.6,4.1c2.2,4.8,7.6,10.4,17.3,9.2c0,0,6.7-2.5,12.7-9.3
	C82.4,62.5,83.5,56.2,83.5,56.2z"/>
<path fill="#00ACEE" d="M192.9,73.2c-11.1,14.5-38.4,15.5-51.9,1.5c35.2,52.3,111.9,30.9,123.3-19.5c8.6,0.1,13.6-5.2,16.7-8.9
	c-4.9,0.9-12.1,2-15.9,0.2c7.9-0.7,13.2-1.6,15.2-6.9c-2.8,1.9-11.6,1-16.5-1c-0.2-1.2-0.5-2.4-0.8-3.5
	c-3.7-14.8-16.4-26.7-29.7-25.3c1.1-0.5,2.2-0.9,3.2-1.3c1.5-0.6,9.3-1.2,7.9-4.4c-1.1-2.9-10.9,1.2-12.8,1.9c2.6-1.1,6.6-2.5,7-5.7
	c-4,0.6-7.6,2.2-10.6,5.2c1.1-1.3,2.9-3.7,2.1-4.5C193.5,16.1,204.6,58,192.9,73.2z"/>
<path fill="#1D9ED0" d="M370.2,57.4c5.8-0.2,10.6,0,14.1,0.9c9.9,2.6,21.2,6.3,37.7,13.3c-3.9,4.6-11.8,7.9-22.1,5.1
	c1.6,1.2,3.8,4.3,5.3,6.9c-5.7,4-12.5,5.2-21.9-0.3c3.2,3.7,4.1,6.3,3.9,9.7c-4.9,1.8-12.7,2-18.7-5.7c0,0-3-6.5-2.4-15.6
	S370.2,57.4,370.2,57.4z"/>
<path fill="#00ACEE" d="M333.9,73.2c-11.1,14.5-38.4,15.5-51.9,1.5c35.2,52.3,111.9,30.9,123.3-19.5c8.6,0.1,13.6-3.2,16.7-6.9
	c-4.9,0.9-12.1,0-15.9-1.8c7.9-0.7,13.2-4.6,15.2-9.9c-2.8,1.9-11.6,4-16.5,2c-0.2-1.2-0.5-2.4-0.8-3.5
	c-3.7-14.8-16.4-26.7-29.7-25.3c1.1-0.5,2.2-0.9,3.2-1.3c1.5-0.6,10-2.1,8.7-5.4c-1.1-2.9-11.6,2.2-13.6,2.9
	c2.6-1.1,6.9-2.9,7.4-6.2c-4,0.6-7.9,2.7-10.9,5.6c1.1-1.3,1.9-2.9,2.1-4.5C334.5,16.1,345.6,58,333.9,73.2z"/>
<path fill="#2AC4FF" d="M364.9,68.4c5.8-0.2,10.6,0,14.1,0.9c9.9,2.6,21.2,6.3,37.7,13.3c-3.9,4.6-11.8,7.9-22.1,5.1
	c1.6,1.2,3.8,4.3,5.3,6.9c-5.7,4-12.5,5.2-21.9-0.3c3.2,3.7,4.1,6.3,3.9,9.7c-4.9,1.8-12.7,2-18.7-5.7c0,0-3-6.5-2.4-15.6
	C361.3,73.6,364.9,68.4,364.9,68.4z"/>
<path fill="#2AC4FF" d="M226.1,72.4c3.2-3.5,4.3-5.8,5-7.9c2.2-5.7,1.8-13.3,3.6-21.7c-4.6,4.7-6.1,11.7-8.3,17.6
	c-0.2-0.6-5.9,1.1-7,1.2c-4.9,5.7-4.4,9.2-4.5,13.3c-1.2-0.6-6.7,0.3-9.1,2c-3.2,4.2-3.2,9-0.5,9.8c0,0,3.2-0.8,9.5-5.2
	C221.1,77.2,226.1,72.4,226.1,72.4z"/>
<path fill="#00ACEE" d="M474.9,73.2c-11.1,14.5-38.4,15.5-51.9,1.5c35.2,52.3,111.9,30.9,123.3-19.5c8.6,0.1,13.6-5.2,16.7-8.9
	c-4.9,0.9-12.1,2-15.9,0.2c7.9-0.7,13.2-1.6,15.2-6.9c-2.8,1.9-11.6,1-16.5-1c-0.2-1.2-0.5-2.4-0.8-3.5
	c-3.7-14.8-16.4-26.7-29.7-25.3c1.1-0.5,2.2-0.9,3.2-1.3c1.5-0.6,9.3-1.2,7.9-4.4c-1.1-2.9-10.9,1.2-12.8,1.9c2.6-1.1,6.6-2.5,7-5.7
	c-4,0.6-7.6,2.2-10.6,5.2c1.1-1.3,2.9-3.7,2.1-4.5C475.5,16.1,486.6,58,474.9,73.2z"/>
<path fill="#2AC4FF" d="M503.6,68c3.3-3.5,5.4-4.7,7.3-5.7c5.3-2.8,12.2-3.5,19.9-6.4c-4.4,4.9-10.8,7.3-16.3,10.1
	c0.6,0.1-1.2,5.5-1.3,6.6c-5.4,5.3-8.5,5.4-12.3,6c0.5,1-0.5,6.2-2,8.6c-4,3.5-8.3,4.2-9,1.8c0,0,0.8-3,4.9-9.4S503.6,68,503.6,68z"
	/>
</svg>
