<svg xmlns="http://www.w3.org/2000/svg" viewBox="0 0 396.9 133.7" enable-background="new 0 0 396.9 133.7" width="100" height="100"><path fill="#C00418" d="M388.7 0c4.5 0 8.2 3.6 8.2 8.2v117.4c0 4.5-3.7 8.2-8.2 8.2h-380.5c-4.5 0-8.2-3.6-8.2-8.2v-117.4c0-4.6 3.7-8.2 8.2-8.2h380.5"/><path fill-rule="evenodd" clip-rule="evenodd" fill="#fff" d="M63.2 78.5v-23.2c-2.8-3.1-5.2-4.7-7.9-4.7-5.5 0-8.1 5.5-8.1 16.4s2.6 16.4 8.1 16.4c2.7-.1 5.1-1.8 7.9-4.9m0 10c-4.2 3.4-7.7 5.2-11.6 5.2-10.5 0-17.2-9.6-17.2-26.8-.1-17.2 6.6-26.9 17.2-26.9 4.7 0 8.4 2.2 11.6 5.3v-4.7h12v52.5h-12v-4.6z"/><path fill="#fff" d="M207.5 50.9h-7.1v-10.3h18.9l.3.2v52.4h-12.1zm23.8 42.3v-64.4h-7.1v-10.3h19.1v74.7zm73.6-42.3h-7.1v-10.3h18.9l.3.2v52.4h-12.1z"/><path fill-rule="evenodd" clip-rule="evenodd" fill="#fff" d="M279.5 78.5v-23.2c-2.8-3.1-5.2-4.7-7.9-4.7-5.5 0-8.1 5.5-8.1 16.4s2.6 16.4 8.1 16.4c2.7-.1 5.1-1.8 7.9-4.9m0 10c-4.2 3.4-7.7 5.2-11.6 5.2-10.5 0-17.2-9.6-17.2-26.8 0-17.2 6.7-26.9 17.2-26.9 4.7 0 8.4 2.2 11.6 5.3v-26.8h12v74.6h-12v-4.6z"/><path fill="#fff" d="M323.9 93.2h38.6v-11.3h-22l22-34.2v-6.9h-36.8v11.4h20l-21.8 34.4zm-223.8 19.7c4.5-2.9 8-9.2 10.7-17l19-55.1h-13.5l-8.3 26.3c-.2.8-1 3.2-2.2 8.8-.3-3.3-.5-5.8-1.4-8.8l-7.8-26.4-14.1.1 17.2 50.8-3.5 8.1c-2.7 5-4.1 5.4-9.7 4.2v9.9c5.2 2.2 9.6 1.7 13.6-.9m64.1 0c4.5-2.9 8-9.2 10.7-17l19-55.1h-13.5l-8.3 26.4c-.2.8-1 3.2-2.2 8.8-.3-3.3-.5-5.8-1.4-8.8l-7.8-26.4-14.1.1 17.2 50.8-3.5 8.1c-2.7 5-4.1 5.4-9.7 4.2v9.9c5.2 2.1 9.5 1.6 13.6-1"/></svg>