<svg xmlns="http://www.w3.org/2000/svg" viewBox="0 0 1024 337" enable-background="new 0 0 1024 337" width="100" height="100"><path fill="#4D3B2C" d="M955.293 10.495h55.112v15.687h-36.695v26.943h29.385v15.377h-29.385v31.518h38.975v15.832h-57.393v-105.357zm-53.896 50.244c10.502 0 15.374-3.956 15.374-17.051 0-13.552-4.569-17.657-15.226-17.657h-13.237v34.707h13.089zm-31.507-50.244h30.744c23.148 0 35.322 9.596 35.322 31.976 0 20.706-8.372 33.491-33.497 33.491h-14.151v39.89h-18.418v-105.357zm-53.896 50.244c10.502 0 15.374-3.956 15.374-17.051 0-13.552-4.568-17.657-15.224-17.657h-13.242v34.707h13.092v.001zm-31.511-50.244h30.744c23.148 0 35.322 9.596 35.322 31.976 0 20.706-8.369 33.491-33.494 33.491h-14.154v39.89h-18.418v-105.357zm-95.61 72.779v-72.779h18.422v72.932c0 12.785 2.436 18.572 14.005 18.572 8.978 0 15.069-3.959 18.878-7.311v-84.193h18.417v105.357h-13.394l-2.739-8.531c-5.333 5.636-12.786 10.509-24.058 10.509-16.745 0-29.535-8.984-29.531-34.556m-55.575-25.58c11.572 0 15.229-5.331 15.229-16.745 0-10.66-4.113-14.918-15.384-14.918h-12.785v31.663h12.94zm-31.361-47.199h31.055c23.6 0 34.868 10.052 34.868 29.693 0 16.745-6.699 24.209-19.333 27.703 6.084 2.132 10.045 7.92 13.549 18.573l9.589 29.388h-19.938l-9.292-29.838c-3.656-11.727-7.311-14.163-14.765-14.163h-7.311v44.001h-18.422v-105.357zm-39.279 98.502c-5.169 5.18-12.633 8.833-20.553 8.833-24.507 0-38.21-17.506-38.21-54.349 0-37.298 13.86-54.966 41.258-54.966 12.488 0 21.314 3.351 29.845 10.508l-9.596 13.397c-6.551-5.477-11.569-8.065-19.642-8.065-16.592 0-21.617 9.74-21.617 38.059 0 29.533 5.176 40.042 20.401 40.042 6.244 0 11.421-2.284 15.526-5.94v-22.685h-16.289v-15.377h34.405v57.398h-13.396l-2.132-6.855zm-183.296-1.368l6.852-13.853c7.771 5.636 14.765 8.376 24.361 8.376 12.177 0 17.204-5.636 17.204-14.776 0-10.653-5.939-13.698-17.052-17.658-17.506-6.085-26.949-12.937-26.949-32.122 0-19.637 12.491-29.081 31.365-29.081 12.18 0 19.64 2.589 26.946 7.311l-6.846 14.002c-6.244-4.106-11.271-5.778-18.728-5.778-8.985 0-14.316 3.96-14.316 12.481 0 8.833 3.351 11.871 14.468 15.682 16.593 5.785 30.143 11.572 30.143 33.801 0 17.813-8.529 31.816-34.711 31.816-13.252 0-25.426-4.417-32.737-10.201m-88.596-24.355v-72.779h18.421v72.932c0 12.785 2.436 18.572 14.005 18.572 8.978 0 15.071-3.959 18.878-7.311v-84.193h18.422v105.357h-13.394l-2.744-8.531c-5.331 5.636-12.786 10.509-24.054 10.509-16.749 0-29.534-8.984-29.534-34.556m-68.208-72.779h18.269v89.525h33.947v15.832h-52.216v-105.357zm-53.895 50.244c10.511 0 15.383-3.956 15.383-17.051 0-13.552-4.568-17.657-15.228-17.657h-13.244v34.707h13.089zm-31.512-50.244h30.751c23.145 0 35.328 9.596 35.328 31.976 0 20.706-8.376 33.491-33.501 33.491h-14.156v39.89h-18.422v-105.357zm-55.72 54.966h32.123v17.662h-32.123v-17.662zm-72.161-54.966h55.112v15.687h-36.69v26.943h29.385v15.377h-29.385v31.518h38.974v15.832h-57.396v-105.357z"/><path fill="#B0D2F0" d="M554.848 326.44h17.892v-105.256h-17.892v105.256zm-545.578 0h17.892v-105.256h-17.892v105.256z"/><path fill="#006C51" d="M663.967 326.44h17.887v-105.256h-17.887v105.256zm-545.577 0h17.892v-105.256h-17.892v105.256z"/><path fill="#F36717" d="M773.093 326.44h17.88v-105.256h-17.88v105.256zm-545.584 0h17.885v-105.256h-17.885v105.256z"/><path fill="#C4161D" d="M882.202 326.44h17.889v-105.256h-17.889v105.256zm-545.58 0h17.892v-105.256h-17.892v105.256z"/><path fill="#CA9031" d="M991.312 326.44h17.902v-105.256h-17.902v105.256zm-545.571 0h17.885v-105.256h-17.885v105.256z"/></svg>