<?xml version="1.0" encoding="utf-8"?>
<!-- Generator: Adobe Illustrator 18.0.0, SVG Export Plug-In . SVG Version: 6.00 Build 0)  -->
<!DOCTYPE svg PUBLIC "-//W3C//DTD SVG 1.1//EN" "http://www.w3.org/Graphics/SVG/1.1/DTD/svg11.dtd">
<svg version="1.1" id="Ebene_1" xmlns="http://www.w3.org/2000/svg" xmlns:xlink="http://www.w3.org/1999/xlink" x="0px" y="0px"
	 viewBox="0 0 100 100" enable-background="new 0 0 100 100" width="100" height="100" xml:space="preserve">
<g id="Ebene_2" display="none">
	<path display="inline" fill="#93BDE4" d="M49.9,58.6c-6.4,0-12.9,0-19.3,0c-0.2,0-0.2,0-0.2-0.2c0-5.6,0-11.2,0-16.8
		c0-0.2,0-0.2,0.2-0.2c12.9,0,25.8,0,38.7,0c0.2,0,0.2,0,0.2,0.2c0,5.6,0,11.2,0,16.8c0,0.2-0.1,0.2-0.2,0.2
		C62.8,58.6,56.4,58.6,49.9,58.6L49.9,58.6z"/>
	<path display="inline" fill="#52712A" d="M50,42.9c5.9,0,11.8,0,17.7,0c0.3,0,0.3,0.1,0.3,0.3c0,4.6,0,9.2,0,13.7
		c0,0.3-0.1,0.3-0.3,0.3c-11.9,0-23.7,0-35.5,0c-0.3,0-0.3-0.1-0.3-0.3c0-4.6,0-9.2,0-13.7c0-0.3,0.1-0.4,0.3-0.4
		C38.1,42.9,44.1,42.9,50,42.9z"/>
	<path display="inline" fill="#FFFFFF" d="M40.1,49.8c0.8,0.4,1.2,1.1,1.2,2c-0.1,1-0.6,1.7-1.5,2.1c-0.5,0.2-1,0.3-1.5,0.3
		c-1,0-2,0-3,0c-0.2,0-0.3,0-0.3-0.2c0-2.5,0-5.1,0-7.6c0-0.2,0-0.2,0.2-0.2c1.1,0,2.2,0,3.3,0c0.7,0,1.2,0.2,1.7,0.6
		c0.9,0.8,1.1,2.1,0,3C40.2,49.7,40.1,49.7,40.1,49.8z M49.2,51.1c0,1,0,1.9,0,2.8c0,0.2-0.1,0.3-0.3,0.3c-0.5,0-1.1,0-1.6,0
		c-0.2,0-0.2-0.1-0.2-0.3c0-0.8,0-1.5,0-2.3c0-0.2,0-0.2-0.2-0.2c-0.5,0-1.1,0-1.6,0c-0.2,0-0.3,0-0.3,0.3c0,0.8,0,1.5,0,2.3
		c0,0.2,0,0.3-0.3,0.3c-0.5,0-1.1,0-1.6,0c-0.2,0-0.2,0-0.2-0.2c0-1.6,0-3.3,0-4.9c0-0.3,0-0.6,0.1-0.9c0.3-1.4,1.3-2.2,2.8-2.2
		c1,0,1.9,0.2,2.5,0.9c0.5,0.5,0.7,1.2,0.8,1.9C49.3,49.5,49.2,50.4,49.2,51.1L49.2,51.1z M52.4,51.5c0.3,0,0.6,0,0.9,0
		c0.1,0,0.2,0,0.2,0.2c-0.1,0.9,0.8,1.1,1.3,0.9c0.3-0.1,0.5-0.4,0.6-0.7c0-0.4-0.1-0.7-0.4-0.8c-0.3-0.1-0.5-0.2-0.8-0.2
		c-0.4-0.1-0.8-0.2-1.2-0.3c-0.8-0.3-1.4-0.9-1.5-1.9c-0.1-0.9,0.3-1.7,1-2.3c1.1-0.8,2.8-0.8,3.9,0c0.7,0.5,1,1.2,1,2
		c0,0.1-0.1,0.2-0.2,0.2c-0.5,0-1.1,0-1.6,0c-0.2,0-0.2-0.1-0.2-0.2c0-0.8-0.6-1.2-1.3-1c-0.3,0.1-0.5,0.3-0.6,0.6
		c-0.1,0.4,0,0.6,0.3,0.8c0.3,0.2,0.7,0.3,1,0.3c0.6,0.1,1.1,0.3,1.7,0.5c0.6,0.3,0.9,0.8,1,1.5c0.1,1.4-0.6,2.4-2,2.8
		c-0.9,0.3-1.9,0.2-2.8-0.1c-1.2-0.5-1.5-1.4-1.5-2.4c0-0.1,0.1-0.1,0.2-0.1C51.8,51.5,52.1,51.5,52.4,51.5L52.4,51.5z M59.7,50
		c0-1.3,0-2.5,0-3.8c0-0.2,0-0.3,0.3-0.3c1.6,0,3.2,0,4.8,0c0.2,0,0.2,0,0.2,0.2c0,0.4,0,0.8,0,1.1c0,0.2,0,0.3-0.3,0.3
		c-0.9,0-1.8,0-2.7,0c-0.2,0-0.3,0.1-0.3,0.3c0,0.4,0,0.7,0,1.1c0,0.2,0,0.3,0.3,0.3c0.9,0,1.8,0,2.7,0c0.2,0,0.3,0,0.3,0.3
		c0,0.3,0,0.7,0,1c0,0.2,0,0.3-0.3,0.3c-0.9,0-1.7,0-2.6,0c-0.3,0-0.3,0.1-0.3,0.3c0,0.4,0,0.9,0,1.3c0,0.2,0.1,0.3,0.3,0.3h2.7
		c0.2,0,0.3,0,0.3,0.3c0,0.4,0,0.8,0,1.2c0,0.2,0,0.2-0.2,0.2c-1.6,0-3.2,0-4.8,0c-0.2,0-0.2-0.1-0.2-0.3
		C59.7,52.6,59.7,51.3,59.7,50L59.7,50z"/>
	<path display="inline" fill="#FCFDFB" d="M66.4,56.5c-0.6,0-1-0.5-1-1c0-0.5,0.5-1,1-1c0.6,0,1,0.5,1,1
		C67.4,56.1,66.9,56.5,66.4,56.5L66.4,56.5z"/>
	<path display="inline" fill="#52712A" d="M37.1,51.6c0-0.3,0-0.5,0-0.8c0-0.1,0-0.2,0.2-0.2c0.4,0,0.8,0,1.2,0
		c0.6,0.1,0.9,0.4,0.9,1c0,0.5-0.4,0.9-0.9,1c-0.4,0-0.8,0-1.2,0c-0.1,0-0.1-0.1-0.1-0.2C37.1,52.2,37.1,51.9,37.1,51.6z M37.1,48.3
		c0-0.2,0-0.4,0-0.7c0-0.1,0-0.2,0.2-0.2c0.4,0,0.7,0,1.1,0c0.4,0,0.7,0.4,0.7,0.8s-0.3,0.8-0.7,0.8c-0.4,0-0.7,0-1.1,0
		c-0.1,0-0.2,0-0.2-0.2C37.1,48.8,37.1,48.6,37.1,48.3z M46.2,49.8h-0.8c-0.1,0-0.2,0-0.2-0.1c0-0.4,0-0.9,0-1.3
		c0.1-0.5,0.4-0.8,1-0.8c0.6,0,0.9,0.3,1,0.9c0,0.4,0,0.8,0,1.3c0,0.1-0.1,0.1-0.2,0.1C46.8,49.8,46.5,49.8,46.2,49.8z"/>
	<path display="inline" fill="#53712A" d="M67.2,55.5c0,0.5-0.4,0.9-0.8,0.9c-0.5,0-0.8-0.4-0.8-0.9s0.4-0.9,0.8-0.9
		C66.8,54.7,67.2,55,67.2,55.5L67.2,55.5z"/>
	<path display="inline" fill="#FCFCFB" d="M66.5,55.6l0.3,0.5c-0.1,0-0.2,0-0.2,0c-0.1-0.1-0.1-0.2-0.2-0.3
		c-0.1-0.1-0.1-0.2-0.2-0.2c-0.2,0-0.1,0.2-0.1,0.3c0,0,0,0.1,0,0.1c0,0.1,0,0.1-0.1,0.1C66,56.1,66,56,66,56c0-0.3,0-0.6,0-1
		c0,0,0-0.1,0.1-0.1c0.1,0,0.6,0,0.7,0.1C66.9,55.2,66.9,55.5,66.5,55.6L66.5,55.6z"/>
	<path display="inline" fill="#58762D" d="M66.3,55.5c-0.2,0-0.2-0.1-0.2-0.2c0-0.2,0.1-0.2,0.2-0.2c0.1,0,0.3,0,0.3,0.2
		C66.6,55.5,66.5,55.5,66.3,55.5z"/>
</g>
<g id="Ebene_3" display="none">
	<path display="inline" fill="#4E3C2D" d="M67,43.8h2.1v0.6h-1.4v1h1.1V46h-1.1v1.2h1.5v0.6H67V43.8L67,43.8z M64.9,45.7
		c0.4,0,0.6-0.1,0.6-0.7s-0.2-0.7-0.6-0.7h-0.5v1.3L64.9,45.7L64.9,45.7z M63.7,43.8h1.2c0.9,0,1.3,0.4,1.3,1.2
		c0,0.8-0.3,1.3-1.3,1.3h-0.5v1.5h-0.7C63.7,47.8,63.7,43.8,63.7,43.8z M61.7,45.7c0.4,0,0.6-0.1,0.6-0.7s-0.2-0.7-0.6-0.7h-0.5v1.3
		L61.7,45.7L61.7,45.7z M60.5,43.8h1.2c0.9,0,1.3,0.4,1.3,1.2c0,0.8-0.3,1.3-1.3,1.3h-0.5v1.5h-0.7C60.5,47.8,60.5,43.8,60.5,43.8z
		 M56.9,46.6v-2.8h0.7v2.8c0,0.5,0.1,0.7,0.5,0.7c0.3,0,0.6-0.1,0.7-0.3v-3.2h0.7v4H59l-0.1-0.3c-0.2,0.2-0.5,0.4-0.9,0.4
		C57.4,47.9,56.9,47.6,56.9,46.6 M54.8,45.6c0.4,0,0.6-0.2,0.6-0.6c0-0.4-0.1-0.6-0.6-0.6h-0.5v1.2C54.3,45.6,54.8,45.6,54.8,45.6z
		 M53.6,43.8h1.2c0.9,0,1.3,0.4,1.3,1.1c0,0.6-0.3,0.9-0.7,1.1c0.2,0.1,0.4,0.3,0.5,0.7l0.4,1.1h-0.8l-0.4-1.1
		c-0.1-0.4-0.3-0.5-0.6-0.5h-0.3v1.7h-0.7C53.6,47.8,53.6,43.8,53.6,43.8z M52.1,47.6c-0.2,0.2-0.5,0.3-0.8,0.3
		c-0.9,0-1.5-0.7-1.5-2.1c0-1.4,0.5-2.1,1.6-2.1c0.5,0,0.8,0.1,1.1,0.4l-0.4,0.5c-0.3-0.2-0.4-0.3-0.7-0.3c-0.6,0-0.8,0.4-0.8,1.4
		c0,1.1,0.2,1.5,0.8,1.5c0.2,0,0.4-0.1,0.6-0.2v-0.9h-0.6v-0.6h1.3v2.2h-0.5C52.2,47.8,52.1,47.6,52.1,47.6z M45.2,47.5l0.3-0.5
		c0.3,0.2,0.6,0.3,0.9,0.3c0.5,0,0.7-0.2,0.7-0.6c0-0.4-0.2-0.5-0.7-0.7c-0.7-0.2-1-0.5-1-1.2s0.5-1.1,1.2-1.1c0.5,0,0.7,0.1,1,0.3
		l-0.3,0.5c-0.2-0.1-0.4-0.2-0.7-0.2c-0.3,0-0.5,0.1-0.5,0.5c0,0.3,0.1,0.4,0.5,0.6c0.6,0.2,1.1,0.4,1.1,1.3c0,0.7-0.3,1.2-1.3,1.2
		C45.9,47.9,45.5,47.7,45.2,47.5 M41.8,46.6v-2.8h0.7v2.8c0,0.5,0.1,0.7,0.5,0.7c0.3,0,0.6-0.1,0.7-0.3v-3.2h0.7v4H44l-0.1-0.3
		c-0.2,0.2-0.5,0.4-0.9,0.4C42.3,47.9,41.8,47.6,41.8,46.6 M39.2,43.8h0.7v3.4h1.3v0.6h-2C39.2,47.8,39.2,43.8,39.2,43.8z
		 M37.2,45.7c0.4,0,0.6-0.1,0.6-0.7s-0.2-0.7-0.6-0.7h-0.5v1.3L37.2,45.7L37.2,45.7z M36,43.8h1.2c0.9,0,1.3,0.4,1.3,1.2
		c0,0.8-0.3,1.3-1.3,1.3h-0.5v1.5H36C36,47.8,36,43.8,36,43.8z M33.9,45.9h1.2v0.7h-1.2V45.9z M31.2,43.8h2.1v0.6h-1.4v1H33V46h-1.1
		v1.2h1.5v0.6h-2.2C31.2,47.8,31.2,43.8,31.2,43.8z"/>
	<path display="inline" fill="#B0D2F0" d="M51.8,55.8h0.7v-4h-0.7V55.8z M31.2,55.8h0.7v-4h-0.7V55.8z"/>
	<path display="inline" fill="#036D52" d="M55.9,55.8h0.7v-4h-0.7V55.8z M35.3,55.8H36v-4h-0.7V55.8z"/>
	<path display="inline" fill="#EC681F" d="M60.1,55.8h0.7v-4h-0.7V55.8z M39.4,55.8h0.7v-4h-0.7V55.8z"/>
	<path display="inline" fill="#C4171E" d="M64.2,55.8h0.7v-4h-0.7V55.8z M43.6,55.8h0.7v-4h-0.7V55.8z"/>
	<path display="inline" fill="#CA9131" d="M68.3,55.8H69v-4h-0.7V55.8z M47.7,55.8h0.7v-4h-0.7V55.8z"/>
</g>
<g id="Ebene_4" display="none">
	<path display="inline" fill="#9C1825" d="M66.3,48.9c0.1,0.4,0.1,0.8,0,1.2c-0.1,0.6-0.4,1.1-0.7,1.6c-0.7,0.9-1,1.9-1.1,3
		c-0.1,1.7-0.9,2.7-2.5,3c-1.3,0.3-2.4,1-3.2,2.1c-0.8,1-1.8,1.4-3.1,1.2c-0.3,0-0.6-0.1-0.8-0.1c-0.8-0.2-1.7,0-2.4,0.4
		c-0.6,0.3-1.1,0.6-1.8,0.7c-0.4,0-0.8,0-1.2,0c-0.7-0.1-1.2-0.4-1.8-0.7c-0.7-0.4-1.6-0.5-2.4-0.4c-0.3,0.1-0.6,0.1-0.8,0.1
		c-1.3,0.2-2.3-0.2-3.1-1.2c-0.8-1.1-1.8-1.7-3.1-2c-1.6-0.4-2.4-1.3-2.6-3c-0.1-1.2-0.5-2.4-1.3-3.3c-0.3-0.4-0.5-0.9-0.6-1.4
		c0-0.4-0.1-0.9,0-1.3c0.1-0.6,0.4-1.1,0.7-1.6c0.7-0.9,1-1.9,1.1-3.1c0.1-1.6,0.9-2.5,2.4-3c0.4-0.1,0.8-0.2,1.2-0.3
		c0.7-0.3,1.3-0.7,1.7-1.3c0.6-0.8,1.3-1.5,2.4-1.6c0.5-0.1,1,0,1.5,0.1c1.2,0.3,2.3,0.1,3.3-0.6c0.4-0.3,0.8-0.3,1.3-0.4
		c0.5-0.1,0.8-0.1,1.2,0c0.6,0.1,1.2,0.3,1.7,0.7c0.8,0.5,1.6,0.5,2.5,0.4c0.1,0,0.1,0,0.2,0c1.7-0.5,3.1,0.1,4.2,1.5
		c0.6,0.8,1.4,1.2,2.3,1.5c0.3,0.1,0.7,0.2,1,0.3c1.2,0.5,1.8,1.4,1.9,2.6c0.1,1.3,0.4,2.4,1.2,3.4C66,47.8,66.2,48.3,66.3,48.9
		L66.3,48.9z"/>
	<path display="inline" fill="#FFFFFF" d="M49.9,58.8c-3-0.1-6-0.6-8.7-2.2c-2.1-1.3-3.7-3-4.3-5.5c-0.7-3.1,0.4-5.7,2.8-7.8
		c1.9-1.7,4.3-2.5,6.7-3c3.5-0.6,7-0.4,10.4,0.9c2,0.8,3.7,1.9,5,3.6c2.2,3,2,7-0.6,9.8c-1.8,2-4.1,3-6.7,3.6
		C53,58.7,51.5,58.8,49.9,58.8z"/>
	<path display="inline" fill="#1B3358" d="M58.2,54.3c-0.6,0-1.2,0-1.8,0c-0.3,0-0.5-0.1-0.4-0.4c0-0.3-0.1-0.6,0.4-0.5
		c0.4,0,0.5-0.2,0.4-0.6c-0.4-1.3-0.4-1.3-1.8-1.3c-0.3,0-0.5,0-0.8,0c-0.4,0-0.9-0.2-1.1,0.1c-0.3,0.4-0.5,0.9-0.6,1.4
		c-0.1,0.4,0.2,0.4,0.4,0.4c0.4,0,0.5,0.2,0.5,0.5c0,0.4-0.2,0.4-0.5,0.4c-0.7,0-1.5,0-2.2,0c-0.3,0-0.4-0.1-0.4-0.4
		c0-0.3,0-0.6,0.4-0.5c0.4,0,0.6-0.2,0.7-0.6c1.1-2.7,2.3-5.3,3.3-8c0.2-0.4,0.4-0.6,0.8-0.5c0.1,0,0.3,0,0.4,0
		c0.4-0.1,0.5,0.1,0.7,0.5c0.9,2.7,1.9,5.3,2.8,8c0.1,0.4,0.3,0.7,0.8,0.6c0.4,0,0.3,0.3,0.3,0.5c0,0.3,0,0.4-0.4,0.4
		C59.5,54.2,58.9,54.3,58.2,54.3z M47.6,45.6c0,0.4,0,0.7,0,1.1c0,0.2,0,0.4-0.3,0.4c-0.2,0-0.5,0.2-0.6-0.2c0-0.1-0.1-0.3-0.1-0.4
		c-0.2-0.8-0.7-1.3-1.5-1.3c-0.9-0.1-1.4,0.2-1.8,1c-0.3,0.5-0.5,1.2-0.5,1.8c-0.1,1.4-0.2,2.9,0.4,4.3c0.4,1.1,1.1,1.5,2.2,1.3
		c0.8-0.2,1.2-0.7,1.3-1.5c0-0.2,0-0.5,0.4-0.5c0.4,0,0.6,0.1,0.6,0.5c0,0.6,0,1.2,0,1.8c0,0.5-0.5,0.8-0.8,0.5
		c-0.3-0.3-0.5-0.1-0.8-0.1c-1.1,0.3-2.3,0.4-3.4-0.1c-1.8-0.8-2.6-2.3-2.8-4.1c-0.1-1.4,0.1-2.7,0.9-3.9c1.1-1.6,3.3-2.3,5.2-1.5
		c0.3,0.1,0.5,0.2,0.7-0.1c0.2-0.3,0.5-0.1,0.8-0.1c0.2,0,0.1,0.3,0.1,0.4C47.6,45,47.6,45.3,47.6,45.6z M50.5,49.1
		c0.1-0.2,0.2-0.3,0.3-0.5c0.1-0.2,0.1-0.6,0.3-0.7c0.4-0.1,0.8,0,1.2,0c0.1,0,0.2,0,0.1,0.1c-0.1,0.2-0.1,0.4-0.3,0.4
		c-0.7,0.1-0.7,0.8-1.1,1.2c-0.1,0.2,0.2,0.3,0.4,0.4c0.1,0.1,0.5-0.2,0.5,0.2c0,0.3-0.3,0.5-0.6,0.4c-0.3,0-0.6,0-0.8-0.1
		c-0.2-0.1-0.3-0.1-0.5,0c-0.7,0.3-1.3,0.3-2,0c-0.5-0.2-0.8-0.6-0.8-1.2c0-0.6,0.3-1.1,0.8-1.3c0.4-0.2,0.4-0.4,0.2-0.7
		c-0.3-0.5,0-1.1,0.5-1.5c0.5-0.3,1-0.3,1.5-0.2c0.4,0.1,0.7,0.4,0.8,0.8c0.1,0.5-0.1,0.8-0.5,1.1C50.3,47.9,50,48,50,48.2
		s0.2,0.4,0.4,0.6C50.4,48.9,50.5,49,50.5,49.1z"/>
	<path display="inline" fill="#FFFFFF" d="M54.9,46.8c0.1,0.3,0.2,0.5,0.2,0.6c0.3,1.1,0.6,2.1,0.9,3.2h-2.7
		C53.9,49.3,54.4,48.1,54.9,46.8z"/>
	<path display="inline" fill="#FEFEFE" d="M48.3,49.3c0-0.1,0-0.2,0.1-0.4c0.1-0.2,0.2-0.4,0.4-0.5c0.2,0,0.3,0.2,0.4,0.4
		c0.2,0.2,0.3,0.5,0.5,0.7c0.3,0.3,0.1,0.4-0.2,0.6C48.8,50.5,48.3,50.1,48.3,49.3z"/>
	<path display="inline" fill="#FDFDFD" d="M50,46.8c-0.1,0.4-0.2,0.8-0.5,0.8c-0.3,0-0.3-0.4-0.4-0.7c0-0.3,0.1-0.5,0.4-0.6
		C49.9,46.3,49.9,46.6,50,46.8z"/>
</g>
<g id="Ebene_5" display="none">
	<path display="inline" fill="#EB5D25" d="M31.7,50c0,3,2.3,5.2,5.5,5.2c0.4,0,1.9-0.1,2.8-1c0,0.3,0,0.8,0,0.8h2.2V49h-4.7v2.1h1.9
		c-0.2,0.8-1.1,1.6-2.3,1.6c-1.7,0-2.3-1.4-2.3-2.7c0-1.3,0.6-2.7,2.3-2.7c0.9,0,1.6,0.3,1.9,0.8l0,0.1h3.1l0-0.2
		c-0.5-2.3-3-3.2-4.9-3.2C34,44.8,31.7,47,31.7,50z M64.5,45.3c0,0-1.6,3.2-1.8,3.6c-0.2-0.5-1.8-3.6-1.8-3.6h-9.4v8.4
		c-0.7-1.3-1.7-3-1.9-3.2c0.9-0.4,1.4-1.3,1.4-2.4c0-0.9-0.4-1.7-1.1-2.1c-0.6-0.4-1.4-0.6-2.4-0.6h-5V55h2.7v-3.8h1.5
		c0.1,0.1,1.9,3.8,1.9,3.8H60v-2.3h-5.6v-1.5h4v-2.1h-4v-1.7h4.7c1,1.7,2.2,3.8,2.2,3.9v3.6H64v-3.6c0-0.1,3.5-6.1,3.5-6.1
		L64.5,45.3L64.5,45.3z M47.1,49h-1.8v-1.6H47c0.3,0,0.9,0.1,0.9,0.8C48,48.8,47.7,49,47.1,49z"/>
</g>
<g id="Ebene_6" display="none">
	<path display="inline" fill="#E30D18" d="M30.6,46.9h1c0.2,0.1,0.4,0.3,0.4,0.6c0-0.3,0.2-0.4,0.4-0.6h2.7c0.1,0,0.2,0.1,0.2,0.2
		v1.8h-1.1v-1h-1.4v1h0.3v-0.3h0.8v1.6h-0.7v-0.3h-0.4v0.9h0.8v1h-1.2c-0.2-0.1-0.3-0.2-0.4-0.5c0,0.2-0.2,0.4-0.4,0.5h-1.1v-1h0.6
		v-1.1c0-0.2-0.2-0.3-0.3-0.3c0.2-0.1,0.3-0.2,0.3-0.4v-1h-0.6L30.6,46.9L30.6,46.9z M35.8,46.9h1c0.2,0.1,0.4,0.3,0.4,0.6
		c0-0.3,0.2-0.4,0.4-0.6h2.7c0.1,0,0.2,0.1,0.2,0.2v1.8h-1v-1H38v1h0.3v-0.3h0.7v1.6h-0.7v-0.3H38v0.9h1.5v-0.9h1v1.9h-2.9
		c-0.2-0.1-0.3-0.2-0.4-0.5c0,0.2-0.2,0.4-0.4,0.5h-1.1v-1h0.6v-1.1c0-0.2-0.2-0.3-0.3-0.3c0.2-0.1,0.3-0.2,0.3-0.4v-1h-0.6
		L35.8,46.9L35.8,46.9z M53,46.9h1c0.2,0.1,0.4,0.3,0.4,0.6c0-0.3,0.2-0.4,0.4-0.6h2.7c0.1,0,0.2,0.1,0.2,0.2v1.8h-1.1v-1h-1.4v1
		h0.3v-0.3h0.8v1.6h-0.7v-0.3h-0.4v0.9h1.5v-0.9h1v1.9h-2.9c-0.2-0.1-0.3-0.2-0.4-0.5c0,0.2-0.2,0.4-0.4,0.5h-1v-1h0.6v-1.1
		c0-0.2-0.2-0.3-0.3-0.3c0.2-0.1,0.3-0.2,0.3-0.4v-1h-0.6L53,46.9L53,46.9z M41.1,46.9h1c0.2,0.1,0.4,0.3,0.4,0.6
		c0-0.3,0.2-0.4,0.4-0.6h2.2c1.3,0.2,1.6,2.1,0.2,2.3c0.3,0.1,0.6,0.3,0.6,0.6v0.6c0,0.2,0.3,0.2,0.5,0.2l0,1H45
		c-0.4,0-0.6-0.2-0.6-0.7V50c0-0.1-0.1-0.2-0.3-0.2h-0.9v0.9H44v1h-1.1c-0.2-0.1-0.3-0.2-0.4-0.5c0,0.2-0.2,0.4-0.4,0.5h-1v-1h0.7
		v-1.1c0-0.2-0.2-0.3-0.3-0.3c0.2-0.1,0.3-0.2,0.3-0.4v-1h-0.6L41.1,46.9z M44.7,48.4c0-0.3-0.1-0.5-0.3-0.6h-1v1h1
		C44.5,48.8,44.6,48.6,44.7,48.4z M47.1,46.9h1c0.2,0.1,0.4,0.3,0.4,0.6c0-0.3,0.2-0.4,0.4-0.6h2.2c1.3,0.2,1.6,2.1,0.2,2.3
		c0.3,0.1,0.6,0.3,0.6,0.6v0.6c0,0.2,0.3,0.2,0.5,0.2l0,1H51c-0.4,0-0.6-0.2-0.6-0.7V50c0-0.1-0.1-0.2-0.3-0.2h-0.9v0.9h0.8v1h-1.1
		c-0.2-0.1-0.3-0.2-0.4-0.5c0,0.2-0.2,0.4-0.4,0.5h-1v-1h0.6v-1.1c0-0.2-0.2-0.3-0.3-0.3c0.2-0.1,0.3-0.2,0.3-0.4v-1h-0.6L47.1,46.9
		L47.1,46.9z M50.6,48.4c0-0.3-0.1-0.5-0.3-0.6h-1v1h1C50.4,48.8,50.6,48.6,50.6,48.4z M58.4,46.9h1c0.2,0.1,0.4,0.3,0.4,0.6
		c0-0.3,0.2-0.4,0.4-0.6h2.2c1.3,0.2,1.6,2.1,0.2,2.3c0.3,0.1,0.6,0.3,0.6,0.6v0.6c0,0.2,0.3,0.2,0.5,0.2l0,1h-1.4
		c-0.4,0-0.6-0.2-0.6-0.7v-1c0-0.1-0.1-0.2-0.3-0.2h-0.9v0.9h0.8v1h-1.1c-0.2-0.1-0.3-0.2-0.4-0.5c0,0.2-0.2,0.4-0.4,0.5h-1v-1H59
		v-1.1c0-0.2-0.2-0.3-0.3-0.3c0.2-0.1,0.3-0.2,0.3-0.4v-1h-0.6L58.4,46.9L58.4,46.9z M61.9,48.4c0-0.3-0.1-0.5-0.3-0.6h-1v1h1
		C61.7,48.8,61.8,48.6,61.9,48.4z M69.5,48.9c-0.2-1.6-1.3-2.1-2.7-2.1c-1.4,0-2.5,0.5-2.7,2.1c0,0.2-0.2,0.3-0.3,0.4
		c0.2,0,0.3,0.2,0.3,0.3c0.1,0.9,0.6,2.1,2.7,2.2c2.1,0,2.6-1.3,2.7-2.2c0-0.2,0.2-0.2,0.3-0.3C69.7,49.2,69.6,49.1,69.5,48.9z
		 M66.9,50.6c-0.5,0-0.9-0.3-0.9-0.8c0-0.3,0-0.5,0.4-0.6C66,49,66,48.8,66,48.5c0-0.4,0.4-0.8,0.9-0.8c0.6,0,0.9,0.5,0.9,0.9
		c0,0.4-0.2,0.6-0.3,0.6c0.2,0.1,0.4,0.3,0.4,0.5C67.8,50.4,67.1,50.6,66.9,50.6L66.9,50.6z"/>
</g>
<g>
	<path fill="#006C4F" d="M21.4,52.7c-1.3,0-2.4,1.1-2.4,2.4s1.1,2.4,2.4,2.4c1.3,0,2.4-1.1,2.4-2.4S22.7,52.7,21.4,52.7 M9.4,45
		C5,45,1.1,48.5,1.1,55.1c0,3.1,0.9,5.7,2.5,7.6l0,0c1.5,1.7,3.5,2.7,6,2.7c2.9,0,5.2-1.4,6.2-2.1l-0.3-0.6l-1.1-2.3
		c-0.7,0.4-2.3,1.5-3.7,1.5c-2.4,0-4-2-4-6.7h9.8v-1.1C16.5,49.8,14.7,45,9.4,45z M6.8,52.3C6.9,50.3,7.5,48,9.4,48
		c2.3,0,2.3,3.6,2.3,4.4H6.8z M45.4,65h5.3V36.2l-5.3,1.3V65z M80.2,52.8l-0.7-0.5c-1.8-1.3-2.1-1.9-2.1-2.5c0-0.8,0.6-1.6,1.9-1.6
		c1.3,0,2.3,0.5,2.9,0.8l1.1-3.1c-1.4-0.6-2.8-1-4.3-1c-3.9,0-6.4,2.7-6.4,5.8c0,2.7,1.5,4.4,3.9,6.2l0.7,0.5
		c1.5,1.1,2.3,1.7,2.3,2.9c0,1.2-1,1.8-2,1.8c-1.5,0-2.9-0.8-3.7-1.2l-0.7,1.8l-0.5,1.2c1.6,1,3.3,1.5,5.2,1.5
		c2.6,0,4.5-1.1,5.5-2.7c0.7-1,1-2.3,1-3.6C84.3,56.2,82.6,54.6,80.2,52.8z M64.3,56.4c0,2.5-0.8,4.9-2.6,4.9c-2.1,0-2-2.9-2-4.3
		V45.3l-5.3,1.3v12.3c0,1.4,0.2,2.7,0.7,3.7l0,0c0.8,1.7,2.3,2.7,4.4,2.7c1.4,0,3.3-0.5,4.7-2.7l0,0c0.2-0.2,0.3-0.5,0.4-0.8
		l0.1,0.8l0.2,2.3h4.6V45.3l-5.3,1.3L64.3,56.4L64.3,56.4z"/>
	<path fill="#006C4F" d="M90.6,27.8c1.3,0,2.3,1,2.3,2.3v3.8h3.8c1.3,0,2.3,1,2.3,2.3s-1,2.3-2.3,2.3h-3.8v3.8c0,1.3-1,2.3-2.3,2.3
		c-1.3,0-2.3-1-2.3-2.3v-3.8h-3.8c-1.3,0-2.3-1-2.3-2.3c0-1.3,1-2.3,2.3-2.3h3.8v-3.8C88.3,28.8,89.3,27.8,90.6,27.8"/>
	<path fill="#006C4F" d="M34.4,61.3c1.9,0,2.4-2.7,2.4-6.3c0-4-0.6-6-2.3-6c-2.2,0-2.6,3.6-2.6,6.2C31.9,57.3,32.1,61.3,34.4,61.3
		 M36.2,65.4c-1.9,0-3.3-1.1-4.2-2.7l-0.2-0.3v9.8h-5.3V46.5l4.6-1.1l0.3,3.1c1-2.3,2.9-3.5,4.9-3.5c3.3,0,6,2.9,6,9.8
		c0,3.2-0.6,6-1.8,7.9C39.6,64.4,38.1,65.4,36.2,65.4z"/>
</g>
</svg>
