<svg xmlns="http://www.w3.org/2000/svg" viewBox="0 0 348 108.667" enable-background="new 0 0 348 108.667" width="100" height="100"><path fill="#EB5C25" d="M4 54.123c0 28.251 21.868 48.783 51.988 48.783 4.179 0 17.596-.773 26.828-9.635-.018 2.935.003 7.834.003 7.834h20.45v-56.21h-44.441v20.096h18.079c-2.153 7.352-10.34 14.739-21.503 14.739-16.329 0-22.145-13.235-22.145-25.608 0-12.376 5.815-25.603 22.145-25.603 8.188 0 14.879 2.913 17.46 7.599l.415.81h29.662l-.393-1.766c-5.018-22.01-28.224-29.829-46.56-29.829-30.12 0-51.988 20.524-51.988 48.79zm309.462-44.647s-14.652 29.907-16.802 34.308c-2.154-4.401-16.809-34.308-16.809-34.308h-88.799v79.341c-6.94-11.94-16.565-28.503-17.49-30.098 8.225-3.907 13.271-12.523 13.271-22.882 0-8.682-3.554-15.715-10.278-20.352-5.635-3.888-13.519-6.008-22.208-6.008h-47.233v91.628h25.555v-35.574h14.534c.735 1.472 17.779 35.574 17.779 35.574h106.404v-21.1h-52.821v-13.863h38.071v-19.647h-38.071v-15.917h43.998c9.437 16.254 20.913 36.025 21.132 36.398v34.129h25.929v-34.129c.373-.633 33.382-57.5 33.382-57.5h-29.544zm-164.002 35.553h-16.791v-15.031h15.901c2.711 0 9.008.696 9.008 7.128 0 5.243-2.733 7.903-8.118 7.903z"/></svg>