<svg xmlns="http://www.w3.org/2000/svg" viewBox="0 0 2013.892 477.198" enable-background="new 0 0 2013.892 477.198" width="100" height="100"><path fill-rule="evenodd" clip-rule="evenodd" fill="#0C54A0" d="M519.44 129.694l46.551-128.612-78.826-.117-47.008 128.583-42.407-.069 46.503-128.208-79.017-.053-49.162 129-316.074.157 189.211 63.129 102.289-.02c-.731 12.777-73.047 203.728-102.018 283.576h80.176l103.945-282.903 42.761.013-102.789 282.89 78.563.139 103.493-282.929 40.608-.082-68.781 189.89 79.158.332 93.408-254.733-120.584.017zm1413.706-129.651l-139.513 384.122 80.344.057 139.915-384.222-80.746.043zm-872.722 130.193l-158.165-.104-93.61 254.077 80.676-.037 69.22-190.222 78.379.08 23.5-63.794zm15.619-.117l-92.619 253.921 195.743-.017 91.927-253.851-195.051-.053zm54.522 190.95l-43.908-.043 45.586-127.532 44.351-.051-46.029 127.626zm-231.636-268.04l-81.527.117-27.36 76.684-119.904-.006-92.614 254.306 200.586.037 60.057-165.336 60.762-165.802zm-178.348 268.24l-40.741-.077 46.652-126.988 40.122.011-46.033 127.054zm-91.123-205.781c49.518-15.196 27.065-86.451-21.15-72.461-17.895 5.193-31.754 24.807-25.417 47.024 5.276 18.501 25.074 32.032 46.567 25.437zm971.694 14.546l27.759-74.759-81.906-.104-27.522 74.294-202.164.064c-13.833-.064-29.766 7.461-33.099 19.811l-21.794 60.493c7.61-15.361 36.108-16.632 68.814-15.755l165.139-.326-69.37 190.367 81.71.019 70.032-190.625 158.821-.029-10.4 29.353-119.012-.002-58.42 161.352 200.969-.136 92.84-254.016h-242.397zm91.165 191.253l-36.689-.128 13.064-35.308 35.927.035-12.302 35.401zm-256.313-20.186c-5.131 6.757-17.859 17.518-77.711 18.843h-130.14l-23.615 64.625 178.358.128c9.451 0 25.269-9.188 29.258-19.906l14.208-37.76c8.387-23.989 10.123-25.325 9.642-25.93zm-78.64 8.54c25.754.535 88.86-6.07 70.322-31.795-16.432-30.887-41.813-46.056-78.976-73.841-28.629.806-72.958-2.313-84.065 17.755-5.126 9.262 4.487 14.051 5.984 14.99 23.978 14.604 81.392 55.259 86.735 72.891z"/></svg>