<?xml version="1.0" encoding="utf-8"?>
<!-- Generator: Adobe Illustrator 18.0.0, SVG Export Plug-In . SVG Version: 6.00 Build 0)  -->
<!DOCTYPE svg PUBLIC "-//W3C//DTD SVG 1.1//EN" "http://www.w3.org/Graphics/SVG/1.1/DTD/svg11.dtd">
<svg version="1.1" id="Ebene_1" xmlns="http://www.w3.org/2000/svg" xmlns:xlink="http://www.w3.org/1999/xlink" viewBox="0 0 100 100" style="enable-background:new 0 0 100 100;" width="100" height="100" xml:space="preserve">
<g id="Ebene_2" style="display:none;">
	<path style="display:inline;fill:#93BDE4;" d="M133.8,107.4c-17.2,0-34.5,0-51.7,0c-0.5,0-0.6-0.1-0.6-0.6c0-15,0-30,0-45.1
		c0-0.5,0-0.6,0.6-0.6c34.5,0,69,0,103.6,0c0.5,0,0.6,0.1,0.6,0.6c0,15.1,0,30.1,0,45.1c0,0.6-0.2,0.6-0.6,0.6
		C168.3,107.4,151,107.4,133.8,107.4L133.8,107.4z"/>
	<path style="display:inline;fill:#52712A;" d="M133.9,65.2c15.8,0,31.7,0,47.5,0c0.7,0,0.9,0.2,0.9,0.9c0,12.2,0,24.5,0,36.8
		c0,0.7-0.2,0.9-0.9,0.9c-31.8,0-63.5,0-95.2,0c-0.7,0-0.9-0.2-0.9-0.9c0-12.2,0-24.5,0-36.8c0-0.7,0.2-1,0.9-1
		C102.2,65.2,118,65.2,133.9,65.2z"/>
	<path style="display:inline;fill:#FFFFFF;" d="M107.3,83.7c2.3,1.1,3.3,2.8,3.2,5.2c-0.2,2.7-1.6,4.6-4.1,5.6
		c-1.3,0.6-2.7,0.7-4.1,0.7c-2.7,0-5.3,0-8,0c-0.5,0-0.7-0.1-0.7-0.6c0-6.8,0-13.6,0-20.5c0-0.5,0.1-0.6,0.6-0.6
		c2.9,0,5.9,0,8.9,0.1c1.7,0,3.3,0.5,4.6,1.7c2.4,2.1,2.9,5.5-0.1,8.1C107.6,83.5,107.5,83.6,107.3,83.7z M131.9,87.3
		c0,2.8,0,5.1,0,7.4c0,0.5-0.2,0.7-0.7,0.7c-1.4-0.1-2.8-0.1-4.2,0c-0.6,0-0.6-0.2-0.6-0.7c0-2,0-4.1,0-6.1c0-0.5-0.1-0.6-0.6-0.6
		c-1.4,0.1-2.8,0.1-4.2,0c-0.6,0-0.7,0.1-0.7,0.7c0.1,2,0,4.1,0,6c0,0.6-0.1,0.7-0.7,0.7c-1.5-0.1-2.9-0.1-4.3,0
		c-0.5,0-0.6-0.1-0.6-0.6c0-4.3,0-8.7,0-13.1c0-0.8,0.1-1.7,0.3-2.5c0.9-3.7,3.6-5.8,7.4-5.9c2.6-0.1,5,0.5,6.8,2.4
		c1.3,1.4,1.9,3.2,2,5C132,83,131.9,85.3,131.9,87.3L131.9,87.3z M140.4,88.3c0.8,0,1.5,0,2.3,0c0.4,0,0.6,0.1,0.6,0.5
		c-0.2,2.5,2,3,3.6,2.5c0.9-0.2,1.5-1,1.6-1.9c0.1-1-0.3-1.7-1.2-2.2c-0.7-0.3-1.4-0.5-2.1-0.6c-1.1-0.2-2.1-0.5-3.2-0.9
		c-2.3-0.9-3.7-2.5-3.9-5s0.7-4.6,2.8-6c2.9-2,7.6-2,10.4,0c1.9,1.3,2.7,3.2,2.7,5.5c0,0.4-0.2,0.6-0.6,0.6c-1.4,0-2.8,0-4.2,0
		c-0.5,0-0.5-0.2-0.5-0.6c-0.1-2.1-1.6-3.2-3.6-2.7c-0.9,0.2-1.5,0.8-1.6,1.7c-0.2,1,0.1,1.7,0.9,2.3c0.8,0.6,1.8,0.7,2.8,0.9
		c1.5,0.3,3,0.7,4.5,1.5c1.7,0.9,2.5,2.3,2.7,4.1c0.2,3.8-1.6,6.4-5.2,7.4c-2.5,0.7-5,0.6-7.4-0.3c-3.3-1.2-4-3.7-3.9-6.4
		c0-0.4,0.2-0.4,0.5-0.4C138.9,88.3,139.6,88.3,140.4,88.3L140.4,88.3z M159.8,84.4c0-3.4,0-6.8,0-10.1c0-0.6,0.1-0.7,0.7-0.7
		c4.3,0,8.6,0,12.9,0c0.5,0,0.6,0.1,0.6,0.6c-0.1,1-0.1,2,0,3c0,0.6-0.1,0.7-0.7,0.7c-2.4-0.1-4.9,0-7.3-0.1c-0.6,0-0.7,0.2-0.7,0.7
		c0.1,1,0.1,1.9,0,2.8c0,0.5,0.1,0.7,0.7,0.7c2.4,0,4.7,0,7.1,0c0.5,0,0.7,0.1,0.7,0.7c-0.1,0.9-0.1,1.7,0,2.7
		c0,0.5-0.1,0.7-0.7,0.7c-2.3,0-4.7,0-7-0.1c-0.7,0-0.8,0.2-0.8,0.8c0.1,1.1,0.1,2.3,0,3.5c0,0.6,0.2,0.7,0.7,0.7h7.2
		c0.5,0,0.7,0.1,0.7,0.7c-0.1,1-0.1,2.1,0,3.1c0,0.5-0.1,0.6-0.6,0.6c-4.3,0-8.7,0-13,0c-0.6,0-0.6-0.3-0.6-0.7
		C159.8,91.2,159.8,87.8,159.8,84.4L159.8,84.4z"/>
	<path style="display:inline;fill:#52712A;" d="M99.3,88.6c0-0.7,0-1.5,0-2.2c0-0.3,0.1-0.5,0.5-0.5c1.1,0.1,2.1,0,3.2,0.1
		c1.6,0.2,2.4,1.2,2.4,2.7s-1,2.5-2.5,2.6c-1.1,0.1-2.1,0-3.2,0.1c-0.3,0-0.4-0.2-0.4-0.5C99.3,90.1,99.3,89.3,99.3,88.6z
		 M99.3,79.9c0-0.6,0-1.2,0-1.7c0-0.3,0.1-0.5,0.5-0.5c1,0.1,1.9,0,2.9,0c1.1,0.1,1.9,1,1.9,2.3s-0.8,2.3-2,2.3c-1,0.1-1.9,0-2.9,0
		c-0.3,0-0.5-0.1-0.5-0.5C99.3,81.1,99.3,80.5,99.3,79.9z M123.7,83.7h-2.3c-0.2,0-0.5,0-0.5-0.3c0.1-1.2-0.1-2.4,0.1-3.6
		c0.3-1.5,1.2-2.3,2.7-2.2c1.5,0,2.5,0.9,2.7,2.4c0.1,1.1,0.1,2.3,0.1,3.4c0,0.3-0.2,0.4-0.5,0.4C125.3,83.7,124.5,83.7,123.7,83.7z
		"/>
</g>
<g id="Ebene_3" style="display:none;">
	<path style="display:inline;fill:#4E3C2D;" d="M179.4,67.8h5.6v1.6h-3.7v2.7h3v1.6h-3v3.2h3.9v1.6h-5.8V67.8L179.4,67.8z
		 M173.9,72.9c1.1,0,1.6-0.4,1.6-1.7c0-1.4-0.5-1.8-1.5-1.8h-1.4v3.5H173.9L173.9,72.9z M170.7,67.8h3.1c2.4,0,3.6,1,3.6,3.2
		c0,2.1-0.8,3.4-3.4,3.4h-1.4v4.1h-1.9C170.7,78.5,170.7,67.8,170.7,67.8z M165.3,72.9c1.1,0,1.6-0.4,1.6-1.7c0-1.4-0.5-1.8-1.5-1.8
		H164v3.5H165.3L165.3,72.9z M162.1,67.8h3.1c2.4,0,3.6,1,3.6,3.2c0,2.1-0.8,3.4-3.4,3.4H164v4.1h-1.9V67.8z M152.4,75.2v-7.4h1.9
		v7.4c0,1.3,0.2,1.9,1.4,1.9c0.9,0,1.5-0.4,1.9-0.7v-8.5h1.9v10.7h-1.4l-0.3-0.8c-0.6,0.6-1.3,1.1-2.4,1.1
		C153.7,78.7,152.4,77.8,152.4,75.2 M146.8,72.6c1.2,0,1.5-0.6,1.5-1.7s-0.4-1.5-1.6-1.5h-1.3v3.2C145.5,72.6,146.8,72.6,146.8,72.6
		z M143.6,67.8h3.2c2.4,0,3.6,1,3.6,3c0,1.7-0.7,2.5-2,2.8c0.6,0.2,1,0.8,1.4,1.9l1,3h-2l-1-3c-0.4-1.2-0.7-1.4-1.5-1.4h-0.7v4.5
		h-1.9C143.6,78.5,143.6,67.8,143.6,67.8z M139.6,77.8c-0.5,0.5-1.3,0.9-2.1,0.9c-2.5,0-3.9-1.7-3.9-5.5s1.4-5.6,4.2-5.6
		c1.2,0,2.1,0.3,3,1.1l-1,1.4c-0.7-0.6-1.2-0.8-2-0.8c-1.7,0-2.2,1-2.2,3.8c0,3,0.5,4.1,2.1,4.1c0.6,0,1.2-0.2,1.6-0.6v-2.3h-1.6
		v-1.6h3.5v5.8h-1.4C139.8,78.5,139.6,77.8,139.6,77.8z M121,77.7l0.7-1.4c0.8,0.6,1.5,0.8,2.5,0.8c1.2,0,1.7-0.6,1.7-1.5
		c0-1.1-0.6-1.4-1.7-1.8c-1.7-0.6-2.7-1.3-2.7-3.3s1.2-2.9,3.2-2.9c1.2,0,2,0.3,2.7,0.7l-0.7,1.4c-0.6-0.4-1.1-0.6-1.9-0.6
		c-0.9,0-1.5,0.4-1.5,1.2c0,0.9,0.3,1.2,1.5,1.6c1.7,0.6,3,1.2,3,3.4c0,1.8-0.8,3.2-3.5,3.2C123,78.7,121.8,78.2,121,77.7
		 M112.1,75.2v-7.4h1.9v7.4c0,1.3,0.2,1.9,1.4,1.9c0.9,0,1.5-0.4,1.9-0.7v-8.5h1.9v10.7h-1.4l-0.3-0.8c-0.6,0.6-1.3,1.1-2.4,1.1
		C113.4,78.7,112.1,77.8,112.1,75.2 M105.1,67.8h1.9v9.1h3.4v1.6h-5.3V67.8z M99.7,72.9c1.1,0,1.6-0.4,1.6-1.7
		c0-1.4-0.5-1.8-1.5-1.8h-1.4v3.5H99.7L99.7,72.9z M96.5,67.8h3.1c2.4,0,3.6,1,3.6,3.2c0,2.1-0.8,3.4-3.4,3.4h-1.4v4.1h-1.9
		C96.5,78.5,96.5,67.8,96.5,67.8z M90.8,73.4h3.3v1.8h-3.3V73.4z M83.5,67.8h5.6v1.6h-3.7v2.7h3v1.6h-3v3.2h3.9v1.6h-5.8
		C83.5,78.5,83.5,67.8,83.5,67.8z"/>
	<path style="display:inline;fill:#B0D2F0;" d="M138.8,99.8h1.8V89.2h-1.8V99.8z M83.5,99.8h1.8V89.2h-1.8V99.8z"/>
	<path style="display:inline;fill:#036D52;" d="M149.9,99.8h1.8V89.2h-1.8V99.8z M94.6,99.8h1.8V89.2h-1.8V99.8z"/>
</g>
<g id="Ebene_4" style="display:none;">
	<path style="display:inline;fill:#9C1825;" d="M177.5,81.3c0.2,1.2,0.2,2.3,0,3.3c-0.2,1.6-1,3-2,4.4c-1.9,2.4-2.7,5.1-2.9,8.1
		c-0.3,4.5-2.4,7.1-6.8,8.1c-3.6,0.8-6.4,2.6-8.6,5.5c-2,2.7-4.9,3.7-8.2,3.1c-0.7-0.1-1.5-0.2-2.3-0.4c-2.3-0.5-4.5-0.1-6.4,1
		c-1.5,0.8-3,1.6-4.7,1.8c-1.1,0.1-2.2,0.1-3.3,0c-1.7-0.2-3.3-1-4.7-1.8c-2-1.1-4.2-1.5-6.4-1c-0.7,0.2-1.5,0.3-2.3,0.4
		c-3.4,0.6-6.3-0.5-8.3-3.2c-2.1-2.9-4.9-4.6-8.3-5.4c-4.4-1-6.5-3.6-6.9-8c-0.3-3.3-1.2-6.3-3.4-8.9c-0.9-1.1-1.2-2.4-1.5-3.7
		c-0.1-1.2-0.2-2.3,0-3.6c0.2-1.6,1-3,2-4.2c1.9-2.4,2.7-5.2,3-8.2c0.3-4.3,2.4-6.8,6.5-8.1c1-0.3,2.1-0.5,3.2-0.9
		c1.9-0.7,3.4-1.9,4.6-3.5c1.6-2.2,3.6-3.9,6.5-4.4c1.4-0.2,2.7,0,4.1,0.3c3.2,0.7,6.1,0.3,8.9-1.5c1-0.7,2.3-0.8,3.4-1.2
		c1.3-0.2,2.1-0.2,3.3,0c1.6,0.3,3.1,0.9,4.5,1.7c2.1,1.2,4.3,1.5,6.7,1.1c0.2-0.1,0.3-0.1,0.5-0.1c4.7-1.3,8.3,0.2,11.2,4.1
		c1.5,2.1,3.7,3.3,6.2,3.9c0.9,0.2,1.9,0.5,2.7,0.8c3.2,1.3,4.9,3.7,5.1,7.1c0.3,3.4,1.1,6.5,3.3,9.2
		C176.9,78.4,177.4,79.8,177.5,81.3L177.5,81.3z"/>
	<path style="display:inline;fill:#FFFFFF;" d="M133.7,108c-8.1-0.2-16.1-1.5-23.4-5.9c-5.7-3.4-10-8.1-11.4-14.7
		c-1.9-8.4,1-15.3,7.4-20.9c5.2-4.5,11.4-6.8,18-8c9.5-1.6,18.8-1.1,27.8,2.3c5.4,2,10,5.1,13.5,9.8c6,8.1,5.3,18.8-1.6,26.3
		c-4.9,5.3-11.1,8.1-18,9.7C142,107.6,137.9,107.9,133.7,108z"/>
</g>
<g id="Ebene_5" style="display:none;">
	<path style="display:inline;fill:#EB5D25;" d="M85,84.3c0,8,6.2,13.8,14.7,13.8c1.2,0,5-0.2,7.6-2.7c0,0.8,0,2.2,0,2.2h5.8V81.7
		h-12.6v5.7h5.1c-0.6,2.1-2.9,4.2-6.1,4.2c-4.6,0-6.3-3.7-6.3-7.3c0-3.5,1.6-7.3,6.3-7.3c2.3,0,4.2,0.8,5,2.1l0.1,0.2h8.4l-0.1-0.5
		c-1.4-6.3-8-8.5-13.2-8.5C91.2,70.5,85,76.3,85,84.3z M172.7,71.7c0,0-4.2,8.5-4.7,9.7c-0.6-1.2-4.7-9.7-4.7-9.7h-25.2v22.5
		c-2-3.4-4.7-8.1-5-8.5c2.3-1.1,3.8-3.6,3.8-6.5c0-2.5-1-4.5-2.9-5.8c-1.6-1.1-3.8-1.7-6.3-1.7h-13.4v25.9h7.2v-10h4.1
		c0.2,0.4,5,10.1,5,10.1h30.1v-6h-14.9v-3.9h10.8v-5.6h-10.8v-4.5h12.5c2.7,4.6,5.9,10.2,6,10.3v9.6h7.3V88
		c0.1-0.2,9.5-16.3,9.5-16.3H172.7L172.7,71.7z M126.2,81.7h-4.7v-4.3h4.5c0.8,0,2.5,0.2,2.5,2C128.5,81,127.7,81.7,126.2,81.7z"/>
</g>
<g id="Ebene_6" style="display:none;">
	<path style="display:inline;fill:#E30D18;" d="M82,76.1h2.6c0.5,0.2,1,0.7,1.2,1.5c0.1-0.7,0.5-1.2,1.1-1.5H94
		c0.2,0,0.5,0.3,0.5,0.5v4.7h-2.8v-2.7H88v2.6h0.8v-0.8h2v4.2h-1.9v-0.8h-1v2.4h2.3v2.7H87c-0.5-0.2-0.8-0.6-1-1.3
		c-0.1,0.6-0.5,1.2-1,1.3h-3v-2.7h1.6v-2.9c-0.1-0.5-0.5-0.7-0.8-0.8c0.5-0.2,0.7-0.5,0.8-1v-2.7H82V76.1L82,76.1z M95.8,76.1h2.6
		c0.5,0.2,1,0.7,1.2,1.5c0.1-0.7,0.5-1.2,1.1-1.5h7.2c0.2,0,0.5,0.3,0.5,0.5v4.7h-2.8v-2.7h-3.7v2.6h0.8v-0.8h2v4.2h-1.9v-0.8h-1
		v2.4h4.1v-2.5h2.7v5.1h-7.7c-0.5-0.2-0.8-0.6-1-1.3c-0.1,0.6-0.5,1.2-1,1.3h-3v-2.7h1.6v-2.9c-0.1-0.5-0.5-0.7-0.8-0.8
		c0.5-0.2,0.7-0.5,0.8-1v-2.7h-1.6L95.8,76.1L95.8,76.1z M142,76.1h2.6c0.5,0.2,1,0.7,1.2,1.5c0.1-0.7,0.5-1.2,1.1-1.5h7.2
		c0.2,0,0.5,0.3,0.5,0.5v4.7h-2.9v-2.7H148v2.6h0.8v-0.8h2v4.2h-1.9v-0.8h-1v2.4h4.1v-2.5h2.7v5.1H147c-0.5-0.2-0.8-0.6-1-1.3
		c-0.1,0.6-0.5,1.2-1,1.3h-2.8v-2.7h1.6v-2.9c-0.1-0.5-0.5-0.7-0.8-0.8c0.5-0.2,0.7-0.5,0.8-1v-2.7h-1.6L142,76.1L142,76.1z
		 M110.2,76.1h2.6c0.5,0.2,1,0.7,1.2,1.5c0.1-0.7,0.5-1.2,1.1-1.5h5.9c3.6,0.5,4.2,5.7,0.5,6.2c0.8,0.3,1.6,0.7,1.7,1.6v1.7
		c0,0.5,0.7,0.5,1.3,0.5l0.1,2.7h-3.8c-1-0.1-1.6-0.6-1.7-1.8v-2.5c0-0.2-0.3-0.6-0.8-0.6h-2.4v2.4h2v2.6h-3c-0.5-0.2-0.8-0.6-1-1.3
		c-0.1,0.6-0.5,1.2-1,1.3h-2.8V86h1.8v-2.9c-0.1-0.5-0.5-0.7-0.8-0.8c0.5-0.2,0.7-0.5,0.8-1v-2.7h-1.6L110.2,76.1z M119.6,79.9
		c0-0.7-0.2-1.4-0.8-1.5h-2.7V81h2.6C119.2,81,119.5,80.6,119.6,79.9z M126.1,76.1h2.6c0.5,0.2,1,0.7,1.2,1.5
		c0.1-0.7,0.5-1.2,1.1-1.5h5.9c3.6,0.5,4.2,5.7,0.5,6.2c0.8,0.3,1.6,0.7,1.7,1.6v1.7c0,0.5,0.7,0.5,1.3,0.5l0.1,2.7h-3.8
		c-1-0.1-1.6-0.6-1.7-1.8v-2.5c0-0.2-0.3-0.6-0.8-0.6h-2.4v2.4h2v2.6h-3c-0.5-0.2-0.8-0.6-1-1.3c-0.1,0.6-0.5,1.2-1,1.3H126V86h1.6
		v-2.9c-0.1-0.5-0.5-0.7-0.8-0.8c0.5-0.2,0.7-0.5,0.8-1v-2.7H126L126.1,76.1L126.1,76.1z M135.6,79.9c0-0.7-0.2-1.4-0.8-1.5h-2.7V81
		h2.7C135.1,81,135.5,80.6,135.6,79.9z M156.5,76.1h2.6c0.5,0.2,1,0.7,1.2,1.5c0.1-0.7,0.5-1.2,1.1-1.5h5.9c3.6,0.5,4.2,5.7,0.5,6.2
		c0.8,0.3,1.6,0.7,1.7,1.6v1.7c0,0.5,0.7,0.5,1.3,0.5l0.1,2.6h-3.8c-1-0.1-1.6-0.6-1.7-1.8v-2.6c0-0.2-0.3-0.6-0.8-0.6H162V86h2v2.7
		h-2.9c-0.5-0.2-0.8-0.6-1-1.3c-0.1,0.6-0.5,1.2-1,1.3h-2.8V86h1.6v-2.9c-0.1-0.5-0.5-0.7-0.8-0.8c0.5-0.2,0.7-0.5,0.8-1v-2.6h-1.6
		L156.5,76.1L156.5,76.1z M165.8,79.9c0-0.7-0.2-1.4-0.8-1.5h-2.7V81h2.7C165.4,81,165.6,80.6,165.8,79.9z M186.2,81.3
		c-0.5-4.4-3.4-5.7-7.2-5.6c-3.7-0.1-6.7,1.3-7.2,5.6c-0.1,0.5-0.5,0.7-0.8,1c0.5,0.1,0.7,0.5,0.8,0.8c0.2,2.4,1.7,5.7,7.2,5.8
		c5.6,0.1,7.1-3.4,7.2-5.8c0.1-0.5,0.5-0.6,0.8-0.8C186.6,82.1,186.3,81.8,186.2,81.3z M179.2,85.8c-1.3,0-2.5-0.8-2.5-2.1
		c0-0.7,0-1.3,1-1.7c-0.8-0.3-1-0.8-1-1.6c-0.1-1.1,1.2-2.3,2.4-2.3c1.7,0,2.4,1.3,2.4,2.4c0,1-0.5,1.7-0.8,1.6c0.5,0.2,1,0.7,1,1.4
		C181.6,85.5,179.7,85.8,179.2,85.8L179.2,85.8z"/>
</g>
<polygon style="fill:#004EA2;" points="97.8,36.1 70,36.1 70,8.4 42.2,8.4 42.2,91.6 70,91.6 70,63.8 97.8,63.8 "/>
<g>
	<g>
		<defs>
			<rect id="SVGID_1_" x="42.2" y="8.4" width="55.4" height="83.2"/>
		</defs>
		<clipPath id="SVGID_2_">
			<use xlink:href="#SVGID_1_"  style="overflow:visible;"/>
		</clipPath>
		<path style="clip-path:url(#SVGID_2_);fill:#171714;" d="M31.3,57.4V58h1.6v1.6h-1.6v4.4h-2.1v-4.4H28V58h1.1v-0.6
			c0-1,0.3-2.1,2.3-2.1c0.7,0,1.3,0,1.8,0.1v1.4c-0.3,0-0.7-0.1-1-0.1C31.7,56.7,31.3,56.7,31.3,57.4 M6.3,44.5l-1.4-2.4l-0.6,0.7
			v1.7H2.2v-8.6h2.1v4.8l1.8-2.4h2.3l-2,2.6l2.1,3.7H6.3L6.3,44.5z M22.9,44.5c0.9,0,1.4-0.4,1.8-1c0,0.3,0,0.9,0.1,1h2.3
			C27,44.2,27,43.8,27,42.9v-7.1h-2.1V39c-0.4-0.6-1-0.9-1.8-0.9c-1.4,0-2.4,1.1-2.4,3.3C20.5,43.5,21.5,44.5,22.9,44.5 M23.6,42.9
			c-0.9,0-1-0.7-1-1.6c0-1,0.3-1.6,1-1.6c0.4,0,0.7,0.1,1,0.4v2.1C24.5,42.7,24.1,42.9,23.6,42.9 M13.4,38.3h2.1v1
			c0.3-0.4,1-1.1,2.1-1.1c1,0,1.8,0.4,1.8,1.8v4.4h-2.1v-3.8c0-0.4-0.1-0.7-0.6-0.7c-0.4,0-0.9,0.3-1.1,0.6v4h-2.1v-6.1H13.4z
			 M9.6,44.5h2.1v-6.2H9.6V44.5z M9.6,35.8h2.1v1.6H9.6V35.8z M20.8,63.8h2.1v-6.2h-2.1V63.8z M20.8,55.3h2.1v1.6h-2.1V55.3z
			 M13.1,63.8h2.1v-4.1c0.3-0.3,0.7-0.6,1.1-0.6c0.4,0,0.6,0.3,0.6,0.7v3.8h2.1v-4.5c0-1.3-0.9-1.8-1.8-1.8c-1.1,0-1.8,0.7-2.1,1.1
			V55h-2V63.8z M33.6,60.8c0-2.6,2-3.3,3.3-3.3c1.3,0,3,0.6,3,3.5v0.3h-4.1c0.1,0.9,0.6,1.1,1.3,1.1c0.7,0,1.4-0.3,1.8-0.7l0.9,1.3
			c-0.7,0.6-1.7,0.9-2.8,0.9C35.1,64.1,33.6,63.2,33.6,60.8 M37.8,60.1c-0.1-0.9-0.4-1.1-1-1.1c-0.6,0-0.9,0.3-1,1.1H37.8z
			 M24.8,63.8h2.1v-8.6h-2.1V63.8z M35.7,51.7v-2.8h-1v-1.6h1v-1.8h2.1v1.8h1.6v1.6h-1.6v2.4c0,0.7,0.1,0.9,0.9,0.9
			c0.1,0,0.6,0,0.6-0.1v1.6c-0.1,0-0.9,0.1-1.4,0.1C36,53.6,35.7,52.9,35.7,51.7 M31,53.6c1.6,0,3.3-0.7,3.3-3.3S32.4,47,31,47
			c-1.6,0-3.3,0.7-3.3,3.3S29.6,53.6,31,53.6 M31,52.1c-0.9,0-1.1-0.7-1.1-1.7s0.3-1.7,1.1-1.7c0.9,0,1.1,0.7,1.1,1.7
			C32.1,51.4,31.9,52.1,31,52.1 M20.8,47.3h2.1v1c0.3-0.4,1-1.1,2.1-1.1c1,0,1.8,0.4,1.8,1.8v4.5h-2.1v-3.8c0-0.4-0.1-0.7-0.6-0.7
			s-0.9,0.3-1.1,0.6v4.1h-2.1v-6.4C20.9,47.3,20.8,47.3,20.8,47.3z M35.7,44.5h2.1v-3.8c0.3-0.3,0.9-0.7,1.4-0.7c0.1,0,0.4,0,0.6,0
			v-2l0,0c-1.1,0-1.7,0.7-2,1.1l0,0v-1h-2.1V44.5L35.7,44.5z M28,41.4c0-2.6,2-3.3,3.3-3.3c1.3,0,3,0.6,3,3.5v0.3h-4.1
			c0.1,0.9,0.6,1.1,1.3,1.1s1.4-0.3,1.8-0.7l0.9,1.3c-0.7,0.6-1.7,0.9-2.8,0.9C29.7,44.6,28,43.8,28,41.4 M32.4,40.7
			c-0.1-0.9-0.4-1.1-1-1.1s-0.9,0.3-1,1.1H32.4z"/>
	</g>
</g>
<polygon style="fill:#004EA2;" points="97.8,36.1 70,36.1 70,8.4 42.2,8.4 42.2,91.6 70,91.6 70,63.8 97.8,63.8 "/>
<path style="fill:#171714;" d="M31.3,57.4V58h1.6v1.6h-1.6v4.4h-2.1v-4.4H28V58h1.1v-0.6c0-1,0.3-2.1,2.3-2.1c0.7,0,1.3,0,1.8,0.1
	v1.4c-0.3,0-0.7-0.1-1-0.1C31.7,56.7,31.3,56.7,31.3,57.4 M6.3,44.5l-1.4-2.4l-0.6,0.7v1.7H2.2v-8.6h2.1v4.8l1.8-2.4h2.3l-2,2.6
	l2.1,3.7H6.3L6.3,44.5z M22.9,44.5c0.9,0,1.4-0.4,1.8-1c0,0.3,0,0.9,0.1,1h2.3C27,44.2,27,43.8,27,42.9v-7.1h-2.1V39
	c-0.4-0.6-1-0.9-1.8-0.9c-1.4,0-2.4,1.1-2.4,3.3C20.5,43.5,21.5,44.5,22.9,44.5 M23.6,42.9c-0.9,0-1-0.7-1-1.6c0-1,0.3-1.6,1-1.6
	c0.4,0,0.7,0.1,1,0.4v2.1C24.5,42.7,24.1,42.9,23.6,42.9 M13.4,38.3h2.1v1c0.3-0.4,1-1.1,2.1-1.1c1,0,1.8,0.4,1.8,1.8v4.4h-2.1v-3.8
	c0-0.4-0.1-0.7-0.6-0.7c-0.4,0-0.9,0.3-1.1,0.6v4h-2.1v-6.1H13.4z M9.6,44.5h2.1v-6.2H9.6V44.5z M9.6,35.8h2.1v1.6H9.6V35.8z
	 M20.8,63.8h2.1v-6.2h-2.1V63.8z M20.8,55.3h2.1v1.6h-2.1V55.3z M13.1,63.8h2.1v-4.1c0.3-0.3,0.7-0.6,1.1-0.6c0.4,0,0.6,0.3,0.6,0.7
	v3.8h2.1v-4.5c0-1.3-0.9-1.8-1.8-1.8c-1.1,0-1.8,0.7-2.1,1.1V55h-2V63.8z M33.6,60.8c0-2.6,2-3.3,3.3-3.3c1.3,0,3,0.6,3,3.5v0.3
	h-4.1c0.1,0.9,0.6,1.1,1.3,1.1c0.7,0,1.4-0.3,1.8-0.7l0.9,1.3c-0.7,0.6-1.7,0.9-2.8,0.9C35.1,64.1,33.6,63.2,33.6,60.8 M37.8,60.1
	c-0.1-0.9-0.4-1.1-1-1.1c-0.6,0-0.9,0.3-1,1.1H37.8z M24.8,63.8h2.1v-8.6h-2.1V63.8z M35.7,51.7v-2.8h-1v-1.6h1v-1.8h2.1v1.8h1.6
	v1.6h-1.6v2.4c0,0.7,0.1,0.9,0.9,0.9c0.1,0,0.6,0,0.6-0.1v1.6c-0.1,0-0.9,0.1-1.4,0.1C36,53.6,35.7,52.9,35.7,51.7 M31,53.6
	c1.6,0,3.3-0.7,3.3-3.3S32.4,47,31,47c-1.6,0-3.3,0.7-3.3,3.3S29.6,53.6,31,53.6 M31,52.1c-0.9,0-1.1-0.7-1.1-1.7s0.3-1.7,1.1-1.7
	c0.9,0,1.1,0.7,1.1,1.7C32.1,51.4,31.9,52.1,31,52.1 M20.8,47.3h2.1v1c0.3-0.4,1-1.1,2.1-1.1c1,0,1.8,0.4,1.8,1.8v4.5h-2.1v-3.8
	c0-0.4-0.1-0.7-0.6-0.7s-0.9,0.3-1.1,0.6v4.1h-2.1v-6.4C20.9,47.3,20.8,47.3,20.8,47.3z M35.7,44.5h2.1v-3.8
	c0.3-0.3,0.9-0.7,1.4-0.7c0.1,0,0.4,0,0.6,0v-2l0,0c-1.1,0-1.7,0.7-2,1.1l0,0v-1h-2.1V44.5L35.7,44.5z M28,41.4c0-2.6,2-3.3,3.3-3.3
	c1.3,0,3,0.6,3,3.5v0.3h-4.1c0.1,0.9,0.6,1.1,1.3,1.1s1.4-0.3,1.8-0.7l0.9,1.3c-0.7,0.6-1.7,0.9-2.8,0.9C29.7,44.6,28,43.8,28,41.4
	 M32.4,40.7c-0.1-0.9-0.4-1.1-1-1.1s-0.9,0.3-1,1.1H32.4z"/>
</svg>
