<svg xmlns="http://www.w3.org/2000/svg" viewBox="0 0 419 112" enable-background="new 0 0 419 112" width="100" height="100"><path fill="#1A171B" d="M8.005 60.094c-1.902-16.521.699-33.719.965-50.961.039-2.534.769-3.045 3.475-3.238 3.98-.284 7.885-.5 11.885-.271 3.804.218 5.605 2.124 5.585 5.572-.053 9.101.233 18.298.673 27.272.667 13.589-.701 27.219 1.028 40.758.259 2.032 1.354 1.97 2.689 1.927 4.491-.144 8.98-.396 13.472-.478 2.315-.042 4.67-.026 6.945.342 3.747.606 5.716 2.406 5.205 6.818-1.409 12.151-1.241 12.101-13.582 12.195-5.82.045-11.637.418-17.455.64-1.496.057-2.996.21-4.486.144-10.838-.484-16.087-5.662-16.36-16.487-.199-7.818-.039-15.646-.039-24.233z"/><path fill="#939193" d="M174.171 90.813l1.077-2.463c1.045 1.129.809 2.397.802 3.603-.756-.165-2.129.684-1.879-1.14z"/><path fill="#1A171B" d="M144.218 61.513c-.829-15.109.105-30.253-.841-45.389-.317-5.07-2.57-6.209-6.563-6.969-10.158-1.933-10.146-1.995-13.241 8.352-23.245-14.645-45.952-10.425-61.787 8.214-10.943 12.88-12.702 39.323-2.989 51.235 7.946 9.745 17.52 17.597 30.456 19.256 12.421 1.592 24.871 1.868 34.422-9.948.225 4.258.371 7.23.542 10.2.179 3.095 1.699 4.243 4.593 2.888 3.517-1.647 7.241 1.989 10.678-.523 4.77 4.277 4.63-.125 4.913-2.944 1.149-11.456.445-22.906-.183-34.372zm-32.038 7.43c-7.315 4.88-15.512 6.025-23.76 2.993-13.207-4.855-17.13-13.789-11.233-27.937 6.109-14.658 23.645-18.523 35.621-8.034 5.043 4.417 7.406 10.862 7.354 18.23.334 6.24-2.745 11.254-7.982 14.748zm211.014-5.918c7.647-1.98 10.95-5.212 9.505-13.328-1.708-9.592-6.001-18.084-10.417-26.736-5.863-11.486-21.841-19.833-33.495-18.198-10.293 1.445-18.968 4.715-26.585 13.29-7.962 8.963-16.352 17.078-18.492 29.25-1.758 9.997-1.128 19.863 4.715 28.817 2.211 3.389 6.046 4.387 8.902 6.839 4.647 3.99 7.956 9.314 13.62 12.333 15.558 8.291 30.658 6.874 45.757-1.101 2.369-1.251 5.256-1.727 2.264-5.193-.866-1.003-.576-2.106.717-2.798 1.403-.751 1.878-2.212 2.694-3.456 1.586-2.42 1.9-3.583-1.74-3.149-4.34.518-8.896-1.66-11.884-3.34-3.548-1.996-5.157-.948-7.756.059-9.865 3.82-24.01-.486-30.095-9.521 1.136-.13 1.785-.233 2.439-.274 16.613-1.067 33.363.774 49.851-3.494zm-54.142-19.73c3.617-8.669 8.997-15.193 18.852-17.347 11.287-2.468 21.684 7.997 23.706 17.262.469 2.15-.635 2.23-2.039 2.257-2.481.048-4.964.013-7.447.013-10.144-.679-20.028 2.215-30.222 1.931-4.173-.116-4.025-1.301-2.85-4.116zm-23.471 45.654c-1.458-2.409-3.029-4.837-4.973-6.849-7.214-7.47-11.316-17.37-19.868-24.151 3.352-1.105 6.033-1.92 8.664-2.871 4.686-1.694 7.703-5.234 9.577-9.622 3.195-7.482 2.087-15.265-.605-22.385-1.532-4.053-3.62-9.041-8.022-11.001-6.002-2.674-12.224-5.012-18.773-6.247-8.469-1.596-16.913-.131-25.369.007-7.721.126-8.854 1.531-9.439 9.405-.958 12.907-1.321 25.841-.81 38.738.49 12.376-2.311 24.513-1.792 36.84 1.808.892.721-1.759 1.86-1.602-.892.902-.759 1.815.019 2.743.354 9.322 2.238 10.665 12.267 8.562 1.173-.246 1.449.403 1.784 1.114 2.304 4.879 3.93 2.285 5.736-.427 2.388-3.585 3.224-7.459 3.219-11.747-.01-8.21-2.144-16.38-.433-25.178 7.272 8.034 13.171 16.606 19.297 25.014 3.322 4.559 6.951 8.909 10.639 13.183 2.099 2.433 4.73 2.75 6.458-.363 2.097-3.777 6.469-4.645 9.379-7.616 2.465-2.516 2.46-3.441 1.185-5.547zm-25.671-53.841c-.623 3.609-2.72 5.963-6.582 6.379-1.154.124-2.3.328-3.45.491-12.55 1.783-12.55 1.783-12.877-10.916-.192-7.464.17-7.798 7.727-6.746 3.62.504 7.233 1.155 10.524 2.824 3.208 1.627 5.32 4.133 4.658 7.968zm194.377 10.533c-1.364-16.897-12.601-27.883-28.707-33.453-12.228-4.229-24.998-5.067-37.736-6.287-4.118-.394-5.308 1.373-5.698 4.841-1.039 9.258-2.511 18.484-3.14 27.768-1.101 16.247-1.779 32.525-2.457 48.797-.19 4.573 2.072 8.143 6.614 9.258 4.65 1.142 9.432 1.941 14.272 1.829 12.984-.448 25.324-3.215 36.499-10.16 15.86-9.858 21.74-25.408 20.353-42.593zm-24.487 13.523c-6.799 9.979-15.922 16.321-27.556 16.817 0-11.059-.123-22.165.058-33.266.076-4.656.403-9.304-.115-13.947-.351-3.147.387-4.396 4.086-3.898 9.588 1.291 17.059 6.217 23.45 12.955 4.844 5.107 4.834 14.358.077 21.339z"/></svg>