<svg xmlns="http://www.w3.org/2000/svg" viewBox="0 0 960 131" enable-background="new 0 0 960 131" width="100" height="100"><path d="M695.001 124.477c-16.461-.652-33.005 1.153-49.382-1.802-19.506-3.521-29.063-12.603-31.014-32.193-1.682-16.887-1.637-34.033-.041-50.923 1.91-20.226 12.595-31.046 33.243-32.726 30.385-2.473 60.892-2.701 91.294.654 3.275.361 6.537 1.278 9.682 2.312 10.701 3.517 16.666 11.037 18.255 22.138.802 5.604 3.109 12.486.172 16.473-2.382 3.234-9.659.797-14.76.939-5.828.163-11.666-.03-17.497.071-2.29.04-3.55-.192-3.72-3.105-.397-6.791-2.5-8.948-9.206-10.315-1.941-.396-3.966-.525-5.953-.531-14.332-.045-28.665-.113-42.996-.005-14.964.114-20.894 5.86-21.308 20.821-.208 7.488-.146 15.007.284 22.483.544 9.444 4.663 13.792 14.041 15.21 6.946 1.05 13.978.447 20.967.407 11.325-.065 22.684.753 33.968-.448 8.442-.899 11.031-3.697 11.719-12.069.227-2.762.9-3.585 3.706-3.534 9.829.177 19.665.163 29.495.009 2.789-.044 3.761.694 3.688 3.596-.147 5.831.136 11.709-.93 17.451-2.636 14.205-13.053 22.292-30.249 24.167-14.473 1.577-28.977.346-43.458.92zm178.754-1.407c-20.326 0-40.654-.105-60.979.09-3.988.038-5.383-.762-5.36-5.106.188-35.487.161-70.976.03-106.463-.014-3.769.753-5.064 4.858-5.047 40.319.169 80.639.171 120.958-.004 4.113-.018 4.998 1.262 4.799 5.018-.298 5.649-.35 11.343.013 16.984.26 4.041-.735 5.273-5.043 5.239-27.989-.224-55.981-.015-83.97-.222-4.262-.032-5.561 1.191-5.045 5.262.557 4.394-1.894 10.311 1.041 12.846 2.514 2.172 8.241.702 12.547.707 23.492.028 46.985.145 70.475-.106 4.328-.046 5.304 1.213 5.008 5.23-.367 4.971-.299 10.002-.013 14.984.189 3.278-.819 4.108-4.082 4.091-26.657-.138-53.316.035-79.971-.192-4.281-.036-5.441 1.146-5.033 5.217.429 4.278-1.381 10.074.801 12.546 2.557 2.896 8.466.912 12.907.928 25.824.09 51.649.11 77.473-.03 3.638-.02 5.291.532 5.015 4.734-.414 6.304-.319 12.665-.025 18.983.165 3.548-.966 4.417-4.427 4.39-20.657-.16-41.317-.079-61.977-.079zm-429.446.001c-18.318 0-36.636-.059-54.953.056-3.089.019-4.295-.588-4.282-4.078.14-36.135.134-72.271.007-108.407-.012-3.429 1.124-4.128 4.269-4.064 9.322.189 18.655.259 27.972-.026 3.748-.115 4.707.906 4.681 4.667-.178 25.643.007 51.29-.194 76.933-.033 4.177 1.085 5.175 5.216 5.138 24.144-.215 48.292-.018 72.436-.198 3.698-.028 4.85.793 4.654 4.609-.35 6.809-.317 13.66-.013 20.474.171 3.821-.795 5.052-4.842 5-18.314-.236-36.633-.104-54.951-.104zm93.035-58.575c0-17.829.092-35.658-.079-53.485-.033-3.487.905-4.535 4.433-4.447 9.658.241 19.328.173 28.989.024 2.638-.041 3.375.746 3.369 3.365-.078 36.657-.07 73.314-.012 109.971.004 2.304-.537 3.228-3.037 3.198-10.162-.124-20.329-.164-30.49.01-3.406.058-3.194-1.867-3.19-4.15.031-18.163.017-36.325.017-54.486zm-191.391-29.865c-1.398-10.914-7.498-19.064-17.663-23.787-5.167-2.401-10.664-3.698-16.313-4.368-16.282-1.932-32.63-.876-48.945-.917-14.814-.038-29.649-.804-44.449.898-19.875 2.286-31.852 11.754-34.036 29.861-2.274 18.849-1.932 37.978-.108 56.883 1.393 14.438 9.978 23.959 24.111 28.021 4.156 1.194 8.414 1.927 12.738 2.376 14.638 1.519 29.313.361 43.964.858 15.151-.463 30.317.538 45.463-.932 21.203-2.058 33.565-11.621 35.6-31.055 2.007-19.164 2.101-38.614-.362-57.838zm-36.939 45.841c-.97 7.978-4.632 11.912-12.582 13.22-10.413 1.713-20.941.238-29.065.712-10.833 0-19.329.163-27.816-.039-12.148-.289-17.055-4.613-18.145-16.584-.784-8.609-.966-17.327.151-25.926 1.347-10.361 6.209-15.693 16.474-16.036 18.291-.611 36.635-.64 54.922.038 10.32.383 15.129 5.961 16.244 16.213 1.029 9.455.966 18.953-.183 28.402zm-159.756-46.541c-2.333-14.103-11.183-22.16-24.777-25.394-5.691-1.354-11.498-1.876-17.338-1.88-31.646-.022-63.292.073-94.937-.115-3.968-.024-4.577 1.256-4.542 4.798.173 17.82.08 35.642.079 53.464 0 17.988.099 35.977-.084 53.963-.036 3.57 1.054 4.461 4.482 4.381 9.488-.222 18.987-.185 28.478-.013 2.896.053 3.693-.875 3.621-3.683-.18-6.991.222-14.005-.164-20.979-.231-4.172 1.304-4.865 5.054-4.838 22.817.161 45.636.183 68.454.044 17.016-.104 28.011-8.915 31.504-25.49 2.388-11.34 2.054-22.865.17-34.258zm-38.796 26.803c-2.026 3.23-5.526 4.039-9.184 4.039h-26.455v.035c-8.819 0-17.64-.119-26.454.064-3.118.065-4.416-.572-4.274-4.061.29-7.143.185-14.308.036-21.46-.055-2.656.466-3.817 3.5-3.791 17.137.145 34.276-.018 51.413.143 5.07.048 10.524.847 12.567 6.308 2.316 6.192 2.576 12.782-1.149 18.723z"/></svg>