<svg xmlns="http://www.w3.org/2000/svg" viewBox="0 0 64 64" enable-background="new 0 0 64 64" height="300" width="300"><path stroke="#fff" stroke-width=".75" stroke-miterlimit="10" d="M17.5 22.2l-9.5 9.6 9.6 9.6c.5.5.8 1.2.8 2 0 1.6-1.3 2.9-2.9 2.9-.8 0-1.5-.3-2-.8l-11.7-11.7c-.5-.5-.9-1.3-.9-2.1 0-.9.4-1.7 1-2.2l11.5-11.5c.5-.5 1.3-.9 2.1-.9 1.6 0 2.9 1.3 2.9 2.9 0 .9-.3 1.7-.9 2.2zm25-9.8l-15.5 40.7c-.4 1.1-1.5 1.9-2.7 1.9-1.6 0-2.9-1.3-2.9-2.9 0-.4.1-.7.2-1l15.4-40.7c.4-1.1 1.5-1.9 2.7-1.9 1.6 0 2.9 1.3 2.9 2.9.1.3 0 .7-.1 1zm19.7 21.4l-11.7 11.7c-.5.5-1.2.8-2 .8-1.6 0-2.9-1.3-2.9-2.9 0-.8.3-1.5.8-2l9.6-9.6-9.6-9.6c-.5-.5-.9-1.3-.9-2.1 0-1.6 1.3-2.9 2.9-2.9.8 0 1.6.3 2.1.9l11.5 11.5c.6.5 1 1.3 1 2.2.1.8-.3 1.5-.8 2z" fill="none"/></svg>