<svg xmlns="http://www.w3.org/2000/svg" width="300" height="300" viewBox="0 0 300 300" enable-background="new 0 0 300 300"><path stroke="#d41" stroke-width="2" stroke-miterlimit="10" d="M101.9 264.9h57.7c1.1 0 2-.9 2-2v-124.3c0-1.1-.9-2-2-2h-89.9c-1.1 0-2 .9-2 2v50.6" fill="none"/><path stroke="#d41" stroke-width="2" stroke-miterlimit="10" d="M114.7 252.5c-2 0-3.6 1.6-3.6 3.6s1.6 3.6 3.6 3.6 3.6-1.6 3.6-3.6-1.6-3.6-3.6-3.6z" fill="none"/><path stroke="#d41" stroke-width="2" d="M94.9 194.2h-37.3c-1.1 0-2 .9-2 2v79.3c0 1.1.9 2 2 2h37.3c1.1 0 2-.9 2-2v-79.3c0-1.1-.9-2-2-2zm-18.6 79.7c-1.4 0-2.5-1.1-2.5-2.5s1.1-2.5 2.5-2.5 2.6 1.1 2.6 2.5c-.1 1.3-1.2 2.5-2.6 2.5zm16.7-9h-33.5v-62.1h33.5v62.1z" fill="none"/><path stroke="#d41" stroke-width="2" stroke-miterlimit="10" d="M166.4 236.2h44.3v-1.7l-18.7-11.7v-20h87.7c8 0 14.1-6.6 14.1-14.1v-155.1c0-8-6.6-14.1-14.1-14.1h-259.3c-8 0-14.1 6.6-14.1 14.1v155.2c0 8 6.6 14.1 14.1 14.1h29.7m51.8 44.1h51.8v-94.4h-78v36.6m-13.3-6.2h-44.1v-151h263.4v151h-115.3" fill="none"/></svg>