<svg xmlns="http://www.w3.org/2000/svg" viewBox="0 0 300 300" enable-background="new 0 0 300 300"><g><path opacity=".1" fill="#fff" d="M259.2 200.8c0 5.4-3.9 12-8.7 14.7l-92.6 51.7c-4.8 2.7-12.6 2.7-17.4 0l-92.6-51.7c-4.8-2.7-8.7-9.3-8.7-14.7v-103.2c0-5.4 3.9-12 8.7-14.7l92.6-51.7c4.8-2.7 12.6-2.7 17.4 0l92.6 51.7c4.8 2.7 8.7 9.3 8.7 14.7v103.2z"/><path fill="#fff" d="M149.2 30.2c3.1 0 6 .7 8.2 1.9l92.6 51.7c4.4 2.5 8.2 8.8 8.2 13.8v103.2c0 5-3.7 11.3-8.2 13.8l-92.6 51.7c-2.2 1.2-5.1 1.9-8.2 1.9-3.1 0-6-.7-8.2-1.9l-92.6-51.7c-4.4-2.5-8.2-8.8-8.2-13.8v-103.2c0-5 3.7-11.3 8.2-13.8l92.6-51.7c2.2-1.3 5.1-1.9 8.2-1.9m0-1c-3.2 0-6.3.7-8.7 2l-92.6 51.7c-4.8 2.7-8.7 9.3-8.7 14.7v103.2c0 5.4 3.9 12 8.7 14.7l92.6 51.7c2.4 1.3 5.5 2 8.7 2s6.3-.7 8.7-2l92.6-51.7c4.8-2.7 8.7-9.3 8.7-14.7v-103.2c0-5.4-3.9-12-8.7-14.7l-92.6-51.7c-2.4-1.4-5.5-2-8.7-2z" opacity=".25"/><path stroke="#fff" stroke-miterlimit="10" d="M207.9 177.7c0 3.1-2.5 5.6-5.6 5.6h-36v9.5l7.6 7.6v1.9h-49.2v-1.9l7.6-7.6v-9.5h-36c-3.1 0-5.6-2.5-5.6-5.6v-75.9c0-3.1 2.5-5.6 5.6-5.6h106.2c3.1 0 5.6 2.5 5.6 5.6l-.2 75.9z" fill="none"/><path stroke="#fff" stroke-miterlimit="10" fill="none" d="M98 103.5h102.5v64.7h-102.5z"/><path stroke="#fff" stroke-miterlimit="10" d="M137.9 130.2c1.5 0 2.9.6 4.1 1.7l3.5 3.5 11.2-11.2c1-1 2.5-1.7 4.1-1.7 3.1 0 5.6 2.5 5.6 5.6 0 1.5-.6 2.9-1.7 4.1l-15.1 15.1c-1 1.4-2.3 1.9-4.1 1.9-1.5 0-2.9-.6-4.1-1.7l-7.6-7.6c-1-1-1.7-2.5-1.7-4.1.2-3.1 2.7-5.6 5.8-5.6z" fill="none"/></g></svg>