<svg xmlns="http://www.w3.org/2000/svg" viewBox="0 0 64 64" enable-background="new 0 0 64 64" height="300" width="300"><path stroke="#fff" stroke-width=".75" stroke-miterlimit="10" d="M5.6 41.8h52.8v-33.3h-52.8v33.3zm20.5-19.6c.8 0 1.5.3 2.1.9l1.8 1.8 5.8-5.8c.5-.5 1.3-.9 2.1-.9 1.6 0 2.9 1.3 2.9 2.9 0 .8-.3 1.5-.9 2.1l-7.8 7.8c-.5.7-1.2 1-2.1 1-.8 0-1.5-.3-2.1-.9l-3.9-3.9c-.5-.5-.9-1.3-.9-2.1.1-1.6 1.4-2.9 3-2.9zm36.2 24.5c0 1.6-1.3 2.9-2.9 2.9h-18.6v4.9l3.9 3.9v1h-25.4v-1l3.9-3.9v-4.9h-18.6c-1.6 0-2.9-1.3-2.9-2.9v-39.2c0-1.6 1.3-2.9 2.9-2.9h54.8c1.6 0 2.9 1.3 2.9 2.9v39.2z" fill="none"/></svg>