<svg xmlns="http://www.w3.org/2000/svg" viewBox="0 0 64 64" enable-background="new 0 0 64 64" height="300" width="300"><path stroke="#fff" stroke-width=".75" stroke-miterlimit="10" d="M60.6 22.5l-24.2 16.7c-.5.3-1 .5-1.6.5-.6 0-1.1-.2-1.5-.5l-12.5-8.3-13 7.6v11.5h51.2c1.5 0 2.8 1.2 2.8 2.8 0 1.5-1.2 2.8-2.8 2.8h-54c-1.5 0-2.8-1.2-2.8-2.8v-44.7c0-1.5 1.2-2.8 2.8-2.8 1.5 0 2.8 1.2 2.8 2.8v24l11.6-6.8c.4-.2.9-.4 1.4-.4.6 0 1.1.2 1.5.5l12.4 8.2 22.6-15.7c.5-.3 1-.5 1.6-.5 1.5 0 2.8 1.2 2.8 2.8.1.9-.4 1.8-1.1 2.3z" fill="none"/></svg>