<svg xmlns="http://www.w3.org/2000/svg" viewBox="0 0 64 64" enable-background="new 0 0 64 64" height="300" width="300"><path d="M32 37.6c-3.1 0-5.7 2.6-5.7 5.7 0 2.1 1.2 3.9 2.9 4.9v5.5c0 1.6 1.3 2.9 2.9 2.9s2.9-1.3 2.9-2.9v-5.5c1.7-1 2.9-2.8 2.9-4.9-.2-3.1-2.8-5.7-5.9-5.7zm0-30.4c-6.3 0-11.4 5.1-11.4 11.4v13.3h22.8v-13.3c0-6.3-5.1-11.4-11.4-11.4zm24.7 52.3c0 1.6-1.3 2.9-2.9 2.9h-43.7c-1.6 0-2.9-1.3-2.9-2.9v-24.7c0-1.6 1.3-2.9 2.9-2.9h4.8v-13.3c0-9.4 7.7-17.1 17.1-17.1s17.1 7.7 17.1 17.1v13.3h4.8c1.6 0 2.9 1.3 2.9 2.9v24.7z" stroke="#fff" stroke-width=".75" stroke-miterlimit="10" fill="none"/></svg>