<svg xmlns="http://www.w3.org/2000/svg" viewBox="0 0 16 16" enable-background="new 0 0 16 16" height="300" width="300"><path stroke="#fff" stroke-width=".25" stroke-miterlimit="10" d="M7.6 13.7c-.5 0-1-.1-1.5-.2-2 2.4-5 2-5 2 2.1-1 2.1-2.7 1.7-2.9-1.7-1-2.7-2.5-2.7-4.2 0-2.5 2.4-4.7 5.7-5.3-.1.3-.2.8-.2 1.3.1 2.2 2 4 5 4.2l1-.1h.1c.8.9 1.9 1.1 2.5 1.1-.6 2.3-3 4.1-6.6 4.1zm7.6-4.9s-2 .3-3.3-1.3l-1 .1c-2.7 0-4.4-1.6-4.4-3.6s1.7-3.6 4.4-3.6 4.9 1.6 4.9 3.6c0 1.1-.7 2.1-1.8 2.8-.2.2-.3 1.3 1.2 2z" fill="none"/></svg>