<svg xmlns="http://www.w3.org/2000/svg" viewBox="0 0 300 300" enable-background="new 0 0 300 300"><g><path opacity=".1" fill="#fff" d="M259.2 200.8c0 5.4-3.9 12-8.7 14.7l-92.6 51.7c-4.8 2.7-12.6 2.7-17.4 0l-92.6-51.7c-4.8-2.7-8.7-9.3-8.7-14.7v-103.2c0-5.4 3.9-12 8.7-14.7l92.6-51.7c4.8-2.7 12.6-2.7 17.4 0l92.6 51.7c4.8 2.7 8.7 9.3 8.7 14.7v103.2z"/><path fill="#fff" d="M149.2 30.2c3.1 0 6 .7 8.2 1.9l92.6 51.7c4.4 2.5 8.2 8.8 8.2 13.8v103.2c0 5-3.7 11.3-8.2 13.8l-92.6 51.7c-2.2 1.2-5.1 1.9-8.2 1.9s-6-.7-8.2-1.9l-92.6-51.7c-4.4-2.5-8.2-8.8-8.2-13.8v-103.2c0-5 3.7-11.3 8.2-13.8l92.6-51.7c2.1-1.3 5-1.9 8.2-1.9m0-1c-3.2 0-6.3.7-8.7 2l-92.6 51.7c-4.8 2.7-8.7 9.3-8.7 14.7v103.2c0 5.4 3.9 12 8.7 14.7l92.6 51.7c2.4 1.3 5.5 2 8.7 2s6.3-.7 8.7-2l92.6-51.7c4.8-2.7 8.7-9.3 8.7-14.7v-103.2c0-5.4-3.9-12-8.7-14.7l-92.6-51.7c-2.4-1.4-5.6-2-8.7-2z" opacity=".25"/><path stroke="#fff" stroke-miterlimit="10" d="M146.2 195.4c-4.2 0-8.4-.8-12.6-1.7-16.8 20.1-41.9 16.8-41.9 16.8 17.6-8.4 17.6-22.6 14.2-24.3-14.2-8.4-22.6-20.9-22.6-35.2 0-20.9 20.1-39.4 47.8-44.4-.8 2.5-1.7 6.7-1.7 10.9.8 18.4 16.8 33.5 41.9 35.2l8.4-.8h.8c6.7 7.5 15.9 9.2 20.9 9.2-4.9 19.2-25 34.3-55.2 34.3zm63.7-41s-16.8 2.5-27.6-10.9l-8.4.8c-22.6 0-36.9-13.4-36.9-30.2s14.3-30.1 36.9-30.1 41.1 13.4 41.1 30.2c0 9.2-5.9 17.6-15.1 23.5-1.7 1.6-2.6 10.8 10 16.7z" fill="none"/></g></svg>