<svg xmlns="http://www.w3.org/2000/svg" viewBox="0 0 100 100" enable-background="new 0 0 100 100" width="100" height="100"><path fill="#92BDE4" d="M49.9 70h-48c-.5 0-.6-.1-.6-.6v-41.8c0-.4 0-.6.5-.6h96.1c.4 0 .5.1.5.5v41.9c0 .5-.2.5-.6.5-15.8.1-31.8.1-47.9.1z"/><path fill="#517024" d="M50.1 30.8h44.1c.7 0 .9.2.9.9v34.1c0 .6-.1.8-.8.8h-88.3c-.7 0-.8-.2-.8-.8v-34.1c0-.7.1-.9.9-.9h44z"/><path fill="#FEFEFE" d="M25.4 48c2.1 1 3.1 2.6 3 4.9-.2 2.5-1.5 4.2-3.8 5.2-1.2.5-2.5.7-3.7.7h-7.4c-.5 0-.6-.1-.6-.6v-19c0-.4.1-.6.6-.6h8.2c1.6 0 3.1.5 4.3 1.6 2.2 2 2.7 5.1-.1 7.5-.2.1-.4.2-.5.3zm22.8 3.3v6.8c0 .5-.1.6-.6.6h-3.9c-.5 0-.6-.2-.6-.6v-5.7c0-.4-.1-.6-.6-.6h-3.9c-.5 0-.7.1-.7.6v5.6c0 .5-.1.7-.6.6h-4c-.4 0-.5-.1-.5-.5v-12.1c0-.8.1-1.6.3-2.4.8-3.4 3.4-5.4 6.8-5.5 2.4-.1 4.6.4 6.3 2.3 1.2 1.3 1.7 2.9 1.9 4.7.2 2.2.1 4.4.1 6.2zm7.9.9h2.1c.4 0 .5.1.5.5-.2 2.3 1.9 2.7 3.3 2.3.8-.2 1.4-.9 1.4-1.8.1-.9-.3-1.6-1.1-2-.6-.3-1.3-.4-2-.5-1-.2-2-.4-3-.8-2.1-.9-3.4-2.3-3.7-4.7-.2-2.4.6-4.2 2.6-5.6 2.7-1.9 7-1.9 9.7 0 1.8 1.2 2.5 2.9 2.5 5.1 0 .4-.1.5-.5.5h-3.9c-.4 0-.5-.1-.5-.5-.1-1.9-1.4-2.9-3.3-2.4-.8.2-1.4.7-1.5 1.6-.1.9.1 1.6.9 2.1s1.7.6 2.6.8c1.4.3 2.8.7 4.1 1.4 1.5.8 2.4 2.1 2.5 3.8.2 3.5-1.4 5.9-4.9 6.9-2.3.7-4.7.6-6.9-.3-3-1.2-3.7-3.4-3.7-5.9 0-.4.2-.4.5-.4.8-.1 1.5-.1 2.3-.1zm18-3.5v-9.4c0-.5.1-.7.6-.7h11.9c.4 0 .6.1.6.6v2.8c0 .5-.1.7-.6.6h-6.8c-.5 0-.7.1-.6.6v2.6c0 .5.1.6.6.6h6.6c.5 0 .7.1.7.6v2.5c0 .5-.1.6-.6.6h-6.5c-.6 0-.8.2-.7.8v3.2c0 .6.2.7.7.7h6.7c.5 0 .7.1.7.6v2.9c0 .4-.1.5-.5.5h-12.1c-.6 0-.6-.3-.6-.7-.1-3.1-.1-6.3-.1-9.4z"/><path fill="#FBFCFA" d="M90.8 64.9c-1.4 0-2.6-1.2-2.5-2.6 0-1.4 1.2-2.5 2.6-2.5 1.4 0 2.5 1.1 2.5 2.5-.1 1.4-1.2 2.6-2.6 2.6z"/><path fill="#517024" d="M17.9 52.5v-2c0-.3 0-.5.4-.5 1 0 2 0 3 .1 1.5.1 2.2 1.1 2.2 2.5 0 1.3-.9 2.3-2.3 2.4-1 .1-2 0-2.9 0-.3 0-.4-.1-.4-.4v-2.1zm0-8.1v-1.6c0-.3.1-.5.4-.5h2.7c1.1 0 1.8 1 1.8 2.1 0 1.2-.8 2.1-1.8 2.1h-2.7c-.3 0-.4-.1-.4-.4v-1.7zm22.7 3.6h-2.1c-.2 0-.5 0-.5-.3 0-1.1-.1-2.2.1-3.3.3-1.4 1.1-2.1 2.5-2.1s2.4.8 2.5 2.2l.1 3.1c0 .3-.1.4-.4.4h-2.2z"/><path fill="#527025" d="M92.8 62.3c0 1.2-.9 2.2-2.1 2.2-1.2 0-2.1-.9-2.1-2.2 0-1.2.9-2.2 2.1-2.2 1.2 0 2.1 1 2.1 2.2z"/><path fill="#FBFBFA" d="M91.2 62.6l.7 1.2c-.2.1-.4.1-.5-.1l-.4-.6c-.2-.2-.2-.6-.6-.5-.4.1-.1.5-.2.7v.3c0 .2 0 .3-.2.3s-.2-.2-.2-.3v-2.4c0-.1 0-.2.1-.3.3-.1 1.6 0 1.8.2.5.4.3 1.1-.5 1.5z"/><path fill="#57752C" d="M90.7 62.2c-.4.1-.4-.2-.4-.5 0-.5.2-.5.6-.5.3 0 .7 0 .7.5-.1.5-.6.4-.9.5z"/></svg>