<svg xmlns="http://www.w3.org/2000/svg" viewBox="0 0 100 100" enable-background="new 0 0 100 100" width="100" height="100"><path fill="#E30613" d="M.6 41.7h2.4c.5.2.9.7 1.1 1.4.1-.7.5-1.1 1-1.4h6.7c.2 0 .4.3.4.4v4.4h-2.5v-2.5h-3.6v2.4h.8v-.8h1.9v3.9h-1.8v-.8h-.9v2.2h2.1v2.5h-3c-.5-.2-.8-.6-.9-1.2-.1.6-.4 1.1-.9 1.2h-2.8v-2.5h1.5v-2.7c-.1-.4-.4-.7-.8-.8.4-.2.7-.5.8-.9v-2.4h-1.5v-2.4zm13 0h2.4c.5.2.9.7 1.1 1.4.1-.7.5-1.1 1-1.4h6.7c.2 0 .4.3.4.4v4.4h-2.6v-2.5h-3.5v2.4h.8v-.8h1.9v3.9h-1.8v-.8h-.9v2.2h3.9v-2.3h2.5v4.8h-7.3c-.5-.2-.8-.6-.9-1.2-.1.6-.4 1.1-.9 1.2h-2.8v-2.5h1.5v-2.7c-.1-.4-.4-.7-.8-.8.4-.2.7-.5.8-.9v-2.4h-1.5v-2.4zm43.4 0h2.4c.5.2.9.7 1.1 1.4.1-.7.5-1.1 1-1.4h6.7c.2 0 .4.3.4.4v4.4h-2.6v-2.5h-3.5v2.4h.8v-.8h1.9v3.9h-1.8v-.8h-.9v2.2h3.8v-2.3h2.5v4.8h-7.3c-.5-.2-.8-.6-.9-1.2-.1.6-.4 1.1-.9 1.2h-2.6v-2.5h1.5v-2.7c-.1-.4-.4-.7-.8-.8.4-.2.7-.5.8-.9v-2.4h-1.5l-.1-2.4zm-29.9 0h2.4c.5.2.9.7 1.1 1.4.1-.7.5-1.1 1-1.4h5.5c3.3.4 3.9 5.3.5 5.8.8.3 1.5.7 1.6 1.5v1.6c0 .4.7.4 1.2.4l.1 2.5h-3.5c-.9-.1-1.5-.6-1.6-1.7v-2.4c0-.2-.3-.6-.8-.6h-2.2v2.2h1.9v2.4h-2.8c-.5-.2-.8-.6-.9-1.2-.1.6-.4 1.1-.9 1.2h-2.7v-2.5h1.7v-2.7c-.1-.4-.4-.7-.8-.8.4-.2.7-.5.8-.9v-2.4h-1.5l-.1-2.4zm8.9 3.6c0-.7-.2-1.3-.8-1.4h-2.5v2.4h2.5c.3 0 .7-.4.8-1zm6.1-3.6h2.4c.5.2.9.7 1.1 1.4.1-.7.5-1.1 1-1.4h5.5c3.3.4 3.9 5.3.5 5.8.8.3 1.5.7 1.6 1.5v1.6c0 .4.7.4 1.2.4l.1 2.5h-3.5c-.9-.1-1.5-.6-1.6-1.7v-2.4c0-.2-.3-.6-.8-.6h-2.2v2.2h1.9v2.4h-2.8c-.5-.2-.8-.6-.9-1.2-.1.6-.4 1.1-.9 1.2h-2.7v-2.5h1.5v-2.7c-.1-.4-.4-.7-.8-.8.4-.2.7-.5.8-.9v-2.4h-1.5l.1-2.4zm8.9 3.6c0-.7-.2-1.3-.8-1.4h-2.5v2.4h2.5c.4 0 .7-.4.8-1zm19.6-3.6h2.4c.5.2.9.7 1.1 1.4.1-.7.5-1.1 1-1.4h5.5c3.3.4 3.9 5.3.5 5.8.8.3 1.5.7 1.6 1.5v1.6c0 .4.7.4 1.2.4l.1 2.4h-3.6c-.9-.1-1.5-.6-1.6-1.7v-2.4c0-.2-.3-.6-.8-.6h-2.2v2.2h1.9v2.5h-2.7c-.5-.2-.8-.6-.9-1.2-.1.6-.4 1.1-.9 1.2h-2.6v-2.5h1.5v-2.7c-.1-.4-.4-.7-.8-.8.4-.2.7-.5.8-.9v-2.4h-1.5v-2.4zm8.8 3.6c0-.7-.2-1.3-.8-1.4h-2.6v2.4h2.5c.6 0 .8-.4.9-1zm19.2 1.3c-.4-4.1-3.2-5.3-6.7-5.2-3.5-.1-6.2 1.2-6.7 5.2-.1.4-.4.7-.8.9.4.1.7.4.8.8.2 2.2 1.6 5.3 6.7 5.4 5.2.1 6.6-3.2 6.7-5.4.1-.4.4-.6.8-.8-.4-.2-.7-.5-.8-.9zm-6.6 4.2c-1.2 0-2.3-.8-2.3-2 0-.7 0-1.2.9-1.6-.8-.3-.9-.8-.9-1.5-.1-1 1.1-2.1 2.2-2.1 1.6 0 2.2 1.2 2.2 2.2 0 .9-.4 1.6-.8 1.5.4.2.9.7.9 1.3.1 1.9-1.8 2.2-2.2 2.2z"/></svg>