<svg xmlns="http://www.w3.org/2000/svg" viewBox="0 0 324.5 248.313" enable-background="new 0 0 324.5 248.313" width="100" height="100"><path fill="#9C0923" d="M322.5 118.588c.646 4.35.571 8.179 0 12-.875 6.067-3.513 11.27-7.314 16.064-6.845 8.634-9.928 18.672-10.754 29.593-1.233 16.302-8.927 26.118-24.753 29.804-13.17 3.067-23.3 9.517-31.465 20.357-7.354 9.763-17.933 13.378-30.205 11.335-2.794-.465-5.596-.897-8.364-1.486-8.367-1.779-16.326-.5-23.661 3.677-5.527 3.148-11.098 5.896-17.484 6.655-4.068.433-8.066.4-12 0-6.385-.759-11.955-3.507-17.482-6.654-7.334-4.177-15.291-5.457-23.657-3.68-2.767.588-5.568 1.024-8.363 1.485-12.479 2.059-23.051-1.766-30.549-11.689-7.944-10.514-17.795-16.887-30.64-19.857-16.067-3.716-23.712-12.988-25.224-29.431-1.114-12.12-4.609-23.164-12.521-32.549-3.359-3.984-4.537-8.747-5.565-13.625-.511-4.247-.669-8.553 0-13 .722-5.963 3.534-10.996 7.172-15.585 6.99-8.819 9.988-19.008 10.876-30.042 1.286-15.969 8.618-24.902 23.862-29.588 3.82-1.174 7.812-1.706 11.532-3.227 6.768-2.766 12.504-6.85 16.922-12.768 6.036-8.085 13.249-14.426 23.738-16.068 5.087-.796 10.016.043 14.842 1.13 11.659 2.628 22.492 1.238 32.45-5.564 3.819-2.608 8.305-3.15 12.605-4.289 4.724-.795 7.798-.771 12 0 5.964 1.005 11.347 3.362 16.521 6.497 7.592 4.599 15.934 5.486 24.591 4.007.656-.112 1.322-.198 1.962-.373 17.208-4.709 30.642.641 40.932 15.007 5.582 7.793 13.51 12.147 22.778 14.224 3.412.765 6.762 1.767 10.018 3.068 11.746 4.692 17.877 13.759 18.911 25.959 1.055 12.447 4.207 23.89 12.262 33.662 3.594 4.359 5.379 9.419 6.027 14.951z"/><path fill="#FEFEFE" d="M161.42 216.521c-29.843-.572-59.24-5.637-85.834-21.644-20.885-12.57-36.603-29.602-41.951-53.997-6.776-30.911 3.748-56.335 27.122-76.736 18.968-16.555 41.768-25.091 66.197-29.206 34.694-5.844 68.933-4.035 102.135 8.552 19.665 7.455 36.798 18.65 49.404 35.803 21.925 29.834 19.558 69.047-5.772 96.689-17.878 19.51-40.842 29.779-66.113 35.67-14.646 3.415-29.529 4.662-45.188 4.869z"/><path fill="#002F5C" d="M243.38 171.55c-5.831 0-11.665-.094-17.493.041-2.811.066-4.515-.541-4.253-3.821.205-2.569-.727-5.723 3.659-5.407 4.447.32 4.949-1.771 3.804-5.568-3.944-13.08-3.862-13.104-17.341-13.104-2.499 0-5.003-.1-7.496.024-3.617.18-8.607-1.676-10.548.698-3.111 3.805-4.537 9.127-6.138 13.985-1.231 3.734 1.793 4.211 4.4 3.91 4.276-.494 4.857 1.588 4.913 5.237.062 4.055-2.083 4.091-5.039 4.044-7.329-.115-14.662-.127-21.99.006-2.88.052-4.41-.724-4.252-3.902.134-2.686-.47-5.592 3.795-5.35 3.996.227 5.779-2.296 7.181-5.674 10.944-26.36 22.089-52.637 32.912-79.047 1.591-3.882 3.543-5.629 7.662-4.97 1.3.208 2.683.189 3.989.003 3.757-.537 5.467.961 6.739 4.666 9.045 26.352 18.429 52.588 27.564 78.909 1.345 3.874 3.062 6.438 7.655 6.244 3.836-.163 2.644 3.022 2.824 5.109.214 2.481-.47 4.1-3.555 4.017-6.327-.169-12.661-.05-18.992-.05zm-104.848-84.843c0 3.663-.058 7.327.023 10.989.045 2.063-.247 3.906-2.817 3.537-2.164-.311-5.257 1.658-6.237-2.149-.372-1.443-.68-2.904-1.075-4.34-2.267-8.257-6.782-12.477-14.221-13.321-8.614-.978-13.454 1.642-17.889 9.577-3.045 5.448-4.623 11.374-5.244 17.483-1.434 14.129-1.566 28.253 3.456 41.814 3.918 10.578 11.135 14.426 21.892 12.367 8.225-1.575 11.731-7.311 13.313-14.876.473-2.263.346-4.897 4.178-4.971 4.154-.08 6.075.687 5.701 5.442-.469 5.957-.106 11.979-.115 17.973-.008 5.018-4.512 7.905-8.3 4.682-2.898-2.466-5.111-1.53-7.709-.853-11.196 2.922-22.443 3.675-33.285-.896-17.894-7.545-25.562-22.515-27.465-40.779-1.425-13.677.786-26.843 8.851-38.516 11.081-16.039 33.02-22.534 50.965-14.95 2.75 1.162 4.904 2.319 7.222-1.089 1.676-2.465 4.98-1.289 7.436-.875 2.208.372 1.212 2.754 1.277 4.264.139 3.156.043 6.323.043 9.487zm29.451 34.126c.95-1.707 1.673-3.19 2.565-4.564 1.336-2.057.947-5.818 3.242-6.322 3.82-.838 7.947-.29 11.944-.296.958-.001 1.718.445 1.25 1.5-.706 1.592-.689 3.836-2.862 4.326-6.431 1.452-7.229 8.107-10.886 12.088-1.526 1.661 2.344 2.481 3.991 3.508 1.537.958 5.029-1.557 4.715 2.237-.273 3.295-2.566 4.576-6.012 4.282-2.83-.241-5.807.009-8.238-1.521-1.99-1.253-3.309-.892-5.262.056-6.459 3.134-13.146 3.396-19.767.378-4.911-2.238-7.942-5.939-8.247-11.515-.331-6.057 2.848-10.418 7.78-12.932 3.726-1.9 3.795-3.438 2.27-6.884-2.384-5.385-.129-11.252 4.896-14.24 4.538-2.698 9.462-3.126 14.455-1.674 4.083 1.188 7.006 3.709 7.812 8.181.806 4.472-1.098 7.69-4.466 10.383-1.753 1.401-5.236 1.907-5.183 3.84.058 2.123 2.38 4.201 3.765 6.265.631.943 1.383 1.805 2.238 2.904z"/><path fill="#FEFEFE" d="M211.179 98.32c.974 2.785 1.635 4.471 2.157 6.198 3.095 10.254 6.157 20.517 9.312 31.047h-26.384c4.938-12.332 9.763-24.382 14.915-37.245z"/><path fill="#FDFDFD" d="M145.345 123.343c.15-.636.373-2.116.859-3.504.67-1.91 1.741-4.154 3.579-4.501 1.841-.347 2.416 2.286 3.503 3.614 1.89 2.308 3.368 4.968 5.347 7.187 2.663 2.986 1.346 4.45-1.61 5.75-5.974 2.628-11.597-1.053-11.678-8.546z"/><path fill="#FCFCFC" d="M162.674 98.023c-.6 3.756-1.834 7.508-5.061 7.611-2.908.092-3.322-3.884-3.486-6.56-.173-2.812.628-5.34 4.178-5.515 3.527-.174 3.537 2.679 4.369 4.464z"/></svg>