<?xml version="1.0" encoding="utf-8"?>
<!-- Generator: Adobe Illustrator 18.0.0, SVG Export Plug-In . SVG Version: 6.00 Build 0)  -->
<!DOCTYPE svg PUBLIC "-//W3C//DTD SVG 1.1//EN" "http://www.w3.org/Graphics/SVG/1.1/DTD/svg11.dtd">
<svg version="1.1" xmlns="http://www.w3.org/2000/svg" xmlns:xlink="http://www.w3.org/1999/xlink" x="0px" y="0px"
	 viewBox="0 0 300 300" enable-background="new 0 0 300 300" xml:space="preserve" width="300" height="300">
<g id="Ebene_1" display="none">
	<rect display="inline" fill="#C12525" width="300" height="300"/>
</g>
<g id="Ebene_2" display="none">
	<path display="inline" opacity="0.1" fill="#FFFFFF" d="M259.1,200.8c0,5.4-3.9,12-8.7,14.7l-92.6,51.7c-4.8,2.7-12.6,2.7-17.4,0
		l-92.6-51.7c-4.8-2.7-8.7-9.3-8.7-14.7V97.6c0-5.4,3.9-12,8.7-14.7l92.6-51.7c4.8-2.7,12.6-2.7,17.4,0l92.6,51.7
		c4.8,2.7,8.7,9.3,8.7,14.7V200.8z"/>
	<g display="inline" opacity="0.25">
		<path fill="#FFFFFF" d="M149.1,30.2c3.1,0,6,0.7,8.2,1.9l92.6,51.7c4.4,2.5,8.2,8.8,8.2,13.8v103.2c0,5-3.7,11.3-8.2,13.8
			l-92.6,51.7c-2.2,1.2-5.1,1.9-8.2,1.9s-6-0.7-8.2-1.9l-92.6-51.7c-4.4-2.5-8.2-8.8-8.2-13.8V97.6c0-5,3.7-11.3,8.2-13.8l92.6-51.7
			C143,30.8,145.9,30.2,149.1,30.2 M149.1,29.2c-3.2,0-6.3,0.7-8.7,2L47.8,82.9c-4.8,2.7-8.7,9.3-8.7,14.7v103.2
			c0,5.4,3.9,12,8.7,14.7l92.6,51.7c2.4,1.3,5.5,2,8.7,2s6.3-0.7,8.7-2l92.6-51.7c4.8-2.7,8.7-9.3,8.7-14.7V97.6
			c0-5.4-3.9-12-8.7-14.7l-92.6-51.7C155.4,29.8,152.2,29.2,149.1,29.2L149.1,29.2z"/>
	</g>
	<path display="inline" fill="none" stroke="#FFFFFF" stroke-miterlimit="10" d="M97.8,105.4h102.7V170H97.8L97.8,105.4z M208,179.5
		c0,3.1-2.5,5.8-5.8,5.8h-36v9.4l7.7,7.7v1.9h-49.4v-1.9l7.7-7.7v-9.4H95.9c-3.1,0-5.8-2.5-5.8-5.8v-76c0-3.1,2.5-5.8,5.8-5.8h106.3
		c3.1,0,5.8,2.5,5.8,5.8V179.5z"/>
</g>
<g id="Ebene_4" display="none">
	<path display="inline" opacity="0.1" fill="#FFFFFF" d="M259.1,200.8c0,5.4-3.9,12-8.7,14.7l-92.6,51.7c-4.8,2.7-12.6,2.7-17.4,0
		l-92.6-51.7c-4.8-2.7-8.7-9.3-8.7-14.7V97.6c0-5.4,3.9-12,8.7-14.7l92.6-51.7c4.8-2.7,12.6-2.7,17.4,0l92.6,51.7
		c4.8,2.7,8.7,9.3,8.7,14.7V200.8z"/>
	<g display="inline" opacity="0.25">
		<path fill="#FFFFFF" d="M149.1,30.2c3.1,0,6,0.7,8.2,1.9l92.6,51.7c4.4,2.5,8.2,8.8,8.2,13.8v103.2c0,5-3.7,11.3-8.2,13.8
			l-92.6,51.7c-2.2,1.2-5.1,1.9-8.2,1.9s-6-0.7-8.2-1.9l-92.6-51.7c-4.4-2.5-8.2-8.8-8.2-13.8V97.6c0-5,3.7-11.3,8.2-13.8l92.6-51.7
			C143,30.8,146,30.2,149.1,30.2 M149.1,29.2c-3.2,0-6.3,0.7-8.7,2L47.8,82.9c-4.8,2.7-8.7,9.3-8.7,14.7v103.2
			c0,5.4,3.9,12,8.7,14.7l92.6,51.7c2.4,1.3,5.5,2,8.7,2s6.3-0.7,8.7-2l92.6-51.7c4.8-2.7,8.7-9.3,8.7-14.7V97.6
			c0-5.4-3.9-12-8.7-14.7l-92.6-51.7C155.4,29.8,152.2,29.2,149.1,29.2L149.1,29.2z"/>
	</g>
	<g id="Ebene_1_1_" display="inline">
		<path fill="none" stroke="#FFFFFF" stroke-miterlimit="10" d="M172.5,137.5v-18.2c0-12.9-10.5-23.4-23.4-23.4
			c-12.9,0-23.4,10.5-23.4,23.4v18.3"/>
		<path fill="none" stroke="#FFFFFF" stroke-miterlimit="10" d="M114,137.6v-18.3c0-19.3,15.8-35.1,35.1-35.1s35.1,15.8,35.1,35.1
			v18.2"/>
		<path fill="none" stroke="#FFFFFF" stroke-miterlimit="10" d="M194,137.6h-9.8H114h-9.8c-3.3,0-5.9,2.7-5.9,5.9v50.7
			c0,3.3,2.7,5.9,5.9,5.9h89.6c3.3,0,5.9-2.7,5.9-5.9h0.2v-50.7C200,140.3,197.3,137.6,194,137.6z M155.2,171v11.3
			c0,3.3-2.7,5.9-5.9,5.9s-5.9-2.7-5.9-5.9V171c-3.5-2.1-5.9-5.7-5.9-10.1c0-6.4,5.3-11.7,11.7-11.7c6.4,0,11.7,5.3,12.1,11.7
			C161.2,165.3,158.7,169,155.2,171z"/>
	</g>
</g>
<g id="Ebene_5" display="none">
	<path display="inline" opacity="0.1" fill="#FFFFFF" d="M259.2,200.8c0,5.4-3.9,12-8.7,14.7l-92.6,51.7c-4.8,2.7-12.6,2.7-17.4,0
		l-92.6-51.7c-4.8-2.7-8.7-9.3-8.7-14.7V97.6c0-5.4,3.9-12,8.7-14.7l92.6-51.7c4.8-2.7,12.6-2.7,17.4,0l92.6,51.7
		c4.8,2.7,8.7,9.3,8.7,14.7V200.8z"/>
	<g display="inline" opacity="0.25">
		<path fill="#FFFFFF" d="M149.2,30.2c3.1,0,6,0.7,8.2,1.9L250,83.8c4.4,2.5,8.2,8.8,8.2,13.8v103.2c0,5-3.7,11.3-8.2,13.8
			l-92.6,51.7c-2.2,1.2-5.1,1.9-8.2,1.9c-3.1,0-6-0.7-8.2-1.9l-92.6-51.7c-4.4-2.5-8.2-8.8-8.2-13.8V97.6c0-5,3.7-11.3,8.2-13.8
			L141,32.1C143.2,30.8,146.1,30.2,149.2,30.2 M149.2,29.2c-3.2,0-6.3,0.7-8.7,2L47.9,82.9c-4.8,2.7-8.7,9.3-8.7,14.7v103.2
			c0,5.4,3.9,12,8.7,14.7l92.6,51.7c2.4,1.3,5.5,2,8.7,2s6.3-0.7,8.7-2l92.6-51.7c4.8-2.7,8.7-9.3,8.7-14.7V97.6
			c0-5.4-3.9-12-8.7-14.7l-92.6-51.7C155.5,29.8,152.4,29.2,149.2,29.2L149.2,29.2z"/>
	</g>
	<g display="inline">
		<path fill="none" stroke="#FFFFFF" stroke-linecap="round" stroke-linejoin="round" stroke-miterlimit="10" d="M100.6,158.1
			l0,28.4h102.8c3,0,5.6,2.4,5.6,5.6c0,3-2.4,5.6-5.6,5.6H95c-3,0-5.6-2.4-5.6-5.6V92.5c0-3,2.4-5.6,5.6-5.6c3,0,5.6,2.4,5.6,5.6
			l0,52.5l23.5-15.9c0.8-0.4,1.8-0.8,2.8-0.8c1.2,0,2.2,0.4,3,1l24.9,16.5l45.4-31.5c1-0.6,2-1,3.2-1c3,0,5.6,2.4,5.6,5.6
			c0.2,1.8-0.8,3.6-2.2,4.6l0,0L158.2,157c-1,0.6-2,1-3.2,1c-1.2,0-2.2-0.4-3-1l-25.1-16.7L100.6,158.1z"/>
	</g>
</g>
<g id="Ebene_6" display="none">
	<path display="inline" opacity="0.1" fill="#FFFFFF" d="M259.2,200.8c0,5.4-3.9,12-8.7,14.7l-92.6,51.7c-4.8,2.7-12.6,2.7-17.4,0
		l-92.6-51.7c-4.8-2.7-8.7-9.3-8.7-14.7V97.6c0-5.4,3.9-12,8.7-14.7l92.6-51.7c4.8-2.7,12.6-2.7,17.4,0l92.6,51.7
		c4.8,2.7,8.7,9.3,8.7,14.7V200.8z"/>
	<g display="inline" opacity="0.25">
		<path fill="#FFFFFF" d="M149.2,30.2c3.1,0,6,0.7,8.2,1.9L250,83.8c4.4,2.5,8.2,8.8,8.2,13.8v103.2c0,5-3.7,11.3-8.2,13.8
			l-92.6,51.7c-2.2,1.2-5.1,1.9-8.2,1.9c-3.1,0-6-0.7-8.2-1.9l-92.6-51.7c-4.4-2.5-8.2-8.8-8.2-13.8V97.6c0-5,3.7-11.3,8.2-13.8
			L141,32.1C143.2,30.8,146.1,30.2,149.2,30.2 M149.2,29.2c-3.2,0-6.3,0.7-8.7,2L47.9,82.9c-4.8,2.7-8.7,9.3-8.7,14.7v103.2
			c0,5.4,3.9,12,8.7,14.7l92.6,51.7c2.4,1.3,5.5,2,8.7,2s6.3-0.7,8.7-2l92.6-51.7c4.8-2.7,8.7-9.3,8.7-14.7V97.6
			c0-5.4-3.9-12-8.7-14.7l-92.6-51.7C155.5,29.8,152.4,29.2,149.2,29.2L149.2,29.2z"/>
	</g>
	<path display="inline" fill="none" stroke="#FFFFFF" stroke-miterlimit="10" d="M207.9,177.7c0,3.1-2.5,5.6-5.6,5.6h-36v9.5
		l7.6,7.6v1.9h-49.2v-1.9l7.6-7.6v-9.5h-36c-3.1,0-5.6-2.5-5.6-5.6v-75.9c0-3.1,2.5-5.6,5.6-5.6h106.2c3.1,0,5.6,2.5,5.6,5.6
		L207.9,177.7L207.9,177.7z"/>
	<g id="Ebene_2_1_" display="inline">
		<rect x="98" y="103.5" fill="none" stroke="#FFFFFF" stroke-miterlimit="10" width="102.5" height="64.7"/>
	</g>
	<path display="inline" fill="none" stroke="#FFFFFF" stroke-miterlimit="10" d="M137.9,130.2c1.5,0,2.9,0.6,4.1,1.7l3.5,3.5
		l11.2-11.2c1-1,2.5-1.7,4.1-1.7c3.1,0,5.6,2.5,5.6,5.6c0,1.5-0.6,2.9-1.7,4.1l-15.1,15.1c-1,1.4-2.3,1.9-4.1,1.9
		c-1.5,0-2.9-0.6-4.1-1.7l-7.6-7.6c-1-1-1.7-2.5-1.7-4.1C132.3,132.7,134.8,130.2,137.9,130.2z"/>
</g>
<g id="Ebene_7" display="none">
	<path display="inline" opacity="0.1" fill="#FFFFFF" d="M259.2,200.8c0,5.4-3.9,12-8.7,14.7l-92.6,51.7c-4.8,2.7-12.6,2.7-17.4,0
		l-92.6-51.7c-4.8-2.7-8.7-9.3-8.7-14.7V97.6c0-5.4,3.9-12,8.7-14.7l92.6-51.7c4.8-2.7,12.6-2.7,17.4,0l92.6,51.7
		c4.8,2.7,8.7,9.3,8.7,14.7V200.8z"/>
	<g display="inline" opacity="0.25">
		<path fill="#FFFFFF" d="M149.2,30.2c3.1,0,6,0.7,8.2,1.9L250,83.8c4.4,2.5,8.2,8.8,8.2,13.8v103.2c0,5-3.7,11.3-8.2,13.8
			l-92.6,51.7c-2.2,1.2-5.1,1.9-8.2,1.9s-6-0.7-8.2-1.9l-92.6-51.7c-4.4-2.5-8.2-8.8-8.2-13.8V97.6c0-5,3.7-11.3,8.2-13.8L141,32.1
			C143.2,30.8,146.1,30.2,149.2,30.2 M149.2,29.2c-3.2,0-6.3,0.7-8.7,2L47.9,82.9c-4.8,2.7-8.7,9.3-8.7,14.7v103.2
			c0,5.4,3.9,12,8.7,14.7l92.6,51.7c2.4,1.3,5.5,2,8.7,2s6.3-0.7,8.7-2l92.6-51.7c4.8-2.7,8.7-9.3,8.7-14.7V97.6
			c0-5.4-3.9-12-8.7-14.7l-92.6-51.7C155.5,29.8,152.4,29.2,149.2,29.2L149.2,29.2z"/>
	</g>
	<g display="inline">
		<path fill="none" stroke="#FFFFFF" stroke-miterlimit="10" d="M215,153.6l-25.4,25.4c-1.1,1.1-2.6,1.7-4.3,1.7
			c-3.5,0-6.3-2.8-6.3-6.3c0-1.7,0.7-3.3,1.7-4.3l20.9-20.9l-20.9-20.9c-1.1-1.1-2-2.8-2-4.6c0-3.5,2.8-6.3,6.3-6.3
			c1.7,0,3.5,0.7,4.6,2l25,25c1.3,1.1,2.2,2.8,2.2,4.8C216.9,151,216.1,152.6,215,153.6L215,153.6z"/>
		<path fill="none" stroke="#FFFFFF" stroke-miterlimit="10" d="M172.2,107.1l-33.7,88.5c-0.9,2.4-3.3,4.1-5.9,4.1
			c-3.5,0-6.3-2.8-6.3-6.3c0-0.9,0.2-1.5,0.4-2.2l33.5-88.5c0.9-2.4,3.3-4.1,5.9-4.1c3.5,0,6.3,2.8,6.3,6.3
			C172.6,105.6,172.4,106.5,172.2,107.1L172.2,107.1z"/>
		<path fill="none" stroke="#FFFFFF" stroke-miterlimit="10" d="M117.8,128.4l-20.7,20.9l20.9,20.9c1.1,1.1,1.7,2.6,1.7,4.3
			c0,3.5-2.8,6.3-6.3,6.3c-1.7,0-3.3-0.7-4.3-1.7l-25.4-25.4c-1.1-1.1-2-2.8-2-4.6c0-2,0.9-3.7,2.2-4.8l25-25c1.1-1.1,2.8-2,4.6-2
			c3.5,0,6.3,2.8,6.3,6.3C119.8,125.6,119.1,127.3,117.8,128.4z"/>
	</g>
</g>
<g id="Ebene_3">
	<path opacity="0.1" fill="#FFFFFF" d="M259.2,200.8c0,5.4-3.9,12-8.7,14.7l-92.6,51.7c-4.8,2.7-12.6,2.7-17.4,0l-92.6-51.7
		c-4.8-2.7-8.7-9.3-8.7-14.7V97.6c0-5.4,3.9-12,8.7-14.7l92.6-51.7c4.8-2.7,12.6-2.7,17.4,0l92.6,51.7c4.8,2.7,8.7,9.3,8.7,14.7
		V200.8z"/>
	<g opacity="0.25">
		<path fill="#FFFFFF" d="M149.2,30.2c3.1,0,6,0.7,8.2,1.9L250,83.8c4.4,2.5,8.2,8.8,8.2,13.8v103.2c0,5-3.7,11.3-8.2,13.8
			l-92.6,51.7c-2.2,1.2-5.1,1.9-8.2,1.9s-6-0.7-8.2-1.9l-92.6-51.7c-4.4-2.5-8.2-8.8-8.2-13.8V97.6c0-5,3.7-11.3,8.2-13.8L141,32.1
			C143.1,30.8,146,30.2,149.2,30.2 M149.2,29.2c-3.2,0-6.3,0.7-8.7,2L47.9,82.9c-4.8,2.7-8.7,9.3-8.7,14.7v103.2
			c0,5.4,3.9,12,8.7,14.7l92.6,51.7c2.4,1.3,5.5,2,8.7,2s6.3-0.7,8.7-2l92.6-51.7c4.8-2.7,8.7-9.3,8.7-14.7V97.6
			c0-5.4-3.9-12-8.7-14.7l-92.6-51.7C155.5,29.8,152.3,29.2,149.2,29.2L149.2,29.2z"/>
	</g>
	<path fill="none" stroke="#FFFFFF" stroke-miterlimit="10" d="M146.2,195.4c-4.2,0-8.4-0.8-12.6-1.7
		c-16.8,20.1-41.9,16.8-41.9,16.8c17.6-8.4,17.6-22.6,14.2-24.3c-14.2-8.4-22.6-20.9-22.6-35.2c0-20.9,20.1-39.4,47.8-44.4
		c-0.8,2.5-1.7,6.7-1.7,10.9c0.8,18.4,16.8,33.5,41.9,35.2c2.5,0,5.9-0.8,8.4-0.8h0.8c6.7,7.5,15.9,9.2,20.9,9.2
		C196.5,180.3,176.4,195.4,146.2,195.4L146.2,195.4z M209.9,154.4c0,0-16.8,2.5-27.6-10.9c-2.5,0-5.9,0.8-8.4,0.8
		c-22.6,0-36.9-13.4-36.9-30.2S151.3,84,173.9,84s41.1,13.4,41.1,30.2c0,9.2-5.9,17.6-15.1,23.5
		C198.2,139.3,197.3,148.5,209.9,154.4L209.9,154.4z"/>
</g>
</svg>
