<?xml version="1.0" encoding="utf-8"?>
<!-- Generator: Adobe Illustrator 18.0.0, SVG Export Plug-In . SVG Version: 6.00 Build 0)  -->
<!DOCTYPE svg PUBLIC "-//W3C//DTD SVG 1.1//EN" "http://www.w3.org/Graphics/SVG/1.1/DTD/svg11.dtd">
<svg version="1.1" xmlns="http://www.w3.org/2000/svg" xmlns:xlink="http://www.w3.org/1999/xlink" x="0px" y="0px"
	 viewBox="-690 -280 1600 800" enable-background="new -690 -280 1600 800" xml:space="preserve">
<g id="Ebene_1">
	<path opacity="0.4" fill="#006666" enable-background="new    " d="M-143.3,98.5c-4.4,0-8.3,0.8-11.9,2.8l-125.1,68.1
		c-6.3,3.6-11.9,12.3-11.9,19.4v136.2c0,7.1,5.1,15.8,11.9,19.4l125.1,68.1c3.2,1.6,7.5,2.8,11.9,2.8c4.4,0,8.3-0.8,11.9-2.8
		l125.1-68.1c6.3-3.6,11.9-12.3,11.9-19.4V188.8c0-7.1-5.1-15.8-11.9-19.4l-125.5-68.5C-135,99.3-138.9,98.5-143.3,98.5L-143.3,98.5
		z"/>
	<path opacity="0.5" fill="#006666" enable-background="new    " d="M193.3,98.5c-4.4,0-8.3,0.8-11.9,2.8L56.3,169.4
		c-6.3,3.6-11.9,12.3-11.9,19.4v136.2c0,7.1,5.1,15.8,11.9,19.4l125.1,68.1c3.2,1.6,7.5,2.8,11.9,2.8c4.4,0,8.3-0.8,11.9-2.8
		l125.1-68.1c6.3-3.6,11.9-12.3,11.9-19.4V188.8c0-7.1-5.1-15.8-11.9-19.4l-125.5-68.5C201.6,99.3,197.7,98.5,193.3,98.5L193.3,98.5
		z"/>
	<path opacity="0.25" fill="#FFFFFF" enable-background="new    " d="M528.3,98.5c-4.4,0-8.3,0.8-11.9,2.8l-125.1,68.1
		c-6.3,3.6-11.9,12.3-11.9,19.4v136.2c0,7.1,5.1,15.8,11.9,19.4l125.1,68.1c3.2,1.6,7.5,2.8,11.9,2.8c4.4,0,8.3-0.8,11.9-2.8
		l125.1-68.1c6.3-3.6,11.9-12.3,11.9-19.4V188.8c0-7.1-5.1-15.8-11.9-19.4l-125.5-68.5C536.7,99.3,532.7,98.5,528.3,98.5L528.3,98.5
		z"/>
	<path opacity="0.25" fill="#FFFFFF" enable-background="new    " d="M-477.5,98.5c-4.4,0-8.3,0.8-11.9,2.8l-125.1,68.1
		c-6.3,3.6-11.9,12.3-11.9,19.4v136.2c0,7.1,5.1,15.8,11.9,19.4l125.1,68.1c3.2,1.6,7.5,2.8,11.9,2.8c4.4,0,8.3-0.8,11.9-2.8
		l125.1-68.1c6.3-3.6,11.9-12.3,11.9-19.4V188.8c0-7.1-5.1-15.8-11.9-19.4L-466,100.9C-469.2,99.3-473.1,98.5-477.5,98.5
		L-477.5,98.5z"/>
	<path opacity="0.4" fill="#006666" enable-background="new    " d="M25-174.3c-4.4,0-8.3,0.8-11.9,2.8L-112-103.4
		c-6.3,3.6-11.9,12.3-11.9,19.4V52.2c0,7.1,5.1,15.8,11.9,19.4l125.1,68.1c3.2,1.6,7.5,2.8,11.9,2.8s8.3-0.8,11.9-2.8L162,71.6
		c6.3-3.6,11.9-12.3,11.9-19.4V-84c0-7.1-5.1-15.8-11.9-19.4L36.5-171.5C33.3-173.5,29.4-174.3,25-174.3L25-174.3z"/>
	<path opacity="0.25" fill="#FFFFFF" enable-background="new    " d="M-312-174.3c-4.4,0-8.3,0.8-11.9,2.8l-124.7,68.1
		c-6.3,3.6-11.9,12.3-11.9,19.4V52.2c0,7.1,5.1,15.8,11.9,19.4l124.7,68.5c3.2,1.6,7.5,2.8,11.9,2.8s8.3-0.8,11.9-2.8L-175,72
		c6.3-3.6,11.9-12.3,11.9-19.4V-84c0-7.1-5.1-15.8-11.9-19.4l-125.1-68.1C-303.7-173.5-307.6-174.3-312-174.3L-312-174.3z"/>
	<path opacity="0.5" fill="#006666" enable-background="new    " d="M361.6-174.3c-4.4,0-8.3,0.8-11.9,2.8l-125.1,68.1
		c-6.3,3.6-11.9,12.3-11.9,19.4V52.2c0,7.1,5.1,15.8,11.9,19.4l125.1,68.1c3.2,1.6,7.5,2.8,11.9,2.8s8.3-0.8,11.9-2.8l125.1-68.1
		c6.3-3.6,11.9-12.3,11.9-19.4V-84c0-7.1-5.1-15.8-11.9-19.4l-125.5-68.1C369.9-173.5,366-174.3,361.6-174.3L361.6-174.3z"/>
	<path opacity="0.25" fill="#FFFFFF" enable-background="new    " d="M698.2-174.3c-4.4,0-8.3,0.8-11.9,2.8l-125.1,68.1
		c-6.3,3.6-11.9,12.3-11.9,19.4V52.2c0,7.1,5.1,15.8,11.9,19.4l125.1,68.1c3.2,1.6,7.5,2.8,11.9,2.8c4.4,0,8.3-0.8,11.9-2.8
		l125.1-68.1c6.3-3.6,11.9-12.3,11.9-19.4V-84c0-7.1-5.1-15.8-11.9-19.4l-125.5-68.1C706.5-173.5,702.6-174.3,698.2-174.3
		L698.2-174.3z"/>
</g>
<g id="Ebene_3">
	<path fill="none" stroke="#FFFFFF" stroke-linecap="round" stroke-linejoin="round" stroke-miterlimit="10" d="M-3.4,53.4
		c0,0-1.5,14.1-2,16.1c-0.5,2-15.2,3.1-9.8,3.9c4.1,0.6,39.4,0.7,39.7,0.7l0,0c0,0,0,0,0,0h0l0,0c0.4,0,35.6-0.1,39.7-0.7
		c5.3-0.8-9.3-1.9-9.8-3.9c-0.5-2-2-16.1-2-16.1"/>
	<circle fill="none" stroke="#FFFFFF" stroke-miterlimit="10" cx="361.6" cy="18.3" r="2.7"/>
	<circle fill="none" stroke="#FFFFFF" stroke-miterlimit="10" cx="193.3" cy="320.7" r="2.7"/>
	<g>
		<path fill="#FFFFFF" d="M364.7-58C364.7-58,364.8-58,364.7-58l0.1,1.2c0,0,0,0.1-0.1,0.1h-6.1c0,0-0.1,0-0.1-0.1v-1.1
			c0,0,0-0.1,0.1-0.1H364.7 M364.7-59h-6.1c-0.6,0-1.1,0.5-1.1,1.1v1.1c0,0.6,0.5,1.1,1.1,1.1h6.1c0.6,0,1.1-0.5,1.1-1.1v-1.1
			C365.8-58.5,365.3-59,364.7-59L364.7-59z"/>
	</g>
	<rect x="344.3" y="-53.1" opacity="0.25" fill="#FFFFFF" width="34.6" height="65.7"/>
	<rect x="152.9" y="193.9" opacity="0.25" fill="#FFFFFF" width="80.9" height="121"/>
	<rect x="-70.3" y="-74.4" opacity="0.25" fill="#FFFFFF" width="189.7" height="114.2"/>
	<rect x="-220.5" y="210" opacity="0.25" fill="#FFFFFF" width="154.1" height="87"/>
	
		<rect x="344.3" y="-53.1" fill="none" stroke="#FFFFFF" stroke-linecap="round" stroke-linejoin="round" stroke-miterlimit="10" width="34.6" height="65.7"/>
	
		<rect x="152.9" y="193.9" fill="none" stroke="#FFFFFF" stroke-linecap="round" stroke-linejoin="round" stroke-miterlimit="10" width="80.9" height="121"/>
	
		<rect x="-70.3" y="-74.4" fill="none" stroke="#FFFFFF" stroke-linecap="round" stroke-linejoin="round" stroke-miterlimit="10" width="189.7" height="114.2"/>
	
		<rect x="-220.5" y="210" fill="none" stroke="#FFFFFF" stroke-linecap="round" stroke-linejoin="round" stroke-miterlimit="10" width="154.1" height="87"/>
	<path fill="none" stroke="#FFFFFF" stroke-linecap="round" stroke-linejoin="round" stroke-miterlimit="10" d="M-226.7,302.1v-90.6
		c0-4,3.2-7.2,7.2-7.2h152.3c4,0,7.2,3.2,7.2,7.2v90.6"/>
	<path fill="none" stroke="#FFFFFF" stroke-linecap="round" stroke-linejoin="round" stroke-miterlimit="10" d="M-41.4,306.3
		L-41.4,306.3c0,0-1.5,3.3-3.3,3.3H-242c-1.8,0-3.3-3.3-3.3-3.3l0,0"/>
	
		<rect x="-245.8" y="302.1" fill="none" stroke="#FFFFFF" stroke-linecap="round" stroke-linejoin="round" stroke-miterlimit="10" width="204.9" height="4.3"/>
	<path fill="none" stroke="#FFFFFF" stroke-miterlimit="10" d="M377.6,24h-31.9c-2.8,0-5-2.2-5-5v-76.5c0-2.8,2.2-5,5-5h31.9
		c2.8,0,5,2.2,5,5V19C382.6,21.8,380.3,24,377.6,24z"/>
	<path fill="none" stroke="#FFFFFF" stroke-miterlimit="10" d="M234.1,327.1h-82.6c-2.8,0-5-2.2-5-5V191.5c0-2.8,2.2-5,5-5h82.6
		c2.8,0,5,2.2,5,5v130.6C239.1,324.9,236.9,327.1,234.1,327.1z"/>
	<path fill="none" stroke="#FFFFFF" stroke-miterlimit="10" d="M124,52.9H-75c-1.7,0-3-1.3-3-3V-78.3c0-1.7,1.3-3,3-3H124
		c1.7,0,3,1.3,3,3V49.9C127,51.6,125.6,52.9,124,52.9z"/>
</g>
<g id="Ebene_4">
	<path fill-rule="evenodd" clip-rule="evenodd" fill="#575757" d="M216.3,247.5l-24.4,24.4c-0.6,0.6-1.6,0.6-2.2,0l-0.5-0.5l0,0
		l-0.5-0.5l-2.3-2.3c0,0,0,0,0-0.1l-10.5-10.6c-0.6-0.6-0.6-1.6,0-2.2l3.3-3.3c0.6-0.6,1.6-0.6,2.2,0l9.5,9.5l19.9-19.9
		c0.6-0.6,1.6-0.6,2.2,0l3.3,3.3C216.9,245.9,216.9,246.9,216.3,247.5z"/>
	<path fill-rule="evenodd" clip-rule="evenodd" fill="#575757" d="M-120.5,243.9l-29.1,29.1c-0.7,0.7-1.9,0.7-2.6,0l-0.6-0.6l0,0
		l-0.6-0.6l-2.7-2.7c0,0,0,0,0-0.1l-12.6-12.7c-0.7-0.7-0.7-1.9,0-2.6l4-4c0.7-0.7,1.9-0.7,2.6,0l11.3,11.4l23.8-23.8
		c0.7-0.7,1.9-0.7,2.6,0l4,4C-119.8,242-119.8,243.1-120.5,243.9z"/>
	<path fill-rule="evenodd" clip-rule="evenodd" fill="#575757" d="M63.7-34L16.5,13.3c-1.2,1.2-3.1,1.2-4.3,0l-1-1l0,0l-1-1L5.8,6.8
		c0,0,0-0.1-0.1-0.1l-20.4-20.6c-1.2-1.2-1.2-3.1,0-4.3l6.4-6.4c1.2-1.2,3.1-1.2,4.3,0L14.4-6.1L53-44.7c1.2-1.2,3.1-1.2,4.3,0
		l6.4,6.4C64.9-37.1,64.9-35.1,63.7-34z"/>
	<path fill-rule="evenodd" clip-rule="evenodd" fill="#575757" d="M370.7-23.4l-10.9,10.9c-0.3,0.3-0.7,0.3-1,0l-0.2-0.2l0,0
		l-0.2-0.2l-1-1c0,0,0,0,0,0l-4.7-4.8c-0.3-0.3-0.3-0.7,0-1l1.5-1.5c0.3-0.3,0.7-0.3,1,0l4.3,4.3l8.9-8.9c0.3-0.3,0.7-0.3,1,0
		l1.5,1.5C371-24.2,371-23.7,370.7-23.4z"/>
</g>
</svg>
