<?xml version="1.0" encoding="utf-8"?>
<!-- Generator: Adobe Illustrator 18.0.0, SVG Export Plug-In . SVG Version: 6.00 Build 0)  -->
<!DOCTYPE svg PUBLIC "-//W3C//DTD SVG 1.1//EN" "http://www.w3.org/Graphics/SVG/1.1/DTD/svg11.dtd" [
	<!ENTITY st0 "opacity:0.4;fill:#006666;enable-background:new    ;">
	<!ENTITY st1 "opacity:0.5;fill:#006666;enable-background:new    ;">
	<!ENTITY st2 "opacity:0.25;fill:#FFFFFF;enable-background:new    ;">
	<!ENTITY st3 "opacity:0.25;fill:#FFFFFF;">
	<!ENTITY st4 "fill:#FFFFFF;">
	<!ENTITY st5 "fill-rule:evenodd;clip-rule:evenodd;fill:#575757;">
]>
<svg version="1.1" id="Ebene_1" xmlns="http://www.w3.org/2000/svg" xmlns:xlink="http://www.w3.org/1999/xlink" x="0px" y="0px"
	 viewBox="0 0 800 400" style="enable-background:new 0 0 800 400;" xml:space="preserve" width="800" height="400">
<path style="&st0;" d="M273.539,189.533c-2.178,0-4.158,0.396-5.94,1.386l-62.568,34.056c-3.168,1.782-5.94,6.138-5.94,9.702v68.112
	c0,3.564,2.574,7.92,5.94,9.702l62.568,34.056c1.584,0.792,3.762,1.386,5.94,1.386s4.158-0.396,5.94-1.386l62.568-34.056
	c3.168-1.782,5.94-6.138,5.94-9.702v-68.112c0-3.564-2.574-7.92-5.94-9.702l-62.766-34.254
	C277.696,189.93,275.716,189.533,273.539,189.533L273.539,189.533z"/>
<path style="&st1;" d="M441.839,189.533c-2.178,0-4.158,0.396-5.94,1.386l-62.568,34.056c-3.168,1.782-5.94,6.138-5.94,9.702v68.112
	c0,3.564,2.574,7.92,5.94,9.702l62.568,34.056c1.584,0.792,3.762,1.386,5.94,1.386s4.158-0.396,5.94-1.386l62.568-34.056
	c3.168-1.782,5.94-6.138,5.94-9.702v-68.112c0-3.564-2.574-7.92-5.94-9.702l-62.766-34.254
	C445.996,189.93,444.016,189.533,441.839,189.533L441.839,189.533z"/>
<path style="&st2;" d="M609.346,189.533c-2.178,0-4.158,0.396-5.94,1.386l-62.568,34.056c-3.168,1.782-5.94,6.138-5.94,9.702v68.112
	c0,3.564,2.574,7.92,5.94,9.702l62.568,34.056c1.584,0.792,3.762,1.386,5.94,1.386c2.178,0,4.158-0.396,5.94-1.386l62.568-34.056
	c3.168-1.782,5.94-6.138,5.94-9.702v-68.112c0-3.564-2.574-7.92-5.94-9.702l-62.766-34.254
	C613.504,189.93,611.524,189.533,609.346,189.533L609.346,189.533z"/>
<path style="&st2;" d="M106.426,189.533c-2.178,0-4.158,0.396-5.94,1.386l-62.568,34.056c-3.168,1.782-5.94,6.138-5.94,9.702v68.112
	c0,3.564,2.574,7.92,5.94,9.702l62.568,34.056c1.584,0.792,3.762,1.386,5.94,1.386c2.178,0,4.158-0.396,5.94-1.386l62.568-34.056
	c3.168-1.782,5.94-6.138,5.94-9.702v-68.112c0-3.564-2.574-7.92-5.94-9.702l-62.766-34.254
	C110.584,189.93,108.604,189.533,106.426,189.533L106.426,189.533z"/>
<path style="&st0;" d="M357.689,53.112c-2.178,0-4.158,0.396-5.94,1.386L289.18,88.553c-3.168,1.782-5.94,6.138-5.94,9.702v68.112
	c0,3.564,2.574,7.92,5.94,9.702l62.568,34.056c1.584,0.792,3.762,1.386,5.94,1.386s4.158-0.396,5.94-1.386l62.568-34.056
	c3.168-1.782,5.94-6.138,5.94-9.702V98.256c0-3.564-2.574-7.92-5.94-9.702L363.43,54.497
	C361.846,53.507,359.866,53.112,357.689,53.112L357.689,53.112z"/>
<path style="&st2;" d="M189.19,53.112c-2.178,0-4.158,0.396-5.94,1.386l-62.37,34.056c-3.168,1.782-5.94,6.138-5.94,9.702v68.112
	c0,3.564,2.574,7.92,5.94,9.702l62.37,34.254c1.584,0.792,3.762,1.386,5.94,1.386s4.158-0.396,5.94-1.386l62.568-34.056
	c3.168-1.782,5.94-6.138,5.94-9.702v-68.31c0-3.564-2.574-7.92-5.94-9.702L195.13,54.497
	C193.348,53.507,191.368,53.112,189.19,53.112L189.19,53.112z"/>
<path style="&st1;" d="M525.989,53.112c-2.178,0-4.158,0.396-5.94,1.386L457.48,88.553c-3.168,1.782-5.94,6.138-5.94,9.702v68.112
	c0,3.564,2.574,7.92,5.94,9.702l62.568,34.056c1.584,0.792,3.762,1.386,5.94,1.386c2.178,0,4.158-0.396,5.94-1.386l62.568-34.056
	c3.168-1.782,5.94-6.138,5.94-9.702V98.256c0-3.564-2.574-7.92-5.94-9.702L531.73,54.497
	C530.147,53.507,528.167,53.112,525.989,53.112L525.989,53.112z"/>
<path style="&st2;" d="M694.289,53.112c-2.178,0-4.158,0.396-5.94,1.386l-62.568,34.056c-3.168,1.782-5.94,6.138-5.94,9.702v68.112
	c0,3.564,2.574,7.92,5.94,9.702l62.568,34.056c1.584,0.792,3.762,1.386,5.94,1.386s4.158-0.396,5.94-1.386l62.568-34.056
	c3.168-1.782,5.94-6.138,5.94-9.702V98.256c0-3.564-2.574-7.92-5.94-9.702l-62.766-34.056
	C698.447,53.507,696.467,53.112,694.289,53.112L694.289,53.112z"/>
<rect x="517.336" y="113.708" style="&st3;" width="17.306" height="32.85"/>
<rect x="421.625" y="237.215" style="&st3;" width="40.428" height="60.516"/>
<rect x="310.017" y="103.077" style="&st3;" width="94.832" height="57.111"/>
<rect x="234.954" y="245.265" style="&st3;" width="77.069" height="43.497"/>
<g>
	<path style="&st4;" d="M312.023,245.015h-77.069c-0.138,0-0.25,0.112-0.25,0.25v43.497c0,0.138,0.112,0.25,0.25,0.25h77.069
		c0.138,0,0.25-0.112,0.25-0.25v-43.497C312.273,245.126,312.161,245.015,312.023,245.015z M311.773,288.511h-76.569v-42.997h76.569
		V288.511z"/>
	<path style="&st4;" d="M324.707,291.043h-9.299v-45.054c0-2.123-1.727-3.85-3.85-3.85h-76.141c-2.123,0-3.85,1.727-3.85,3.85
		v45.054h-9.299c-0.138,0-0.25,0.112-0.25,0.25v2.138c0,0.138,0.112,0.25,0.25,0.25h0.094c0.222,0.446,0.904,1.647,1.797,1.647
		h98.656c0.894,0,1.575-1.202,1.797-1.647h0.094c0.138,0,0.25-0.112,0.25-0.25v-2.138
		C324.957,291.155,324.845,291.043,324.707,291.043z M232.068,245.989c0-1.847,1.503-3.35,3.35-3.35h76.141
		c1.847,0,3.35,1.503,3.35,3.35v45.054h-82.841V245.989z M222.519,291.543h101.938v1.638H222.519V291.543z M322.816,294.828H224.16
		c-0.467,0-0.951-0.666-1.228-1.147h101.112C323.769,294.162,323.285,294.828,322.816,294.828z"/>
</g>
<g>
	<path style="&st4;" d="M525.989,147.557c-1.02,0-1.85,0.83-1.85,1.85c0,1.02,0.83,1.85,1.85,1.85s1.85-0.83,1.85-1.85
		C527.839,148.387,527.009,147.557,525.989,147.557z M525.989,150.757c-0.746,0-1.35-0.604-1.35-1.35c0-0.746,0.604-1.35,1.35-1.35
		s1.35,0.604,1.35,1.35C527.339,150.152,526.734,150.757,525.989,150.757z"/>
	<path style="&st4;" d="M524.459,112.414h3.059c0.301,0,0.545-0.245,0.545-0.545v-0.564c0-0.301-0.245-0.545-0.545-0.545h-3.059
		c-0.301,0-0.545,0.245-0.545,0.545v0.564C523.914,112.17,524.158,112.414,524.459,112.414z M524.414,111.305
		c0-0.025,0.02-0.045,0.045-0.045h3.059c0.025,0,0.045,0.02,0.045,0.045v0.564c0,0.025-0.02,0.045-0.045,0.045h-3.059
		c-0.025,0-0.045-0.02-0.045-0.045V111.305z"/>
	<path style="&st4;" d="M534.641,113.208h-17.306c-0.276,0-0.5,0.224-0.5,0.5v32.85c0,0.276,0.224,0.5,0.5,0.5h17.306
		c0.276,0,0.5-0.224,0.5-0.5v-32.85C535.141,113.431,534.917,113.208,534.641,113.208z M534.641,146.558h-17.306v-32.85h17.306
		V146.558z"/>
	<path style="&st4;" d="M533.964,108.543h-15.951c-1.654,0-3,1.346-3,3v38.229c0,1.654,1.346,3,3,3h15.951c1.654,0,3-1.346,3-3
		v-38.229C536.964,109.889,535.618,108.543,533.964,108.543z M536.464,149.772c0,1.375-1.125,2.5-2.5,2.5h-15.951
		c-1.375,0-2.5-1.125-2.5-2.5v-38.229c0-1.375,1.125-2.5,2.5-2.5h15.951c1.375,0,2.5,1.125,2.5,2.5V149.772z"/>
</g>
<g>
	<path style="&st4;" d="M441.838,299.023c-0.882,0-1.6,0.718-1.6,1.6c0,0.882,0.718,1.6,1.6,1.6s1.6-0.718,1.6-1.6
		C443.439,299.741,442.721,299.023,441.838,299.023z M441.838,301.723c-0.606,0-1.1-0.494-1.1-1.1s0.494-1.1,1.1-1.1
		s1.1,0.493,1.1,1.1S442.445,301.723,441.838,301.723z"/>
	<path style="&st4;" d="M462.052,236.965h-40.428c-0.138,0-0.25,0.112-0.25,0.25v60.516c0,0.138,0.112,0.25,0.25,0.25h40.428
		c0.138,0,0.25-0.112,0.25-0.25v-60.516C462.302,237.077,462.19,236.965,462.052,236.965z M461.802,297.481h-39.928v-60.016h39.928
		V297.481z"/>
	<path style="&st4;" d="M462.238,233.261h-41.3c-1.517,0-2.75,1.233-2.75,2.75v65.323c0,1.516,1.233,2.75,2.75,2.75h41.3
		c1.517,0,2.75-1.234,2.75-2.75v-65.323C464.988,234.494,463.755,233.261,462.238,233.261z M464.488,301.334
		c0,1.241-1.009,2.25-2.25,2.25h-41.3c-1.241,0-2.25-1.009-2.25-2.25v-65.323c0-1.241,1.009-2.25,2.25-2.25h41.3
		c1.241,0,2.25,1.009,2.25,2.25V301.334z"/>
</g>
<g>
	<path style="&st4;" d="M404.849,102.827h-94.832c-0.138,0-0.25,0.112-0.25,0.25v57.111c0,0.138,0.112,0.25,0.25,0.25h94.832
		c0.138,0,0.25-0.112,0.25-0.25v-57.111C405.099,102.939,404.987,102.827,404.849,102.827z M404.599,159.938h-94.332v-56.611h94.332
		V159.938z"/>
	<path style="&st4;" d="M407.165,99.358h-99.462c-0.965,0-1.75,0.785-1.75,1.75v64.12c0,0.965,0.785,1.75,1.75,1.75h35.538
		c-0.043,0.399-0.753,7.036-1.013,7.99c-0.121,0.363-2.318,0.812-3.375,1.029c-1.725,0.353-2.132,0.45-2.123,0.802
		c0.008,0.293,0.367,0.371,0.801,0.435c2.002,0.297,18.059,0.369,19.92,0.376c1.824-0.007,17.882-0.079,19.884-0.376
		c0.434-0.064,0.793-0.142,0.801-0.435c0.01-0.352-0.397-0.449-2.123-0.802c-1.056-0.216-3.253-0.666-3.374-1.028
		c-0.26-0.954-0.97-7.591-1.013-7.99h35.539c0.965,0,1.75-0.785,1.75-1.75v-64.12C408.915,100.143,408.129,99.358,407.165,99.358z
		 M372.157,175.099c0.166,0.609,1.595,0.944,3.757,1.387c0.412,0.084,0.881,0.18,1.237,0.268
		c-2.448,0.285-18.987,0.353-19.733,0.356c-0.714-0.003-17.252-0.071-19.701-0.356c0.356-0.087,0.825-0.183,1.237-0.268
		c2.162-0.442,3.591-0.778,3.757-1.387c0.277-1.017,0.999-7.801,1.03-8.09c0.001-0.011-0.003-0.021-0.003-0.031h27.393
		c0,0.011-0.004,0.021-0.003,0.031C371.157,167.298,371.88,174.082,372.157,175.099z M408.415,165.228c0,0.689-0.561,1.25-1.25,1.25
		h-99.462c-0.689,0-1.25-0.561-1.25-1.25v-64.12c0-0.689,0.561-1.25,1.25-1.25h99.462c0.689,0,1.25,0.561,1.25,1.25V165.228z"/>
</g>
<path style="&st5;" d="M453.307,264.026l-12.183,12.183c-0.306,0.306-0.802,0.306-1.107,0l-0.246-0.246l-0.001,0.001l-0.266-0.268
	l-1.149-1.149c-0.007-0.008-0.01-0.018-0.017-0.025l-5.269-5.308c-0.306-0.306-0.306-0.802,0-1.108l1.661-1.661
	c0.306-0.306,0.802-0.306,1.108,0l4.739,4.773l9.962-9.961c0.306-0.306,0.802-0.306,1.107,0l1.661,1.661
	C453.613,263.225,453.613,263.721,453.307,264.026z"/>
<path style="&st5;" d="M284.913,262.2l-14.545,14.545c-0.365,0.365-0.957,0.365-1.322,0l-0.293-0.293l-0.001,0.001l-0.317-0.32
	l-1.372-1.372c-0.009-0.009-0.012-0.021-0.02-0.03l-6.291-6.337c-0.365-0.365-0.365-0.957,0-1.322l1.983-1.983
	c0.365-0.365,0.957-0.365,1.322,0l5.657,5.699l11.893-11.893c0.365-0.365,0.957-0.365,1.322,0l1.983,1.983
	C285.278,261.243,285.278,261.835,284.913,262.2z"/>
<path style="&st5;" d="M377.051,123.285l-23.619,23.619c-0.593,0.593-1.554,0.593-2.147,0l-0.477-0.476l-0.002,0.002l-0.515-0.519
	l-2.227-2.227c-0.014-0.015-0.019-0.034-0.033-0.049l-10.215-10.29c-0.593-0.593-0.593-1.554,0-2.147l3.221-3.221
	c0.593-0.593,1.554-0.593,2.147,0l9.187,9.254l19.312-19.312c0.593-0.593,1.554-0.593,2.147,0l3.221,3.221
	C377.644,121.731,377.644,122.692,377.051,123.285z"/>
<path style="&st5;" d="M530.529,128.545l-5.467,5.467c-0.137,0.137-0.36,0.137-0.497,0l-0.11-0.11l0,0l-0.119-0.12l-0.516-0.516
	c-0.003-0.003-0.004-0.008-0.008-0.011l-2.365-2.382c-0.137-0.137-0.137-0.36,0-0.497l0.746-0.746c0.137-0.137,0.36-0.137,0.497,0
	l2.127,2.142l4.47-4.47c0.137-0.137,0.36-0.137,0.497,0l0.746,0.746C530.667,128.186,530.667,128.408,530.529,128.545z"/>
</svg>
