<?xml version="1.0" encoding="utf-8"?>
<!-- Generator: Adobe Illustrator 18.0.0, SVG Export Plug-In . SVG Version: 6.00 Build 0)  -->
<!DOCTYPE svg PUBLIC "-//W3C//DTD SVG 1.1//EN" "http://www.w3.org/Graphics/SVG/1.1/DTD/svg11.dtd">
<svg version="1.1" id="Ebene_1" xmlns="http://www.w3.org/2000/svg" xmlns:xlink="http://www.w3.org/1999/xlink" x="0px" y="0px"
	 viewBox="0 0 1920 810" width="1920" height="810" enable-background="new 0 0 1920 810" xml:space="preserve">
<path opacity="0.7" fill="#FFFFFF" enable-background="new    " d="M785.8,278.6c-3,0-5.7,0.5-8.1,1.9l-85.3,46.4
	c-4.3,2.4-8.1,8.4-8.1,13.2V433c0,4.9,3.5,10.8,8.1,13.2l85.3,46.4c2.2,1.1,5.1,1.9,8.1,1.9s5.7-0.5,8.1-1.9l85.3-46.4
	c4.3-2.4,8.1-8.4,8.1-13.2v-92.9c0-4.9-3.5-10.8-8.1-13.2l-85.6-46.7C791.5,279.1,788.8,278.6,785.8,278.6L785.8,278.6z"/>
<path opacity="0.55" fill="#FFFFFF" enable-background="new    " d="M1015.3,278.6c-3,0-5.7,0.5-8.1,1.9l-85.3,46.4
	c-4.3,2.4-8.1,8.4-8.1,13.2V433c0,4.9,3.5,10.8,8.1,13.2l85.3,46.4c2.2,1.1,5.1,1.9,8.1,1.9s5.7-0.5,8.1-1.9l85.3-46.4
	c4.3-2.4,8.1-8.4,8.1-13.2v-92.9c0-4.9-3.5-10.8-8.1-13.2l-85.6-46.7C1021,279.1,1018.3,278.6,1015.3,278.6L1015.3,278.6z"/>
<path opacity="0.1" fill="#FFFFFF" enable-background="new    " d="M1243.7,278.6c-3,0-5.7,0.5-8.1,1.9l-85.3,46.4
	c-4.3,2.4-8.1,8.4-8.1,13.2V433c0,4.9,3.5,10.8,8.1,13.2l85.3,46.4c2.2,1.1,5.1,1.9,8.1,1.9s5.7-0.5,8.1-1.9l85.3-46.4
	c4.3-2.4,8.1-8.4,8.1-13.2v-92.9c0-4.9-3.5-10.8-8.1-13.2l-85.6-46.7C1249.4,279.1,1246.7,278.6,1243.7,278.6L1243.7,278.6z
	 M557.9,278.6c-3,0-5.7,0.5-8.1,1.9l-85.3,46.4c-4.3,2.4-8.1,8.4-8.1,13.2V433c0,4.9,3.5,10.8,8.1,13.2l85.3,46.4
	c2.2,1.1,5.1,1.9,8.1,1.9s5.7-0.5,8.1-1.9l85.3-46.4c4.3-2.4,8.1-8.4,8.1-13.2v-92.9c0-4.9-3.5-10.8-8.1-13.2l-85.6-46.7
	C563.6,279.1,560.9,278.6,557.9,278.6L557.9,278.6z"/>
<path opacity="0.4" fill="#FFFFFF" enable-background="new    " d="M900.6,92.6c-3,0-5.7,0.5-8.1,1.9l-85.3,46.4
	c-4.3,2.4-8.1,8.4-8.1,13.2V247c0,4.9,3.5,10.8,8.1,13.2l85.3,46.4c2.2,1.1,5.1,1.9,8.1,1.9s5.7-0.5,8.1-1.9l85.3-46.4
	c4.3-2.4,8.1-8.4,8.1-13.2v-92.9c0-4.9-3.5-10.8-8.1-13.2l-85.6-46.4C906.2,93.1,903.5,92.6,900.6,92.6z"/>
<path opacity="0.1" fill="#FFFFFF" enable-background="new    " d="M670.8,92.6c-3,0-5.7,0.5-8.1,1.9l-85,46.4
	c-4.3,2.4-8.1,8.4-8.1,13.2V247c0,4.9,3.5,10.8,8.1,13.2l85,46.7c2.2,1.1,5.1,1.9,8.1,1.9s5.7-0.5,8.1-1.9l85.3-46.4
	c4.3-2.4,8.1-8.4,8.1-13.2v-93.1c0-4.9-3.5-10.8-8.1-13.2l-85.3-46.4C676.5,93.1,673.8,92.6,670.8,92.6z"/>
<path opacity="0.25" fill="#FFFFFF" enable-background="new    " d="M1130.1,92.6c-3,0-5.7,0.5-8.1,1.9l-85.3,46.4
	c-4.3,2.4-8.1,8.4-8.1,13.2V247c0,4.9,3.5,10.8,8.1,13.2l85.3,46.4c2.2,1.1,5.1,1.9,8.1,1.9s5.7-0.5,8.1-1.9l85.3-46.4
	c4.3-2.4,8.1-8.4,8.1-13.2v-92.9c0-4.9-3.5-10.8-8.1-13.2l-85.6-46.4C1135.7,93.1,1133,92.6,1130.1,92.6z"/>
<path opacity="0.1" fill="#FFFFFF" enable-background="new    " d="M1359.6,92.6c-3,0-5.7,0.5-8.1,1.9l-85.3,46.4
	c-4.3,2.4-8.1,8.4-8.1,13.2V247c0,4.9,3.5,10.8,8.1,13.2l85.3,46.4c2.2,1.1,5.1,1.9,8.1,1.9s5.7-0.5,8.1-1.9l85.3-46.4
	c4.3-2.4,8.1-8.4,8.1-13.2v-92.9c0-4.9-3.5-10.8-8.1-13.2l-85.6-46.4C1365.2,93.1,1362.5,92.6,1359.6,92.6z"/>
<path fill="#328890" d="M849.5,340.4H721.8c-2.2,0-4.1,1.9-4.1,4.1V426c0,2.2,1.9,4,4.1,4h48.3c0,1.6-0.3,4.1-0.5,6.2
	c-0.8,5.9-1.1,5.7-1.4,5.7c-0.5,0.3-1.9,0.5-3.2,0.5c-2.4,0.3-2.7,0.5-2.7,0.5v0.3c0,0,0,0.3,0.5,0.3c0,0,7.6,0.3,14.3,0.3h17.2
	c6.8,0,14.3,0,14.3-0.3c0.5,0,0.5,0,0.5-0.3V443c0-0.3-0.3-0.3-2.7-0.5c-1.4-0.3-2.7-0.5-3.2-0.5c0,0-0.5,0.3-1.4-5.7
	c-0.3-2.2-0.5-4.6-0.5-6.2h48.6c2.2,0,4-1.9,4-4v-81.5C853.6,342,852,340.4,849.5,340.4L849.5,340.4z M801.5,436
	c0.8,6.5,1.4,5.9,1.4,5.9c0.5,0.3,1.9,0.5,3.2,0.5c1.1,0.3,2.2,0.3,2.4,0.5v0.3c-0.5,0.3-5.4,0.3-14.3,0.3h-17.8
	c-8.9,0-13.8,0-14.3-0.3V443c0.3,0,1.3-0.3,2.4-0.5c1.3-0.3,3-0.5,3.2-0.5c0.3,0,0.8,0.5,1.3-5.9c0.3-2.2,0.5-4.6,0.5-6.2H800
	C800.9,431.4,801.2,433.8,801.5,436L801.5,436z M853.3,425.7c0,1.9-1.6,3.8-3.8,3.8H721.8c-1.9,0-3.8-1.6-3.8-3.8v-1.9h135v1.9
	H853.3z M853.3,423.6h-135v-79.4c0-1.9,1.6-3.8,3.8-3.8h127.7c1.9,0,3.8,1.6,3.8,3.8C853.3,344.2,853.3,423.6,853.3,423.6z
	 M847.9,345.8H724c-0.3,0-0.3,0.3-0.3,0.3v71.8c0,0.3,0.3,0.3,0.3,0.3h123.9c0.3,0,0.3-0.3,0.3-0.3v-71.8L847.9,345.8z M847.9,418.2
	H724v-71.8h123.9V418.2z"/>
<path opacity="0.2" fill="#328890" enable-background="new    " d="M723.7,346.1h124.2v72.1H723.7V346.1z"/>
<path fill="#328890" d="M1198.4,233.5h-12.7c0.3-0.5,0.3-0.8,0.3-1.4v-64.8c0-2.4-1.9-4.3-4.3-4.3H1078c-2.4,0-4.3,1.9-4.3,4.3v64.8
	c0,0.5,0,0.8,0.3,1.4h-12.7c0,0-0.3,0-0.3,0.3v2.2c0,0,0,0.3,0.3,0.3h0.3c1.1,0.5,3.2,1.6,5.9,1.6h124.7c2.7,0,5.1-1.1,5.9-1.6h0.3
	l0.3-0.3L1198.4,233.5C1198.7,233.8,1198.7,233.5,1198.4,233.5L1198.4,233.5z M1074.4,167.3c0-2.2,1.6-3.8,3.8-3.8h103.7
	c2.2,0,3.8,1.6,3.8,3.8v64.8c0,0.5,0,0.8-0.3,1.4h-11.3l-0.3-1.6h10c0.8,0,1.3-0.5,1.3-1.4v-63.2c0-1.9-1.6-3.5-3.5-3.5h-104
	c-1.9,0-3.5,1.6-3.5,3.5v63.2c0,0.8,0.5,1.4,1.3,1.4h9.7l-0.3,1.6h-11.1c-0.3-0.5-0.3-0.8-0.3-1.4L1074.4,167.3L1074.4,167.3z
	 M1085.8,233.5l0.3-1.6h87.2l0.3,1.6H1085.8z M1139.5,233.8c0,0.5-0.5,1.4-1.3,1.4H1122c-0.8,0-1.3-0.8-1.3-1.4H1139.5z
	 M1076.1,231.6c-0.5,0-1.1-0.5-1.1-1.1v-63.2c0-1.6,1.4-3.2,3.2-3.2h103.7c1.6,0,3.2,1.4,3.2,3.2v63.2c0,0.5-0.5,1.1-1.1,1.1H1076.1
	L1076.1,231.6z M1192.4,237.8h-124.7c-2.2,0-4.3-0.8-5.4-1.4h135.5C1196.8,237,1194.6,237.8,1192.4,237.8z M1198.4,235.9l-136.6,0.3
	v-2.5h58.6c0,0.5,0.5,1.6,1.6,1.6h16.2c1.1,0,1.6-1.1,1.6-1.6h58.6L1198.4,235.9L1198.4,235.9z M1182.2,167.9h-104.5
	c-0.3,0-0.3,0.3-0.3,0.3V229c0,0.3,0.3,0.3,0.3,0.3h104.5c0.3,0,0.3-0.3,0.3-0.3v-60.8C1182.5,167.9,1182.5,167.9,1182.2,167.9z
	 M1182.2,228.9h-104.5v-60.8h104.5V228.9z"/>
<path opacity="0.2" fill="#328890" enable-background="new    " d="M1077.7,168.1h104.5v60.8h-104.5V168.1z"/>
<path fill="#328890" d="M1031.3,353.4c-0.8-0.8-2.2-1.4-3.5-1.4H1003c-1.4,0-2.7,0.5-3.5,1.4s-1.6,2.2-1.6,3.5V416
	c0,1.4,0.5,2.7,1.6,3.5c0.8,0.8,2.2,1.4,3.5,1.4h24.6c1.4,0,2.7-0.5,3.5-1.4c0.8-0.8,1.6-2.2,1.6-3.5v-59.1
	C1032.6,355.5,1032.1,354.2,1031.3,353.4z M998.3,358.5h0.3v55.9h-0.3V358.5L998.3,358.5z M1032.3,416c0,1.4-0.5,2.4-1.3,3.2
	s-2.2,1.4-3.2,1.4H1003c-1.4,0-2.4-0.5-3.2-1.4s-1.4-2.2-1.4-3.2v-1.1h0.3v1.1c0,2.4,1.9,4.3,4.3,4.3h24.6c2.4,0,4.3-1.9,4.3-4.3
	v-1.1h0.3L1032.3,416z M999.1,416v-59.1c0-2.2,1.9-4,4-4h24.6c2.2,0,4.1,1.9,4.1,4V416c0,2.2-1.9,4-4.1,4h-24.8
	C1000.7,420.1,999.1,418.2,999.1,416L999.1,416z M1032.3,414.4h-0.3v-55.9h0.3V414.4z M1032.3,358h-0.3v-1.1c0-2.4-1.9-4.3-4.3-4.3
	h-24.8c-2.4,0-4.3,1.9-4.3,4.3v1.1h-0.3v-1.1c0-1.4,0.5-2.4,1.3-3.2s2.2-1.4,3.2-1.4h24.6c1.3,0,2.4,0.5,3.2,1.4
	c0.8,0.8,1.3,2.2,1.3,3.2L1032.3,358z M1013.2,357.1h4.9c0.3,0,0.5-0.3,0.5-0.5c0-0.3-0.3-0.5-0.5-0.5h-4.9c-0.3,0-0.5,0.3-0.5,0.5
	S1012.9,357.1,1013.2,357.1z M1013.2,356.3h4.9c0.3,0,0.3,0,0.3,0.3s0,0.3-0.3,0.3h-4.9c-0.3,0-0.3,0-0.3-0.3
	S1012.9,356.3,1013.2,356.3z M1000.5,411.4h29.4c0.3,0,0.3-0.3,0.3-0.3v-50.2c0-0.3-0.3-0.3-0.3-0.3h-29.4c-0.3,0-0.3,0.3-0.3,0.3
	v50.2L1000.5,411.4L1000.5,411.4z M1000.5,360.7h29.4v50.2h-29.4L1000.5,360.7L1000.5,360.7z M1015.6,412.8c-1.4,0-2.7,1.1-2.7,2.7
	s1.1,2.7,2.7,2.7s2.7-1.1,2.7-2.7C1018,413.9,1016.9,412.8,1015.6,412.8z M1015.6,417.6c-1.4,0-2.2-1.1-2.2-2.2
	c0-1.3,1.1-2.2,2.2-2.2c1.3,0,2.2,1.1,2.2,2.2S1016.9,417.6,1015.6,417.6z"/>
<path opacity="0.2" fill="#328890" enable-background="new    " d="M1000.5,360.7h29.4v50.2h-29.4V360.7z"/>
<path fill="#328890" d="M925.7,155.5c-0.8-0.8-1.6-1.1-2.7-1.1h-51.6c-0.8,0-1.9,0.3-2.4,1.1s-1.1,1.6-1.1,2.4v81
	c0,1.9,1.6,3.5,3.8,3.5h51c1.1,0,1.9-0.3,2.7-1.1s1.1-1.6,1.1-2.7v-81C926.8,157.1,926.5,156.3,925.7,155.5L925.7,155.5z
	 M926.5,238.9c0,2.2-1.6,3.5-3.5,3.5h-51c-1.9,0-3.5-1.6-3.5-3.2v-81c0-1.9,1.6-3.2,3.2-3.2h51.6c1.9,0,3.2,1.6,3.2,3.2V238.9
	L926.5,238.9z M923.3,155.2h-51.6c-0.8,0-1.3,0.3-1.9,0.8c-0.5,0.5-0.8,1.4-0.8,2.2v81c0,1.6,1.4,3,3.2,3h51c0.8,0,1.6-0.3,2.2-0.8
	c0.5-0.5,1.1-1.4,1.1-2.2v-80.7c0-0.8-0.3-1.6-0.8-2.2C924.9,155.5,924.1,155.2,923.3,155.2L923.3,155.2z M926,238.9
	c0,0.8-0.3,1.6-0.8,1.9c-0.5,0.5-1.4,0.8-2.2,0.8h-51c-1.6,0-3-1.1-3-2.7v-81c0-0.8,0.3-1.3,0.8-1.9c0.5-0.5,1.1-0.8,1.9-0.8h51.6
	c0.8,0,1.4,0.3,1.9,0.8s0.8,1.1,0.8,1.9V238.9L926,238.9z M922.7,159h-50.5c-0.3,0-0.3,0.3-0.3,0.3v75.3c0,0.3,0.3,0.3,0.3,0.3h50.5
	c0.3,0,0.3-0.3,0.3-0.3v-75.3C923,159.2,923,159,922.7,159L922.7,159z M922.7,234.6h-50.5v-75.3h50.5V234.6z M897.9,236.2
	c-1.1,0-2.2,0.8-2.2,2.2c0,1.1,0.8,1.9,2.2,1.9s2.2-0.8,2.2-2.2C899.8,237,899,236.2,897.9,236.2z M897.9,240
	c-0.5,0-0.8-0.3-1.3-0.5c-0.3-0.3-0.5-0.8-0.5-1.4c0-1.1,0.8-1.9,1.9-1.9c1.1,0,1.9,0.8,1.9,1.9C899.5,239.2,898.7,240,897.9,240
	L897.9,240z"/>
<path opacity="0.2" fill="#328890" enable-background="new    " d="M872.2,159h50.5v75.3h-50.5V159z"/>
<path opacity="0.8" fill="#FFFFFF" enable-background="new    " d="M809.3,371.2L781,399.5c-0.8,0.8-1.9,0.8-2.4,0L778,399l-0.5-0.5
	l-2.7-2.7l-12.2-12.4c-0.8-0.8-0.8-1.9,0-2.4l3.8-3.8c0.8-0.8,1.9-0.8,2.4,0l11.1,11.1l23.2-23.2c0.8-0.8,1.9-0.8,2.4,0l3.8,3.8
	C810.1,369.3,810.1,370.4,809.3,371.2L809.3,371.2z M912.5,189.8l-18.1,18.1c-0.5,0.5-1.1,0.5-1.6,0l-0.3-0.3l-0.5-0.5l-1.6-1.6
	l-7.8-7.8c-0.5-0.5-0.5-1.1,0-1.6l2.4-2.4c0.5-0.5,1.1-0.5,1.6,0l7,7l14.9-14.9c0.5-0.5,1.1-0.5,1.6,0l2.4,2.4
	C913,188.7,913,189.2,912.5,189.8L912.5,189.8z M1144.7,192.7l-18.1,18.1c-0.5,0.5-1.1,0.5-1.6,0l-0.3-0.3l-0.5-0.5l-1.6-1.6
	l-7.8-7.8c-0.5-0.5-0.5-1.1,0-1.6l2.4-2.4c0.5-0.5,1.1-0.5,1.6,0l7,7l14.9-14.8c0.5-0.5,1.1-0.5,1.6,0l2.4,2.4
	C1145.2,191.4,1145.2,192.2,1144.7,192.7L1144.7,192.7z M1024.2,382.8l-10.5,10.5c-0.3,0.3-0.8,0.3-1.1,0l-0.3-0.3l-0.3-0.3
	l-1.1-1.1l-4.6-4.6c-0.3-0.3-0.3-0.8,0-1.1l1.3-1.4c0.3-0.3,0.8-0.3,1.1,0l4,4l8.6-8.6c0.3-0.3,0.8-0.3,1.1,0l1.3,1.4
	C1024.5,382,1024.5,382.5,1024.2,382.8z"/>
</svg>
